<svg width="66" height="66" viewBox="0 0 66 66" fill="none" xmlns="http://www.w3.org/2000/svg">
<g clip-path="url(#clip0)">
<path d="M66 33C66 40.0757 63.7725 46.6318 59.9801 52.0046C58.896 53.5412 57.6843 54.9811 56.3578 56.3088C55.6695 57.0011 54.9489 57.6623 54.1999 58.2901C48.4662 63.1022 41.0708 66 33 66C25.1728 66 17.9811 63.2736 12.3234 58.7207C11.5436 58.0929 10.792 57.429 10.0727 56.7329C8.06051 54.7903 6.29578 52.5925 4.82754 50.1935C1.76602 45.1855 0 39.2996 0 33C0 14.7752 14.7752 0 33 0C51.2248 0 66 14.7752 66 33Z" fill="#75CEF9"/>
<path d="M59.9802 52.0047C58.3315 54.3417 56.3863 56.4558 54.2 58.2901C40.2601 59.2569 26.2764 59.4 12.3235 58.7207C9.36256 56.3372 6.82053 53.451 4.82764 50.1935C5.60365 49.7888 6.19533 49.072 6.42865 48.2045C6.49826 47.9402 6.53693 47.6618 6.53693 47.3744V43.4066H13.61V48.1349C13.61 48.4108 13.6474 48.6802 13.7144 48.9367C14.0573 50.2631 15.2381 51.2583 16.669 51.3124C22.1655 51.5161 27.666 51.5909 33.1651 51.5354C33.771 51.529 34.3369 51.3537 34.8138 51.0533C35.7123 50.4913 36.3078 49.4923 36.3078 48.3566V47.2003H40.3594V48.0936C40.3594 49.897 41.8585 51.3434 43.6606 51.2699C44.0255 51.2557 44.389 51.2402 44.7538 51.2235C46.3947 51.1526 48.0357 51.0701 49.6741 50.9747C50.5726 50.9231 51.3306 50.5171 51.8591 49.9202C52.7176 48.9509 52.9703 47.4801 52.2381 46.2129L52.0898 45.9538L55.5974 43.9287L57.3698 46.9992L59.6811 51.0005C59.8603 51.3124 59.9608 51.6553 59.9802 52.0047Z" fill="#738B95"/>
<path d="M56.3578 56.3088C55.6695 57.0011 54.9489 57.6624 54.1999 58.2901C40.26 59.2569 26.2763 59.4 12.3235 58.7207C11.5436 58.0929 10.7921 57.429 10.0728 56.7329C25.4938 57.4896 40.9522 57.3491 56.3578 56.3088Z" fill="#9BB9C1"/>
<path d="M13.6106 48.1347C13.6106 48.4105 13.6467 48.6799 13.7138 48.9365L9.18012 48.4801L6.42798 48.2043C6.49888 47.94 6.53755 47.6616 6.53755 47.3741V43.4064H13.6106V48.1347Z" fill="#5F7A82"/>
<path d="M43.6613 51.2696C44.0261 51.2555 44.3896 51.24 44.7544 51.2232C41.1657 51.6035 37.9198 51.5519 34.8145 51.0531C35.7129 50.4911 36.3085 49.492 36.3085 48.3564V47.2001H40.36V48.0934C40.36 49.8968 41.8592 51.3431 43.6613 51.2696Z" fill="#5F7A82"/>
<path d="M51.8596 49.92C52.7181 48.9506 52.9708 47.4798 52.2386 46.2126L52.0904 45.9535L55.5979 43.9284L57.3704 46.9989C56.3172 48.0147 54.6131 49.0937 51.8596 49.92Z" fill="#5F7A82"/>
<path d="M7.05826 9.54382C8.08977 6.44144 16.5219 3.05442 19.5717 4.75302C22.6215 6.45162 14.1933 13.6656 14.1933 13.6656L5.9873 13.5876L7.05826 9.54382Z" fill="#3B5559"/>
<path d="M48.7004 48.3433C38.3857 50.1712 31.0278 48.9535 22.7756 44.3798C20.6447 43.1981 18.4444 42.4623 16.3132 41.9672C15.8636 41.8638 15.4315 42.1987 15.4256 42.6598L15.3783 46.0009C15.3726 46.4232 15.0059 46.7504 14.5851 46.7086L9.18021 46.1649L3.46605 45.5908L2.31221 38.0358L2.31234 38.0345L1.7583 34.4114L7.11087 35.0803L59.0777 41.5797C59.0789 41.5969 59.0151 46.5167 48.7004 48.3433Z" fill="#B16E3D"/>
<path d="M9.18021 46.1652L3.46605 45.591L2.31221 38.0361L2.31234 38.0348L1.7583 34.4116L7.11087 35.0805L10.5244 38.7421C10.5244 38.742 7.20317 41.7527 9.18021 46.1652Z" fill="#8B572E"/>
<path d="M29.6272 8.23109C29.6261 8.22761 29.6247 8.22451 29.6235 8.22116C27.9498 3.07561 22.284 -1.49012 19.3383 1.03116C16.3908 3.55411 18.0073 7.00841 14.6165 8.8354C11.2256 10.6624 16.5591 15.8699 16.5591 15.8699L25.1971 10.8206C25.494 17.5564 31.2538 26.3676 34.5204 29.3029C40.9997 35.1253 50.4121 31.463 51.2568 30.2001C45.5039 28.2926 34.0106 22.252 29.6272 8.23109Z" fill="#DAE4EA"/>
<path d="M48.7318 46.053C38.418 47.8809 31.0613 46.664 22.8075 42.0891C21.5364 41.384 20.2396 40.8374 18.9493 40.4069C18.56 40.2767 18.172 40.1581 17.7853 40.0485C15.6261 39.4337 13.503 39.1088 11.5552 38.8665C7.48566 38.3599 4.18308 38.2206 2.90691 36.5797C-2.51231 29.8237 6.56398 10.578 7.03964 9.58413C6.89527 9.9412 5.95038 12.509 9.08796 11.6299C9.61905 11.4816 10.4209 11.0898 11.4083 10.5677C13.436 9.49261 16.241 7.86839 19.0653 6.67214C19.4907 6.49038 19.92 6.32022 20.3441 6.16296C20.9074 5.95413 21.4655 5.76851 22.0147 5.61253C24.4085 4.93835 26.8989 6.34858 27.5035 8.76042C32.9137 30.3251 49.9203 32.1982 51.2571 30.2001C52.1826 30.5069 52.9573 30.7067 53.5323 30.8163C53.6921 30.8472 53.8455 30.882 53.995 30.9246C54.4359 31.0431 54.8381 31.2082 55.2055 31.4131C57.9821 32.9471 58.7891 36.6415 59.1152 39.3396C59.4993 42.5171 59.0456 44.2264 48.7318 46.053Z" fill="#F6F9F9"/>
<path d="M1.61084 37.0746L1.61103 37.0726" stroke="#6BBCD5" stroke-width="3" stroke-miterlimit="10"/>
<path d="M0.94241 30.1798C0.942281 30.1811 0.942152 30.1824 0.942152 30.1837C0.942023 30.185 0.942023 30.185 0.941895 30.1863" stroke="#6BBCD5" stroke-width="3" stroke-miterlimit="10"/>
<path d="M55.2057 31.413C55.115 31.8326 54.9853 32.2376 54.82 32.6165C54.707 32.874 54.4461 33.0206 54.18 33C54.1094 32.9944 54.0395 32.9774 53.9707 32.9475C53.6443 32.8058 53.4965 32.4258 53.6395 32.0994C53.7875 31.7592 53.8999 31.393 53.9725 31.0082C53.9774 30.9788 53.9847 30.951 53.9945 30.9246C54.4354 31.0429 54.8376 31.2085 55.2057 31.413Z" fill="#DAE4EA"/>
<path d="M47.9131 36.2992C47.872 35.9456 47.553 35.692 47.1979 35.7342C46.4373 35.8225 45.6338 35.8636 44.8094 35.8565C44.4529 35.8521 44.1618 36.1386 44.1587 36.4938C44.1555 36.8349 44.4168 37.1176 44.7522 37.1436C44.7664 37.1448 44.7819 37.1447 44.7962 37.1444C45.6747 37.1532 46.534 37.11 47.3483 37.0141C47.7017 36.9732 47.9541 36.6528 47.9131 36.2992ZM42.0962 35.4663C41.457 35.2396 40.7194 34.9147 39.9034 34.5009C39.5862 34.3406 39.1988 34.4669 39.0383 34.7854C38.8767 35.1025 39.0043 35.49 39.3214 35.6517C40.1848 36.0884 40.9737 36.4354 41.6657 36.6818C41.7198 36.7002 41.7758 36.7123 41.8311 36.7166C42.115 36.7386 42.3881 36.5698 42.4887 36.2893C42.6077 35.9546 42.4322 35.5854 42.0962 35.4663ZM52.8886 34.2457C52.6796 33.958 52.2759 33.8943 51.9881 34.1034C51.4236 34.5134 50.7413 34.8587 49.9574 35.1288C49.6213 35.2463 49.4428 35.6125 49.5589 35.9487C49.6454 36.1998 49.8707 36.3621 50.1187 36.3813C50.2035 36.3879 50.2922 36.3779 50.3787 36.3471C51.2822 36.0345 52.079 35.6309 52.7462 35.1461C53.0342 34.937 53.0977 34.5334 52.8886 34.2457ZM37.3615 33.0662C36.6867 32.6492 36.0002 32.1978 35.3219 31.7248C35.0288 31.521 34.6275 31.5933 34.4238 31.8853C34.2202 32.1773 34.2924 32.5797 34.5843 32.7834C35.2822 33.2694 35.9897 33.7342 36.6842 34.1631C36.7742 34.2191 36.874 34.2502 36.973 34.2579C37.2056 34.276 37.4404 34.1663 37.5719 33.954C37.7584 33.6504 37.6649 33.254 37.3615 33.0662ZM32.9689 29.9752C32.3295 29.4678 31.6994 28.9406 31.093 28.4073C30.8256 28.1719 30.4189 28.1985 30.1835 28.4659C29.9482 28.7321 29.9747 29.1401 30.2408 29.3755C30.8642 29.923 31.5113 30.4645 32.1679 30.9848C32.2725 31.0679 32.3946 31.1122 32.518 31.1218C32.7249 31.1379 32.9343 31.0545 33.0733 30.8805C33.2939 30.6017 33.2478 30.196 32.9689 29.9752ZM28.9589 26.4019C28.3783 25.8203 27.817 25.222 27.2893 24.625C27.0527 24.3585 26.6446 24.3345 26.3795 24.5699C26.1117 24.8051 26.0877 25.2131 26.323 25.4796C26.8674 26.0959 27.4478 26.7124 28.0452 27.3122C28.1578 27.4257 28.3031 27.4874 28.4521 27.499C28.6321 27.5129 28.8178 27.4511 28.9565 27.3133C29.2088 27.0625 29.2095 26.654 28.9589 26.4019ZM25.4411 22.3663C24.9465 21.7087 24.4802 21.0389 24.0546 20.3736C23.8619 20.0741 23.4641 19.9863 23.1647 20.1791C22.8641 20.3704 22.7774 20.7696 22.9689 21.0689C23.4129 21.7615 23.8979 22.4585 24.4099 23.1408C24.5259 23.2946 24.6976 23.3816 24.8763 23.3955C25.0267 23.4073 25.1824 23.3663 25.3129 23.2678C25.5971 23.0546 25.6544 22.6505 25.4411 22.3663ZM22.6146 17.8544C22.2472 17.1237 21.9181 16.3833 21.6374 15.6529C21.5094 15.3197 21.1355 15.1549 20.8037 15.2831C20.4719 15.4099 20.3059 15.7836 20.434 16.1154C20.7298 16.8856 21.0765 17.6664 21.463 18.4347C21.5683 18.6433 21.7718 18.7702 21.9903 18.7873C22.1034 18.796 22.2202 18.7754 22.3291 18.7205C22.6465 18.5601 22.7747 18.1732 22.6146 17.8544ZM20.7814 12.9036C20.5953 12.1211 20.4576 11.3282 20.372 10.5496C20.3336 10.195 20.0147 9.94004 19.6612 9.97858C19.3079 10.0171 19.0517 10.3359 19.0915 10.6895C19.1821 11.5215 19.3285 12.3667 19.5274 13.2019C19.5937 13.4811 19.8322 13.6742 20.1046 13.6953C20.1689 13.7004 20.2364 13.6952 20.3036 13.6797C20.6501 13.598 20.8632 13.25 20.7814 12.9036Z" fill="#DAE4EA"/>
<path d="M20.2823 7.70866C20.2651 8.06419 19.9645 8.33953 19.6076 8.32213L19.5883 8.32058C19.2426 8.29377 18.9786 7.99651 18.9941 7.64872C19.0102 7.32414 19.0331 6.9962 19.0647 6.67161C19.4912 6.49011 19.9195 6.32034 20.3441 6.16321C20.3808 6.25654 20.3959 6.36121 20.3838 6.46756C20.3351 6.87877 20.3014 7.29629 20.2823 7.70866Z" fill="#DAE4EA"/>
<path d="M24.5211 13.007C24.3027 12.99 24.0987 12.8622 23.9938 12.6521C23.8348 12.3336 23.9641 11.9466 24.2826 11.7875C24.4573 11.7003 28.6024 9.66482 31.8356 10.934C32.1669 11.0641 32.3302 11.4381 32.2002 11.7695C32.0701 12.1009 31.6952 12.264 31.3647 12.1339C28.6585 11.0718 24.896 12.922 24.8582 12.9407C24.7499 12.995 24.6335 13.0156 24.5211 13.007Z" fill="#DAE4EA"/>
<path d="M25.8335 16.7777C25.6042 16.7599 25.3918 16.6195 25.2928 16.3942C25.1498 16.0683 25.2977 15.6881 25.6236 15.5449C25.8037 15.4657 30.0692 13.6159 33.2269 14.346C33.5736 14.4262 33.7898 14.7724 33.7096 15.1192C33.6295 15.466 33.2836 15.682 32.9365 15.602C30.1917 14.967 26.1824 16.7075 26.1422 16.7251C26.0415 16.7692 25.9358 16.7857 25.8335 16.7777Z" fill="#DAE4EA"/>
<path d="M28.0616 20.5623C27.8845 20.5485 27.714 20.4621 27.5982 20.3097C27.3828 20.0263 27.438 19.6219 27.7213 19.4065C27.8391 19.3169 30.6499 17.2133 34.4193 17.1951C34.7753 17.1931 35.0652 17.4807 35.067 17.8366C35.0687 18.1925 34.7815 18.4825 34.4256 18.4842C31.0823 18.5003 28.5269 20.4134 28.5013 20.4328C28.3705 20.5323 28.2136 20.574 28.0616 20.5623Z" fill="#DAE4EA"/>
<path d="M31.3684 24.115C31.2295 24.1041 31.0933 24.0487 30.9829 23.9473C30.7207 23.7067 30.7032 23.2994 30.9435 23.0372C31.0659 22.9036 33.9733 19.769 36.7338 19.9833C37.0887 20.0109 37.3541 20.3209 37.3265 20.6758C37.2989 21.0306 36.9889 21.2961 36.634 21.2685C34.8627 21.1309 32.6114 23.1277 31.8934 23.9086C31.754 24.0601 31.5589 24.1298 31.3684 24.115Z" fill="#DAE4EA"/>
<path d="M34.3162 27.1244C34.1985 27.1153 34.0817 27.0736 33.9803 26.9976C33.6955 26.7842 33.6375 26.3805 33.8507 26.0957C33.8777 26.0599 34.5197 25.2063 35.4512 24.3278C36.7614 23.0921 37.9704 22.4347 39.0445 22.374C39.4012 22.354 39.7044 22.6258 39.7243 22.9811C39.7444 23.3365 39.4726 23.6409 39.1173 23.661C37.5512 23.7495 35.5295 26.0064 34.8825 26.8685C34.7451 27.0516 34.5288 27.1409 34.3162 27.1244Z" fill="#DAE4EA"/>
<path d="M38.4222 29.6215C38.3385 29.615 38.2546 29.5919 38.1755 29.5507C37.8598 29.3866 37.7365 28.9981 37.9004 28.6823C37.9202 28.644 38.3947 27.7353 39.145 26.8376C40.2335 25.5351 41.3348 24.9174 42.4184 25.0016C42.7733 25.0292 43.0387 25.3392 43.0111 25.6941C42.9836 26.049 42.6735 26.3144 42.3187 26.2868C40.9709 26.1821 39.4656 28.4674 39.0444 29.2761C38.9213 29.5127 38.6721 29.6409 38.4222 29.6215Z" fill="#DAE4EA"/>
<path d="M42.6774 31.672C42.6036 31.6662 42.5293 31.6475 42.4582 31.6147C42.1347 31.466 41.9931 31.0832 42.142 30.7598C42.4497 30.0909 44.086 26.7619 46.0851 26.9171C46.44 26.9447 46.7054 27.2547 46.6778 27.6096C46.6502 27.9645 46.3402 28.2299 45.9853 28.2023C45.5679 28.17 44.9338 28.6987 44.2892 29.6168C43.7091 30.4428 43.3169 31.2901 43.3131 31.2987C43.1971 31.5507 42.9389 31.6922 42.6774 31.672Z" fill="#DAE4EA"/>
<path d="M11.5554 38.866C7.48572 38.36 4.18276 38.2213 2.90723 36.5798C-2.56149 29.7617 6.73072 10.2252 7.05002 9.56079C6.94986 9.8012 5.86653 12.532 9.08738 11.6299C9.61873 11.4811 10.4209 11.0895 11.408 10.5674C9.01648 16.9578 4.27505 32.4335 11.5554 38.866Z" fill="#DAE4EA"/>
<path d="M2.773 26.7331C2.49353 26.7331 2.23584 26.5501 2.15399 26.2683C2.05473 25.9268 2.25041 25.5696 2.59175 25.47C2.61302 25.4638 3.12285 25.3163 3.94707 25.2012C4.29976 25.152 4.62538 25.3979 4.67462 25.7504C4.72386 26.1029 4.47804 26.4285 4.12535 26.4779C3.40244 26.5788 2.95669 26.7065 2.95218 26.7076C2.89236 26.725 2.83229 26.7331 2.773 26.7331Z" fill="#DAE4EA"/>
<path d="M9.29259 25.4911C8.51915 25.2849 7.70446 25.1521 6.87044 25.0954C6.51337 25.0722 6.20786 25.3403 6.18466 25.6948C6.16017 26.0506 6.42829 26.3574 6.78407 26.3819C7.5356 26.4334 8.26778 26.552 8.96001 26.7377C9.01544 26.7518 9.07216 26.7583 9.1263 26.7583C9.41118 26.7583 9.67157 26.5688 9.74892 26.28C9.84044 25.9359 9.63548 25.5827 9.29259 25.4911ZM14.0144 28.0847C13.406 27.5201 12.7383 27.0264 12.028 26.6165C11.7199 26.4386 11.3254 26.5443 11.1475 26.8524C10.9697 27.1605 11.0754 27.5549 11.3834 27.7328C12.0099 28.0938 12.599 28.5307 13.1366 29.0296C13.2616 29.1456 13.4189 29.2023 13.5749 29.2023C13.7489 29.2023 13.9203 29.1327 14.0479 28.9961C14.2903 28.7357 14.2748 28.3271 14.0144 28.0847ZM17.0695 32.474C16.7266 31.7096 16.3347 30.9916 15.9068 30.3393C15.7108 30.0428 15.3112 29.9603 15.0134 30.1563C14.717 30.3509 14.6345 30.7505 14.8291 31.0483C15.221 31.6425 15.5781 32.2987 15.8926 33.0012C15.9996 33.241 16.2342 33.3828 16.4804 33.3828C16.5693 33.3828 16.6583 33.3647 16.7447 33.3261C17.0695 33.1804 17.2139 32.7988 17.0695 32.474ZM18.5713 37.5258C18.4243 36.7137 18.2464 35.93 18.0415 35.1939C17.9448 34.851 17.589 34.6512 17.2474 34.7479C16.9045 34.8433 16.7034 35.1991 16.8001 35.542C16.9947 36.238 17.1636 36.9818 17.3015 37.754C17.3583 38.0646 17.6302 38.2838 17.9358 38.2838C17.9731 38.2838 18.0118 38.2812 18.0505 38.2735C18.4011 38.2103 18.6344 37.8752 18.5713 37.5258Z" fill="#DAE4EA"/>
<path d="M18.9492 40.4069C18.5599 40.2767 18.1719 40.1581 17.7852 40.0485C17.8909 39.9029 18.0559 39.8036 18.2479 39.7856C18.6011 39.7546 18.9157 40.0163 18.9466 40.3708C18.9479 40.3824 18.9492 40.394 18.9492 40.4069Z" fill="#DAE4EA"/>
</g>
<defs>
<clipPath id="clip0">
<rect width="66" height="66" fill="white"/>
</clipPath>
</defs>
</svg>
