<svg width="66" height="66" viewBox="0 0 66 66" fill="none" xmlns="http://www.w3.org/2000/svg">
<path d="M33 0.129395C20.3007 0.129395 12.4779 7.29259 12.4562 7.30463C12.4562 7.30463 12.131 7.7106 12.0702 7.98042C11.5761 10.1737 11.1145 13.1133 11.1145 15.2583C11.1145 33.4837 26.4838 48.2547 44.7093 48.2547C51.7274 48.2547 59.5357 44.891 64.7615 40.8467C64.8784 40.7563 65.2493 40.1484 65.2493 40.1484C65.2723 40.0078 65.9998 37.1102 65.9998 33.1293C66 14.9039 51.2254 0.129395 33 0.129395Z" fill="#FEF056"/>
<path d="M44.7065 47.3232C26.481 47.3232 11.7065 32.5487 11.7065 14.3232C11.7065 11.9142 11.9662 9.56694 12.4564 7.30469C4.86705 13.3508 0 22.672 0 33.1295C0 41.0171 2.76734 48.2585 7.38398 53.9355L58.616 53.9362C61.8138 50.0055 64.1304 45.314 65.2494 40.1486C59.6122 44.6386 52.4734 47.3232 44.7065 47.3232Z" fill="#FED402"/>
<path d="M55.4218 0H24.9985L22.3372 52.878L24.9985 65.1527C26.6397 65.5614 28.3294 65.8473 30.0575 66H35.9355C40.7711 65.572 45.3244 64.097 49.3543 61.7939L49.7771 60.9749L51.0487 60.7568C53.9066 58.8871 56.4614 56.5843 58.6159 53.936V3.19414C58.6158 1.43 57.1858 0 55.4218 0V0Z" fill="#57C3EB"/>
<path d="M10.578 0C8.81403 0 7.38403 1.43 7.38403 3.19414V53.9355C9.11776 56.0674 11.1124 57.9788 13.3191 59.6209L24.9985 54.843V51.1323L23.3629 41.1572L24.9985 39.4529V35.7421L23.8473 25.7418L24.9985 24.0627V0L10.578 0Z" fill="#41AAE1"/>
<path d="M32.1009 18.1445C29.9372 18.0724 28.1702 16.9544 28.1702 15.8004C28.1702 15.1874 28.7111 14.2858 29.3963 14.2858C30.1537 14.2858 30.7667 15.3497 32.1009 15.584V12.6631C30.4421 12.0319 28.4947 11.2566 28.4947 8.94872C28.4947 6.65878 30.1896 5.55891 32.1009 5.28844V4.7836C32.1009 4.53112 32.3894 4.29675 32.786 4.29675C33.1286 4.29675 33.4713 4.53112 33.4713 4.7836V5.23434C34.5891 5.27045 36.6987 5.55891 36.6987 6.80307C36.6987 7.28992 36.3741 8.2816 35.5807 8.2816C34.9856 8.2816 34.6431 7.70468 33.4711 7.61448V10.247C35.1119 10.86 37.0231 11.7075 37.0231 14.1416C37.0231 16.3773 35.5807 17.7297 33.4711 18.0724V18.5953C33.4711 18.8477 33.1286 19.0822 32.7859 19.0822C32.3893 19.0822 32.1008 18.8477 32.1008 18.5953V18.1445H32.1009ZM32.2811 9.81422V7.66858C31.4697 7.83086 31.1271 8.24549 31.1271 8.67837C31.1271 9.2012 31.596 9.52576 32.2811 9.81422ZM33.2909 13.1499V15.5661C33.9039 15.4218 34.3907 15.0792 34.3907 14.4301C34.3907 13.835 33.94 13.4564 33.2909 13.1499Z" fill="#FED402"/>
<path d="M40.2556 9.95605H47.4196V12.8031H40.2556V9.95605Z" fill="#FED402"/>
<path d="M17.8252 9.95605H24.9892V12.8031H17.8252V9.95605Z" fill="#FFC344"/>
<path d="M13.3191 24.0627H24.9985V35.7421H13.3191V24.0627Z" fill="white"/>
<path d="M29.564 28.8024H50.7273V31.0024H29.564V28.8024Z" fill="white"/>
<path d="M13.3191 39.4529H24.9985V51.1323H13.3191V39.4529Z" fill="white"/>
<path d="M29.7246 44.1926H50.888V46.3926H29.7246V44.1926Z" fill="white"/>
<path d="M13.3191 59.6209C16.7582 62.18 20.7126 64.0852 24.9985 65.1527V54.8431H13.3191V59.6209Z" fill="white"/>
<path d="M51.0487 60.7567V59.5827H29.8855V61.7827H49.3739C49.9428 61.4571 50.5013 61.1148 51.0487 60.7567Z" fill="white"/>
<path d="M21.7277 34.7313L15.8054 28.8091L18.5506 26.0638L21.7277 29.241L27.382 23.5867L30.1272 26.3319L21.7277 34.7313Z" fill="#BBEC6C"/>
<path d="M21.7277 50.5423L15.8054 44.6201L18.5506 41.8748L21.7277 45.0518L27.382 39.3976L30.1272 42.1428L21.7277 50.5423Z" fill="#BBEC6C"/>
</svg>
