<svg width="66" height="66" viewBox="0 0 66 66" fill="none" xmlns="http://www.w3.org/2000/svg">
<g clip-path="url(#clip0)">
<ellipse cx="33.4715" cy="35.4264" rx="30.5735" ry="30.5735" fill="#FFD23C"/>
<mask id="mask0" mask-type="alpha" maskUnits="userSpaceOnUse" x="2" y="4" width="63" height="62">
<ellipse cx="33.4715" cy="35.4265" rx="30.5735" ry="30.5735" fill="#C4C4C4"/>
</mask>
<g mask="url(#mask0)">
<path d="M67.2087 59.9481L61.8289 30.3083C61.7752 30.0124 61.5917 29.7562 61.3288 29.61L47.788 22.0787C47.6122 21.9808 47.4152 21.9419 47.2217 21.9568L49.6852 53.7362L49.6026 53.7731L65.808 61.0432C65.9398 61.1022 66.08 61.1314 66.2195 61.1314C66.4403 61.1314 66.6591 61.0587 66.839 60.9179C67.133 60.6884 67.2752 60.315 67.2087 59.9481Z" fill="#44C868"/>
<path d="M32.986 29.2785L19.1372 22.0654C18.9712 21.9788 18.7872 21.9435 18.6059 21.9557C18.6539 21.9528 18.7022 21.953 18.7501 21.9568L16.2866 53.7361L32.5745 61.0433C32.7059 61.1021 32.8462 61.1314 32.986 61.1314V29.2785Z" fill="#44C868"/>
<path d="M18.7503 21.9568C18.5567 21.9419 18.3597 21.9808 18.184 22.0786L4.64303 29.6099C4.38008 29.756 4.19658 30.0122 4.14295 30.3082L-1.23676 59.948C-1.30337 60.3147 -1.16106 60.6881 -0.867219 60.9179C-0.687062 61.0588 -0.468386 61.1314 -0.247703 61.1314C-0.108205 61.1314 0.032096 61.1024 0.163837 61.0432L16.2809 53.8127L18.7503 21.9568Z" fill="#4CE166"/>
<path d="M47.2222 21.9563C47.089 21.9666 46.9573 22.002 46.8352 22.0657L32.9863 29.2787V61.1316C32.9863 61.1316 32.9863 61.1316 32.9865 61.1316C33.1262 61.1316 33.2667 61.1025 33.398 61.0435L49.6859 53.7363L47.2222 21.9563Z" fill="#4CE166"/>
<path d="M2.51253 39.2905L1.41968 45.3117L17.6023 36.7645L17.978 31.9176L18.0403 31.1138L2.51253 39.2905Z" fill="#FFA756"/>
<path d="M17.7477 34.885L17.6021 36.7644L1.41948 45.3117L-1.23701 59.948C-1.30361 60.3147 -1.16131 60.6882 -0.867464 60.9179C-0.687306 61.0588 -0.46863 61.1314 -0.247947 61.1314C-0.108449 61.1314 0.031852 61.1024 0.163593 61.0433L16.2807 53.8128L17.7477 34.885Z" fill="#A8EEFC"/>
<path d="M32.9901 33.2514L18.0401 31.1138L17.6021 36.7645L32.9861 60.1273V51.6319L23.8061 37.1768L32.9901 38.2753V33.2514Z" fill="#FF7324"/>
<path d="M60.2629 29.0172L53.7581 25.3992L47.6001 26.838L47.6771 27.8326L47.9813 31.7559L60.2629 29.0172Z" fill="#FF7324"/>
<path d="M48.5277 38.8014L47.9445 31.2783L47.6004 26.838L32.99 33.2514V38.2753L42.5336 34.1251L48.5277 38.8014Z" fill="#FFA756"/>
<path d="M67.2094 59.948L65.8582 52.5028L47.9819 31.7559L48.5282 38.8014L66.8609 60.8992C67.1396 60.6682 67.2743 60.3055 67.2094 59.948Z" fill="#FF7324"/>
<path d="M33.3978 61.0433L39.4545 58.3261L32.9861 51.632V61.1315C32.9861 61.1315 32.9861 61.1315 32.9862 61.1315C33.126 61.1315 33.2663 61.1025 33.3978 61.0433Z" fill="#FFA756"/>
<path d="M61.8293 30.3082C61.7757 30.0123 61.5922 29.7561 61.3292 29.6099L60.2633 29.017L47.9817 31.7557L65.8578 52.5027L61.8293 30.3082Z" fill="#1EA4E9"/>
<path d="M32.9861 61.1314C32.9863 61.1314 32.9863 61.1314 32.9861 61.1314V60.1272L17.6023 36.7644L16.2866 53.7362L32.5745 61.0434C32.7059 61.1024 32.8462 61.1314 32.9861 61.1314Z" fill="#1EA4E9"/>
</g>
<path d="M33.0505 0C25.2981 0 18.991 6.30189 18.991 14.048C18.991 18.8396 21.2659 23.9841 25.7527 29.3382C29.0481 33.2708 32.2987 35.8001 32.4355 35.9059C32.6166 36.0459 32.8335 36.1159 33.0506 36.1159C33.2675 36.1159 33.4846 36.0459 33.6657 35.9059C33.8024 35.8001 37.0531 33.2708 40.3485 29.3382C44.8353 23.9841 47.1102 18.8397 47.1102 14.048C47.11 6.30189 40.8028 0 33.0505 0ZM38.2572 14.0479C38.2572 16.921 35.926 19.2504 33.0505 19.2504C30.1749 19.2504 27.8437 16.9211 27.8437 14.0479C27.8437 11.1746 30.1749 8.84536 33.0505 8.84536C35.926 8.84536 38.2572 11.1747 38.2572 14.0479Z" fill="#FF4A4A"/>
<path d="M33.0508 0C32.4363 0 31.8311 0.0398566 31.2373 0.116627C38.1364 1.00832 43.4835 6.91579 43.4835 14.048C43.4835 18.8396 41.2086 23.9841 36.7217 29.3382C34.6025 31.8671 32.5034 33.8143 31.2374 34.9113C31.9401 35.5201 32.3871 35.8682 32.4358 35.9059C32.6169 36.0459 32.8338 36.1159 33.0509 36.1159C33.2679 36.1159 33.4849 36.0459 33.666 35.9059C33.8027 35.8001 37.0534 33.2708 40.3488 29.3382C44.8356 23.9841 47.1105 18.8397 47.1105 14.048C47.1103 6.30189 40.8032 0 33.0508 0Z" fill="#E7343F"/>
</g>
<defs>
<clipPath id="clip0">
<rect width="66" height="66" fill="white"/>
</clipPath>
</defs>
</svg>
