<svg width="66" height="66" viewBox="0 0 66 66" fill="none" xmlns="http://www.w3.org/2000/svg">
<path d="M52.2368 6.29978C46.8136 2.37387 40.1488 0.0579834 32.9419 0.0579834C23.1016 0.0579834 16.1954 4.36602 13.5869 6.29978H52.2368Z" fill="#FFD23C"/>
<path d="M16.8645 61.7562C21.6202 64.4208 27.103 65.9419 32.9419 65.9419C38.7557 65.9419 44.2441 64.4265 49.0137 61.7562H16.8645Z" fill="#FFA50A"/>
<path d="M9.38232 9.97842V53.5847H21.8809V6.09644H13.8649C12.9317 6.76845 12.4396 7.21763 12.4343 7.2206C11.3604 8.07618 10.341 8.99753 9.38232 9.97842Z" fill="#AFE6FF"/>
<path d="M9.6086 46.1348V9.74927C3.67168 15.7072 0 23.9249 0 33C0 45.5832 7.05514 56.5185 17.4257 62.0662H21.8811V53.4328H16.9066C12.8761 53.4328 9.6086 50.1654 9.6086 46.1348Z" fill="#73C8F0"/>
<path d="M9.38232 10.6504H17.0815V12.2006H9.38232V10.6504Z" fill="#41B4E6"/>
<path d="M9.38232 13.4663H17.0815V15.0165H9.38232V13.4663Z" fill="#41B4E6"/>
<path d="M9.38232 16.2823H17.0815V17.8326H9.38232V16.2823Z" fill="#41B4E6"/>
<path d="M9.60868 12.2006V10.6504H8.74392C8.2795 11.1529 7.83059 11.6699 7.39795 12.2006H9.60868Z" fill="#0091C8"/>
<path d="M9.60864 15.0164V13.4662H6.41598C6.04276 13.9721 5.68363 14.4889 5.33936 15.0164H9.60864Z" fill="#0091C8"/>
<path d="M9.60858 17.8326V16.2823H4.55295C4.25299 16.7904 3.96633 17.3074 3.69336 17.8326H9.60858Z" fill="#0091C8"/>
<path d="M18.2263 32.5454H19.7765V37.847H18.2263V32.5454Z" fill="#41B4E6"/>
<path d="M43.9406 53.4328L28.4324 57.5035L31.6681 6.09644H43.9406V53.4328Z" fill="#AFE6FF"/>
<path d="M31.668 46.1348V6.09644H21.8142V62.0662H43.9405V53.4328H38.966C34.9355 53.4328 31.668 50.1653 31.668 46.1348Z" fill="#73C8F0"/>
<path d="M31.3328 10.6504H39.141V12.2006H31.3328V10.6504Z" fill="#41B4E6"/>
<path d="M25.6899 13.4663H39.1411V15.0165H25.6899V13.4663Z" fill="#41B4E6"/>
<path d="M25.6899 16.2823H39.1411V17.8326H25.6899V16.2823Z" fill="#41B4E6"/>
<path d="M25.6899 10.6504H31.6682V12.2006H25.6899V10.6504Z" fill="#0091C8"/>
<path d="M25.6899 13.4663H31.6682V15.0165H25.6899V13.4663Z" fill="#0091C8"/>
<path d="M25.6899 16.2823H31.6682V17.8326H25.6899V16.2823Z" fill="#0091C8"/>
<path d="M40.2859 32.5454H41.8361V37.847H40.2859V32.5454Z" fill="#41B4E6"/>
<path d="M44.4446 7.22046H65.5581V60.9421H44.4446V7.22046Z" fill="#0091C8"/>
<path d="M52.6046 51.5335V7.22046H44.4446V60.9421H65.5581V55.3575H56.4285C54.3166 55.3575 52.6046 53.6454 52.6046 51.5335Z" fill="#0073AA"/>
<path d="M45.1128 49.4156H65.2396V51.3534H45.1128V49.4156Z" fill="#AFE6FF"/>
<path d="M45.1128 49.4156H54.9369V51.3534H45.1128V49.4156Z" fill="#73C8F0"/>
<path d="M45.1128 34.8237H65.2396V36.7615H45.1128V34.8237Z" fill="#AFE6FF"/>
<path d="M51.5037 6.09644C51.5066 6.74236 51.5183 7.38828 51.529 8.0342H64.0622V60.1284H61.2141V62.0662H65.9999V6.09644H51.5037Z" fill="#73C8F0"/>
<path d="M61.3358 60.1284H45.9407V8.0342H51.8424V6.09644H43.8738V62.0662H61.3358V60.1284Z" fill="#41B4E6"/>
<path d="M53.6636 18.2906H34.7341V12.4575L44.258 10.3248L53.6636 12.4592V18.2906ZM36.2843 16.7404H52.1134V13.6971L44.2557 11.9138L36.2842 13.6987V16.7404H36.2843Z" fill="white"/>
<path d="M53.5161 11.8841L47.2703 10.502C47.4816 10.9594 47.6085 11.4648 47.6321 11.9925C47.6724 12.8936 47.2 13.9229 46.5727 14.5504C45.9167 15.2064 44.9424 15.6098 44.0148 15.6098C41.9869 15.6098 40.4854 13.9524 40.3975 11.9925C40.3756 11.5027 40.506 10.9752 40.7298 10.4946L34.4783 11.8822C32.1182 12.406 30.439 14.499 30.439 16.9165V42.6777H57.5586V16.9191C57.5586 14.5004 55.8777 12.4067 53.5161 11.8841Z" fill="#DD544F"/>
<path d="M46.7711 10.3917V12.2255C46.7711 13.7466 45.5379 14.9798 44.0167 14.9798C42.4956 14.9798 41.2624 13.7466 41.2624 12.2255V10.3763L39.8689 10.6856V12.4072C39.8689 14.6981 41.7259 16.5551 44.0167 16.5551C46.3076 16.5551 48.1646 14.6981 48.1646 12.4072V10.7001L46.7711 10.3917Z" fill="#D80A61"/>
<path d="M31.4615 30.112L36.9489 21.8664L31.1134 14.3679L24.0872 24.9259L31.4615 30.112Z" fill="#D80A61"/>
<path d="M56.5445 30.1717L51.0571 21.9261L56.8928 14.4277L63.9188 24.9856L56.5445 30.1717Z" fill="#DD544F"/>
<path d="M43.8519 42.6775C40.4872 42.6775 37.7596 39.9499 37.7596 36.5852V16.9164C37.7596 14.9968 38.8188 13.2827 40.4364 12.3956C40.4171 12.2629 40.4035 12.1286 40.3973 11.9925C40.3753 11.5027 40.5058 10.9752 40.7295 10.4946L34.4782 11.8822C32.1181 12.406 30.4387 14.499 30.4387 16.9165V47.6312H57.5584V42.6777H43.8519V42.6775Z" fill="#D80A61"/>
<path d="M36.5774 28.8828V25.1729C36.5774 22.765 38.0753 21.8691 40.0072 21.8691C41.9392 21.8691 43.4511 22.7652 43.4511 25.1729V28.8828C43.4511 31.2908 41.9392 32.1867 40.0072 32.1867C38.0753 32.1867 36.5774 31.2908 36.5774 28.8828ZM41.2672 25.1729C41.2672 24.207 40.7911 23.7731 40.0072 23.7731C39.2233 23.7731 38.7613 24.207 38.7613 25.1729V28.8828C38.7613 29.8489 39.2232 30.2828 40.0072 30.2828C40.7912 30.2828 41.2672 29.8489 41.2672 28.8828V25.1729Z" fill="white"/>
<path d="M48.9106 29.0228V28.7567C48.9106 27.8189 48.3366 27.6368 47.5667 27.6368C47.0907 27.6368 46.9368 27.2169 46.9368 26.7969C46.9368 26.3769 47.0908 25.9569 47.5667 25.9569C48.0987 25.9569 48.6587 25.8869 48.6587 24.7529C48.6587 23.941 48.1967 23.745 47.6228 23.745C46.9368 23.745 46.5867 23.913 46.5867 24.4589C46.5867 24.9349 46.3768 25.2569 45.5647 25.2569C44.5567 25.2569 44.4308 25.0469 44.4308 24.3749C44.4308 23.2831 45.2148 21.8691 47.6226 21.8691C49.4006 21.8691 50.7445 22.513 50.7445 24.403C50.7445 25.4249 50.3665 26.3769 49.6666 26.6988C50.4926 27.0068 51.0945 27.6228 51.0945 28.7567V29.0228C51.0945 31.3187 49.5125 32.1867 47.5526 32.1867C45.1448 32.1867 44.2207 30.7167 44.2207 29.5409C44.2207 28.9108 44.4867 28.7429 45.2566 28.7429C46.1526 28.7429 46.3765 28.9389 46.3765 29.4709C46.3765 30.1288 46.9926 30.2828 47.6225 30.2828C48.5746 30.2828 48.9106 29.9328 48.9106 29.0228Z" fill="white"/>
<path d="M44.9029 11.4263H43.3527V8.20004C43.3527 7.77206 43.6998 7.42494 44.1278 7.42494C44.8433 7.42494 45.4253 6.84283 45.4253 6.12728C45.4253 5.41186 44.8432 4.82975 44.1278 4.82975C43.4123 4.82975 42.8302 5.41186 42.8302 6.12728H41.28C41.28 4.55704 42.5575 3.27954 44.1278 3.27954C45.698 3.27954 46.9755 4.55704 46.9755 6.12728C46.9755 7.42907 46.0977 8.52959 44.9029 8.86793V11.4263Z" fill="white"/>
</svg>
