<svg width="66" height="66" viewBox="0 0 66 66" fill="none" xmlns="http://www.w3.org/2000/svg">
<g clip-path="url(#clip0)">
<path d="M66 33C66 44.2716 60.3488 54.2231 51.725 60.176C50.7646 58.9978 48.8941 59.2698 48.3077 60.6723L47.4788 62.6614C43.1077 64.8 38.1938 66 33 66C14.7752 66 0 51.2248 0 33C0 27.0419 1.57914 21.4539 4.34154 16.6289C10.0289 6.69413 20.7333 0 33 0C45.2668 0 55.9711 6.69413 61.6585 16.6289C64.421 21.4539 66 27.0419 66 33Z" fill="#57C3EB"/>
<path d="M66 33C66 38.5443 64.6323 43.7688 62.2166 48.3553C60.8979 50.8587 59.2685 53.1712 57.3775 55.2428C55.6888 57.0927 53.7927 58.749 51.725 60.176C50.7646 58.9978 48.8941 59.2698 48.3077 60.6723L47.4788 62.6614C43.1077 64.8 38.1938 66 33 66C23.345 66 14.6579 61.8531 8.62248 55.2428C6.73138 53.1712 5.1021 50.8587 3.78336 48.3553C1.36773 43.7688 0 38.5443 0 33C0 27.0419 1.57914 21.4539 4.34154 16.6289C7.61712 22.3498 12.5555 26.9968 18.4993 29.9076C22.8408 32.0372 27.7186 33.2385 32.875 33.2565C32.9162 33.2578 32.9588 33.2578 33 33.2578C33.0413 33.2578 33.0838 33.2578 33.125 33.2565C38.2735 33.2385 43.1423 32.0409 47.4788 29.9192C47.4853 29.9153 47.493 29.9128 47.4995 29.9089C48.2149 29.5583 48.9162 29.1831 49.602 28.7822C50.3277 28.3594 51.0367 27.9095 51.7251 27.4325C55.7908 24.6276 59.1953 20.9318 61.6586 16.6289C64.421 21.4539 66 27.0419 66 33Z" fill="#41AAE1"/>
<path d="M51.7252 12.5413V60.1761C51.0356 60.6518 50.3278 61.1017 49.6021 61.5258C48.9098 61.9293 48.2021 62.3083 47.4789 62.6615L48.438 11.0629C48.4793 8.8121 46.6668 6.96496 44.4149 6.96496H35.9457C33.9283 6.96496 32.2229 8.45901 31.9574 10.4596L29.7852 26.8629H27.6621V12.5413C27.6621 7.39152 31.8515 3.20081 37.0026 3.20081H42.3844C47.5345 3.20081 51.7252 7.39152 51.7252 12.5413Z" fill="white"/>
<path d="M49.602 12.5414V61.5257C48.9097 61.9292 48.202 62.3082 47.4789 62.6614V12.5414C47.4789 9.73126 45.1933 7.4457 42.3845 7.4457H37.0027C34.1926 7.4457 31.907 9.73126 31.907 12.5414V26.8629H29.7852V12.5414C29.7852 8.55561 33.0155 5.32385 37.0027 5.32385H42.3845C46.3717 5.32385 49.602 8.55561 49.602 12.5414Z" fill="#D3EBF6"/>
<path d="M30.577 39.0496H16.1768V34.5663C16.1768 30.917 18.3308 27.7716 21.4374 26.3317C23.3066 25.4654 24.972 24.1982 26.2843 22.6089C26.7007 22.1049 27.2227 21.6924 27.8183 21.4062C28.4036 21.1239 29.0584 20.964 29.7507 20.9589H29.7842C33.0016 26.5083 33.2839 33.2694 30.577 39.0496Z" fill="white"/>
<path d="M30.5767 39.0496H22.9802V34.5663C22.9802 30.917 24.0566 27.7716 25.61 26.3317C26.5459 25.4654 27.3786 24.1982 28.0333 22.6089C28.2422 22.1049 28.5039 21.6924 28.8003 21.4062C29.0891 21.1277 29.4114 20.9692 29.7504 20.9589H29.7839C33.0014 26.5083 33.2837 33.2694 30.5767 39.0496Z" fill="#D3EBF6"/>
<path d="M43.3916 34.5665V39.0492H29.7842V20.9587C31.1933 20.9587 32.4521 21.6014 33.2845 22.6094C34.5957 24.1989 36.262 25.4649 38.1317 26.3319C41.2375 27.772 43.3916 30.9174 43.3916 34.5665Z" fill="#9DD6ED"/>
<path d="M29.784 40.6172H15.9535C15.4908 40.6172 15.0705 40.4303 14.7676 40.126C14.4634 39.8218 14.2751 39.4029 14.2751 38.9388C14.2751 38.0119 15.0267 37.2604 15.9535 37.2604H29.7838C30.6941 38.195 30.6941 39.6839 29.784 40.6172Z" fill="#D3EBF6"/>
<path d="M29.7839 40.6172H22.7585C22.2944 40.6172 21.8742 40.4303 21.5712 40.126C21.267 39.8218 21.0801 39.4029 21.0801 38.9388C21.0801 38.0119 21.8303 37.2604 22.7585 37.2604H29.7839C30.694 38.195 30.694 39.6839 29.7839 40.6172Z" fill="#9DD6ED"/>
<path d="M45.2924 38.9393C45.2924 39.8664 44.5411 40.6177 43.614 40.6177H29.7842V37.2609H43.614C44.0775 37.2609 44.497 37.4488 44.8007 37.7525C45.1044 38.0562 45.2924 38.4757 45.2924 38.9393Z" fill="#76CAEA"/>
<path d="M30.1957 45.5127L30.1391 45.3966C29.9952 45.1007 29.5736 45.1007 29.4297 45.3966L29.3731 45.5127C29.0578 46.1608 28.6939 46.7831 28.3491 47.416C28.0017 48.0535 28.1104 48.8734 28.675 49.3968C29.2923 49.9689 30.2765 49.9689 30.8937 49.3968C31.4585 48.8734 31.5671 48.0533 31.2196 47.4158C30.8748 46.7831 30.511 46.1607 30.1957 45.5127Z" fill="white"/>
<path d="M22.3666 50.1742L22.31 50.0581C22.166 49.7622 21.7445 49.7622 21.6006 50.0581L21.544 50.1742C21.2287 50.8223 20.8648 51.4446 20.52 52.0775C20.1726 52.715 20.2813 53.5349 20.8459 54.0583C21.4631 54.6304 22.4473 54.6304 23.0646 54.0583C23.6294 53.5349 23.738 52.7148 23.3905 52.0773C23.0457 51.4445 22.6819 50.8222 22.3666 50.1742Z" fill="white"/>
<path d="M38.2604 50.1742L38.2038 50.0581C38.0598 49.7622 37.6383 49.7622 37.4944 50.0581L37.4378 50.1742C37.1225 50.8223 36.7586 51.4446 36.4138 52.0775C36.0664 52.715 36.1751 53.5349 36.7397 54.0583C37.3569 54.6304 38.3411 54.6304 38.9584 54.0583C39.5232 53.5349 39.6318 52.7148 39.2843 52.0773C38.9393 51.4445 38.5756 50.8222 38.2604 50.1742Z" fill="white"/>
<path d="M18.7688 42.4232L18.7122 42.3071C18.5682 42.0112 18.1467 42.0112 18.0028 42.3071L17.9464 42.4232C17.6311 43.0714 17.2672 43.6936 16.9224 44.3265C16.575 44.964 16.6836 45.784 17.2482 46.3073C17.8654 46.8794 18.8498 46.8794 19.467 46.3073C20.0317 45.784 20.1404 44.9638 19.7928 44.3264C19.4478 43.6936 19.084 43.0712 18.7688 42.4232Z" fill="white"/>
<path d="M39.8941 42.4232L39.8375 42.3071C39.6936 42.0112 39.272 42.0112 39.1281 42.3071L39.0716 42.4232C38.7563 43.0714 38.3924 43.6936 38.0476 44.3265C37.7002 44.964 37.8089 45.784 38.3735 46.3073C38.9907 46.8794 39.9749 46.8794 40.5922 46.3073C41.1569 45.784 41.2656 44.9638 40.9181 44.3264C40.573 43.6936 40.2092 43.0712 39.8941 42.4232Z" fill="white"/>
<path d="M29.657 57.9092L29.6005 57.793C29.4565 57.4972 29.035 57.4972 28.8912 57.793L28.8346 57.9092C28.5193 58.5573 28.1554 59.1796 27.8105 59.8125C27.4631 60.4499 27.5718 61.2699 28.1364 61.7933C28.7536 62.3654 29.7378 62.3654 30.3551 61.7933C30.9199 61.2699 31.0286 60.4498 30.681 59.8122C30.3359 59.1796 29.9723 58.5573 29.657 57.9092Z" fill="white"/>
</g>
<defs>
<clipPath id="clip0">
<rect width="66" height="66" fill="white"/>
</clipPath>
</defs>
</svg>
