<svg width="66" height="66" viewBox="0 0 66 66" fill="none" xmlns="http://www.w3.org/2000/svg">
<path d="M66 33C66 36.425 65.4779 39.7276 64.5098 42.833C64.0308 44.3694 60.8257 44.4786 60.1371 45.9096C59.3136 47.6207 60.9636 50.6288 59.8692 52.1606C53.8854 60.5382 44.0808 66 33 66C21.9192 66 12.1146 60.5382 6.13078 52.1606C4.12113 49.3479 2.54203 46.2064 1.49016 42.833C0.52207 39.7276 0 36.425 0 33C0 14.7752 14.7752 0 33 0C51.2248 0 66 14.7752 66 33Z" fill="#DD636E"/>
<path d="M19.8309 51.5676V53.7797C19.8309 53.9872 19.8077 54.1883 19.7651 54.3829C19.4893 55.6411 18.3678 56.5834 17.0272 56.5834H13.3752C12.0346 56.5834 10.9131 55.6411 10.6373 54.3829C10.5934 54.1883 10.5715 53.9872 10.5715 53.7797V51.5676H19.8309Z" fill="#F9F6F6"/>
<path d="M16.5906 56.5834H13.3757C11.8276 56.5834 10.572 55.3278 10.572 53.7797V51.5676H13.7869V53.7797C13.7869 55.3278 15.0425 56.5834 16.5906 56.5834Z" fill="#D0CEE7"/>
<path d="M55.4293 51.5676V53.7797C55.4293 53.9872 55.4073 54.1883 55.3635 54.3829C55.0877 55.6411 53.9662 56.5834 52.6255 56.5834H48.9736C47.633 56.5834 46.5115 55.6411 46.2357 54.3829C46.1931 54.1883 46.1699 53.9872 46.1699 53.7797V51.5676H55.4293Z" fill="#F9F6F6"/>
<path d="M52.1876 56.5834H48.9727C47.4245 56.5834 46.1689 55.3278 46.1689 53.7797V51.5676H49.3839V53.7797C49.3839 55.3278 50.6394 56.5834 52.1876 56.5834Z" fill="#D0CEE7"/>
<path d="M11.7168 2.32512C9.63198 2.69276 8.23992 4.68088 8.60743 6.76568L14.0682 37.7349L21.6179 36.4037L16.1573 5.43434C15.7897 3.34954 13.8016 1.95748 11.7168 2.32512Z" fill="#F9F6F6"/>
<path d="M13.2934 2.3777C12.0683 3.19445 11.3744 4.68602 11.6467 6.22967L17.1075 37.1999L14.0684 37.7358L8.60744 6.76554C8.23993 4.68112 9.6316 2.69339 11.7174 2.32562C12.2582 2.23036 12.7925 2.25395 13.2934 2.3777Z" fill="#D0CEE7"/>
<path d="M54.2834 2.23967C52.1986 1.87203 50.2104 3.26409 49.8428 5.34902L44.3821 36.3184L51.9319 37.6496L57.3926 6.68036C57.7604 4.59543 56.3682 2.60731 54.2834 2.23967Z" fill="#F9F6F6"/>
<path d="M55.747 2.82838C54.3164 3.17695 53.1543 4.3411 52.882 5.88488L47.4212 36.8551L44.3821 36.3193L49.8429 5.34902C50.2104 3.2646 52.1981 1.8728 54.2839 2.24057C54.8245 2.33583 55.3186 2.54079 55.747 2.82838Z" fill="#D0CEE7"/>
<path d="M10.5715 51.5676H19.8309V53.7797C19.8309 53.9872 19.8077 54.1883 19.7651 54.3829H10.6373C10.5934 54.1883 10.5715 53.9872 10.5715 53.7797V51.5676Z" fill="#D0CEE7"/>
<path d="M55.4285 51.5676V53.7797C55.4285 53.9872 55.4066 54.1883 55.3628 54.3829H46.2349C46.1924 54.1883 46.1692 53.9872 46.1692 53.7797V51.5676H55.4285Z" fill="#D0CEE7"/>
<path d="M64.5097 40.6944V42.833C63.4578 46.2065 61.8787 49.3479 59.869 52.1606C58.6071 52.849 57.1607 53.2396 55.6229 53.2396H10.3768C8.83893 53.2396 7.39261 52.849 6.13061 52.1606C3.36558 50.655 1.48999 47.7224 1.48999 44.3528V40.6944C1.48999 35.7857 5.46933 31.8063 10.3768 31.8063H55.6229C60.5303 31.8063 64.5097 35.7857 64.5097 40.6944Z" fill="#F9F6F6"/>
<path d="M19.2932 53.239H10.3768C5.46804 53.239 1.48999 49.2597 1.48999 44.3522V40.6939C1.48999 35.7851 5.46804 31.8058 10.3768 31.8058H19.2932C14.3845 31.8058 10.4051 35.7851 10.4051 40.6939V44.3522C10.4051 49.2597 14.3845 53.239 19.2932 53.239Z" fill="#D0CEE7"/>
<path d="M53.9215 49.0833C52.3724 49.0833 50.8233 48.4937 49.6441 47.3145C47.2856 44.956 47.2856 41.1184 49.6441 38.7599C50.1475 38.2565 50.9637 38.2564 51.4671 38.7599C51.9705 39.2634 51.9706 40.0795 51.4671 40.5829C50.1137 41.9363 50.1137 44.1383 51.4671 45.4915C52.8205 46.845 55.0226 46.8449 56.3757 45.4915C57.7291 44.1383 57.7291 41.9363 56.3757 40.5829C55.8723 40.0795 55.8723 39.2633 56.3757 38.7599C56.8791 38.2567 57.6953 38.2565 58.1987 38.7599C60.5572 41.1184 60.5572 44.956 58.1987 47.3145C57.0195 48.4937 55.4704 49.0833 53.9215 49.0833Z" fill="#95D6A4"/>
<path d="M53.9214 43.9221C53.2094 43.9221 52.6323 43.345 52.6323 42.633V37.2518C52.6323 36.5399 53.2094 35.9628 53.9214 35.9628C54.6333 35.9628 55.2104 36.5399 55.2104 37.2518V42.633C55.2104 43.345 54.6333 43.9221 53.9214 43.9221Z" fill="#95D6A4"/>
<path d="M53.4498 46.474C52.4121 46.6146 51.3203 46.2871 50.5249 45.4905C49.1714 44.1383 49.1714 41.9353 50.5249 40.5817C51.0276 40.079 51.0276 39.263 50.5236 38.759C50.3947 38.6301 50.2439 38.5334 50.084 38.4716C50.5468 38.2898 51.0934 38.3852 51.4672 38.759C51.9712 39.263 51.9712 40.079 51.4672 40.5817C50.1137 41.9353 50.1137 44.1383 51.4672 45.4905C52.0241 46.0474 52.724 46.3748 53.4498 46.474Z" fill="#78C2A4"/>
<path d="M58.1989 47.3145C57.0194 48.4927 55.4712 49.0831 53.9217 49.0831C53.7645 49.0831 53.6072 49.0767 53.45 49.0651C54.8383 48.9568 56.1969 48.3728 57.2565 47.3145C59.6142 44.9555 59.6142 41.118 57.2565 38.759C57.1264 38.6301 56.9768 38.5334 56.8157 38.4716C57.2785 38.2898 57.825 38.3852 58.1989 38.759C60.5578 41.118 60.5578 44.9555 58.1989 47.3145Z" fill="#78C2A4"/>
<path d="M55.2108 37.2508V42.6326C55.2108 43.3442 54.6333 43.9217 53.9217 43.9217C53.7555 43.9217 53.5956 43.8895 53.45 43.8315C53.9295 43.6445 54.2672 43.1779 54.2672 42.6326V37.2508C54.2672 36.7055 53.9295 36.2389 53.45 36.052C53.5956 35.994 53.7555 35.9617 53.9217 35.9617C54.6333 35.9617 55.2108 36.5392 55.2108 37.2508Z" fill="#78C2A4"/>
<path d="M42.6796 45.4273C44.2954 45.4273 45.6052 44.1174 45.6052 42.5016C45.6052 40.8858 44.2954 39.576 42.6796 39.576C41.0638 39.576 39.7539 40.8858 39.7539 42.5016C39.7539 44.1174 41.0638 45.4273 42.6796 45.4273Z" fill="#F6E266"/>
<path d="M43.8196 45.1984C43.469 45.3453 43.0836 45.4278 42.6788 45.4278C41.0636 45.4278 39.7539 44.1169 39.7539 42.5017C39.7539 40.8865 41.0636 39.5755 42.6788 39.5755C43.0836 39.5755 43.469 39.658 43.8196 39.805C42.7703 40.251 42.0343 41.2912 42.0343 42.5017C42.0343 43.7121 42.7703 44.7524 43.8196 45.1984Z" fill="#FFD064"/>
<path d="M35.4459 45.4273C37.0617 45.4273 38.3716 44.1174 38.3716 42.5016C38.3716 40.8858 37.0617 39.576 35.4459 39.576C33.8301 39.576 32.5203 40.8858 32.5203 42.5016C32.5203 44.1174 33.8301 45.4273 35.4459 45.4273Z" fill="#95D6A4"/>
<path d="M36.586 45.1984C36.2354 45.3453 35.8499 45.4278 35.4452 45.4278C33.83 45.4278 32.5203 44.1169 32.5203 42.5017C32.5203 40.8865 33.83 39.5755 35.4452 39.5755C35.8499 39.5755 36.2354 39.658 36.586 39.805C35.5367 40.251 34.8006 41.2912 34.8006 42.5017C34.8006 43.7121 35.5367 44.7524 36.586 45.1984Z" fill="#78C2A4"/>
<path d="M28.118 45.4273C29.7338 45.4273 31.0437 44.1174 31.0437 42.5016C31.0437 40.8858 29.7338 39.576 28.118 39.576C26.5022 39.576 25.1924 40.8858 25.1924 42.5016C25.1924 44.1174 26.5022 45.4273 28.118 45.4273Z" fill="#B1E4F9"/>
<path d="M29.2581 45.1984C28.9075 45.3453 28.522 45.4278 28.1173 45.4278C26.5021 45.4278 25.1924 44.1169 25.1924 42.5017C25.1924 40.8865 26.5021 39.5755 28.1173 39.5755C28.522 39.5755 28.9075 39.658 29.2581 39.805C28.2088 40.251 27.4727 41.2912 27.4727 42.5017C27.4727 43.7121 28.2088 44.7524 29.2581 45.1984Z" fill="#90D8F9"/>
</svg>
