<svg width="46" height="46" viewBox="0 0 46 46" fill="none" xmlns="http://www.w3.org/2000/svg">
<path d="M6.19238 0.0881348V37.7888H39.9077V10.0478L29.8334 0.0881348H6.19238Z" fill="#E8E8E8"/>
<path d="M39.8078 33.6154H6.19238V46H39.8078V33.6154Z" fill="#65AD6D"/>
<path d="M13.5737 40.4821H10.1429V42.5903H14.1952V44.2308H7.96143V35.3846H14.2076V37.0311H10.1429V38.8963H13.5737V40.4821Z" fill="white"/>
<path d="M18.4587 38.3252L19.9379 35.3846H22.4302L19.9006 39.7712L22.4985 44.2308H19.9814L18.4587 41.2355L16.936 44.2308H14.4251L17.0168 39.7712L14.4935 35.3846H16.9795L18.4587 38.3252Z" fill="white"/>
<path d="M25.3948 42.5903H29.1922V44.2308H23.2133V35.3846H25.3948V42.5903Z" fill="white"/>
<path d="M34.5 14.1539H11.5V16.8077H34.5V14.1539Z" fill="#ABB7B7"/>
<path d="M34.5 23H11.5V25.6538H34.5V23Z" fill="#ABB7B7"/>
</svg>
