<svg width="40" height="40" viewBox="0 0 40 40" fill="none" xmlns="http://www.w3.org/2000/svg">
<g clip-path="url(#clip0)">
<path d="M39.8519 19.5266C39.5369 19.0683 31.9667 8.3331 19.9999 8.3331C9.73138 8.3331 0.58124 19.0066 0.196234 19.4616C-0.0654112 19.7716 -0.0654112 20.2266 0.196234 20.5383C0.58124 20.9933 9.73138 31.6668 19.9999 31.6668C30.2684 31.6668 39.4185 20.9933 39.8035 20.5383C40.0452 20.2516 40.0669 19.8366 39.8519 19.5266ZM19.9999 30.0001C11.7681 30.0001 3.94129 22.15 1.95298 20C3.93801 17.8483 11.7565 9.99984 19.9999 9.99984C29.6317 9.99984 36.4302 17.8383 38.0902 19.955C36.1734 22.0367 28.3017 30.0001 19.9999 30.0001Z" fill="white"/>
<path d="M20.0007 13.3332C16.324 13.3332 13.334 16.3232 13.334 19.9999C13.334 23.6766 16.324 26.6667 20.0007 26.6667C23.6774 26.6667 26.6675 23.6766 26.6675 19.9999C26.6675 16.3232 23.6774 13.3332 20.0007 13.3332ZM20.0007 25.0001C17.244 25.0001 15.0007 22.7567 15.0007 20C15.0007 17.2433 17.244 14.9999 20.0007 14.9999C22.7574 14.9999 25.0008 17.2433 25.0008 20C25.0008 22.7567 22.7574 25.0001 20.0007 25.0001Z" fill="white"/>
</g>
<defs>
<clipPath id="clip0">
<rect width="40" height="40" fill="white"/>
</clipPath>
</defs>
</svg>
