<svg width="296" height="63" viewBox="0 0 296 63" fill="none" xmlns="http://www.w3.org/2000/svg">
<path d="M78.687 12.1215V24.3867H77.4079V13.2429H71.4856L71.3454 17.343C71.287 19.0367 71.1468 20.4034 70.9249 21.4431C70.7146 22.471 70.3875 23.242 69.9437 23.7559C69.4998 24.2582 68.9099 24.5094 68.174 24.5094C67.8586 24.5094 67.5315 24.4685 67.1927 24.3867L67.2979 23.2303C67.4965 23.277 67.6892 23.3004 67.8761 23.3004C68.3901 23.3004 68.8047 23.0959 69.1201 22.6871C69.4472 22.2783 69.6925 21.6475 69.8561 20.7948C70.0196 19.9303 70.1306 18.7914 70.189 17.378L70.3642 12.1215H78.687ZM92.3743 23.2653V24.3867H83.701V12.1215H92.1115V13.2429H84.9976V17.6058H91.3405V18.7097H84.9976V23.2653H92.3743ZM107.394 23.2653V27.1376H106.185V24.3867H95.4788L95.4613 27.1376H94.2523L94.2698 23.2653H94.8831C95.6891 23.2186 96.2498 22.582 96.5652 21.3554C96.8806 20.1172 97.0733 18.3651 97.1434 16.0989L97.2836 12.1215H105.554V23.2653H107.394ZM98.2998 16.2216C98.2414 18.0906 98.0954 19.6325 97.8618 20.8473C97.6398 22.0505 97.2602 22.8565 96.7229 23.2653H104.275V13.2429H98.4049L98.2998 16.2216ZM116.294 24.4918C115.079 24.4918 113.975 24.2232 112.982 23.6858C112.001 23.1368 111.23 22.3892 110.669 21.4431C110.12 20.4969 109.846 19.4339 109.846 18.2541C109.846 17.0743 110.12 16.0113 110.669 15.0651C111.23 14.1189 112.001 13.3772 112.982 12.8399C113.975 12.2908 115.079 12.0163 116.294 12.0163C117.509 12.0163 118.601 12.285 119.57 12.8223C120.552 13.3597 121.323 14.1073 121.883 15.0651C122.444 16.0113 122.724 17.0743 122.724 18.2541C122.724 19.4339 122.444 20.5027 121.883 21.4606C121.323 22.4068 120.552 23.1485 119.57 23.6858C118.601 24.2232 117.509 24.4918 116.294 24.4918ZM116.294 23.3354C117.263 23.3354 118.139 23.1193 118.922 22.6871C119.705 22.2432 120.318 21.6358 120.762 20.8648C121.206 20.0822 121.428 19.2119 121.428 18.2541C121.428 17.2962 121.206 16.4318 120.762 15.6609C120.318 14.8782 119.705 14.2708 118.922 13.8386C118.139 13.3947 117.263 13.1728 116.294 13.1728C115.324 13.1728 114.442 13.3947 113.648 13.8386C112.865 14.2708 112.246 14.8782 111.791 15.6609C111.347 16.4318 111.125 17.2962 111.125 18.2541C111.125 19.2119 111.347 20.0822 111.791 20.8648C112.246 21.6358 112.865 22.2432 113.648 22.6871C114.442 23.1193 115.324 23.3354 116.294 23.3354ZM133.966 18.0613C134.819 18.2366 135.467 18.5812 135.911 19.0951C136.355 19.5974 136.577 20.2574 136.577 21.0751C136.577 22.1381 136.197 22.9558 135.438 23.5282C134.69 24.1005 133.586 24.3867 132.126 24.3867H126.694V12.1215H131.793C133.102 12.1215 134.124 12.3901 134.86 12.9275C135.596 13.4648 135.963 14.2416 135.963 15.2579C135.963 15.9471 135.788 16.5311 135.438 17.01C135.087 17.4773 134.597 17.8277 133.966 18.0613ZM127.974 17.6759H131.723C132.669 17.6759 133.394 17.4831 133.896 17.0977C134.41 16.7122 134.667 16.1515 134.667 15.4156C134.667 14.6796 134.41 14.1189 133.896 13.7335C133.394 13.348 132.669 13.1552 131.723 13.1552H127.974V17.6759ZM132.126 23.3529C134.24 23.3529 135.298 22.5645 135.298 20.9875C135.298 19.4456 134.24 18.6746 132.126 18.6746H127.974V23.3529H132.126ZM145.829 16.5019C147.277 16.5019 148.381 16.829 149.14 17.4831C149.911 18.1373 150.297 19.0951 150.297 20.3567C150.297 21.6767 149.888 22.6813 149.07 23.3705C148.264 24.048 147.096 24.3867 145.566 24.3867H140.695V12.1215H141.974V16.5019H145.829ZM145.531 23.3529C146.664 23.3529 147.522 23.1018 148.106 22.5995C148.702 22.0972 149 21.3554 149 20.3742C149 18.4936 147.844 17.5532 145.531 17.5532H141.974V23.3529H145.531ZM152.417 12.1215H153.696V24.3867H152.417V12.1215ZM158.699 12.1215H159.978V22.2841L167.828 12.1215H169.002V24.3867H167.723V14.2416L159.873 24.3867H158.699V12.1215ZM163.815 11.2278C162.939 11.2278 162.244 11.0293 161.73 10.6321C161.228 10.2349 160.971 9.68009 160.959 8.96754H161.923C161.935 9.43478 162.11 9.80274 162.449 10.0714C162.788 10.3401 163.243 10.4744 163.815 10.4744C164.376 10.4744 164.826 10.3401 165.165 10.0714C165.515 9.80274 165.696 9.43478 165.708 8.96754H166.672C166.66 9.68009 166.397 10.2349 165.883 10.6321C165.369 11.0293 164.68 11.2278 163.815 11.2278ZM190.745 23.2653V27.1376H189.536V24.3867H178.831L178.813 27.1376H177.604L177.622 23.2653H178.235C179.041 23.2186 179.602 22.582 179.917 21.3554C180.232 20.1172 180.425 18.3651 180.495 16.0989L180.635 12.1215H188.906V23.2653H190.745ZM181.652 16.2216C181.593 18.0906 181.447 19.6325 181.214 20.8473C180.992 22.0505 180.612 22.8565 180.075 23.2653H187.626V13.2429H181.757L181.652 16.2216ZM201.538 18.0613C202.391 18.2366 203.039 18.5812 203.483 19.0951C203.927 19.5974 204.149 20.2574 204.149 21.0751C204.149 22.1381 203.769 22.9558 203.01 23.5282C202.262 24.1005 201.158 24.3867 199.698 24.3867H194.266V12.1215H199.365C200.673 12.1215 201.696 12.3901 202.431 12.9275C203.167 13.4648 203.535 14.2416 203.535 15.2579C203.535 15.9471 203.36 16.5311 203.01 17.01C202.659 17.4773 202.169 17.8277 201.538 18.0613ZM195.545 17.6759H199.295C200.241 17.6759 200.965 17.4831 201.468 17.0977C201.982 16.7122 202.239 16.1515 202.239 15.4156C202.239 14.6796 201.982 14.1189 201.468 13.7335C200.965 13.348 200.241 13.1552 199.295 13.1552H195.545V17.6759ZM199.698 23.3529C201.812 23.3529 202.869 22.5645 202.869 20.9875C202.869 19.4456 201.812 18.6746 199.698 18.6746H195.545V23.3529H199.698ZM213.646 24.4918C212.431 24.4918 211.327 24.2232 210.334 23.6858C209.353 23.1368 208.582 22.3892 208.021 21.4431C207.472 20.4969 207.198 19.4339 207.198 18.2541C207.198 17.0743 207.472 16.0113 208.021 15.0651C208.582 14.1189 209.353 13.3772 210.334 12.8399C211.327 12.2908 212.431 12.0163 213.646 12.0163C214.861 12.0163 215.953 12.285 216.922 12.8223C217.904 13.3597 218.675 14.1073 219.235 15.0651C219.796 16.0113 220.076 17.0743 220.076 18.2541C220.076 19.4339 219.796 20.5027 219.235 21.4606C218.675 22.4068 217.904 23.1485 216.922 23.6858C215.953 24.2232 214.861 24.4918 213.646 24.4918ZM213.646 23.3354C214.615 23.3354 215.491 23.1193 216.274 22.6871C217.057 22.2432 217.67 21.6358 218.114 20.8648C218.558 20.0822 218.78 19.2119 218.78 18.2541C218.78 17.2962 218.558 16.4318 218.114 15.6609C217.67 14.8782 217.057 14.2708 216.274 13.8386C215.491 13.3947 214.615 13.1728 213.646 13.1728C212.676 13.1728 211.794 13.3947 211 13.8386C210.217 14.2708 209.598 14.8782 209.143 15.6609C208.699 16.4318 208.477 17.2962 208.477 18.2541C208.477 19.2119 208.699 20.0822 209.143 20.8648C209.598 21.6358 210.217 22.2432 211 22.6871C211.794 23.1193 212.676 23.3354 213.646 23.3354ZM228.637 12.1215C230.202 12.1215 231.429 12.4953 232.317 13.2429C233.205 13.9905 233.648 15.0184 233.648 16.3267C233.648 17.635 233.205 18.6629 232.317 19.4105C231.429 20.1464 230.202 20.5144 228.637 20.5144H225.343V24.3867H224.046V12.1215H228.637ZM228.602 19.3755C229.817 19.3755 230.746 19.1127 231.388 18.587C232.031 18.0497 232.352 17.2962 232.352 16.3267C232.352 15.3338 232.031 14.5745 231.388 14.0489C230.746 13.5115 229.817 13.2429 228.602 13.2429H225.343V19.3755H228.602ZM245.865 23.2653V24.3867H237.191V12.1215H245.602V13.2429H238.488V17.6058H244.831V18.7097H238.488V23.2653H245.865ZM261.532 23.2653V27.2603H260.323V24.3867H249.617V12.1215H250.896V23.2653H258.308V12.1215H259.587V23.2653H261.532Z" fill="#444444"/>
<path d="M88.046 45.1505L91.7215 54.2134H88.0208L85.025 46.7869H82.0292L80.5439 54.2134H77.3468L78.8321 46.7869H75.8111L69.9203 54.2134H66.0182L73.4699 44.9239L70.021 36.5912H73.4195L76.2391 43.9673H79.3859L80.8712 36.5912H84.0684L82.5831 43.9673H85.604L91.3942 36.5912H94.9438L88.046 45.1505ZM100.239 39.3352L99.3323 43.917H107.866L107.338 46.6106H98.7784L97.8218 51.4693H107.791L107.237 54.2134H94.0204L97.5449 36.5912H110.409L109.855 39.3352H100.239ZM133.694 36.5912L130.169 54.2134H127.073L129.364 42.6582L121.836 52.1994H120.376L116.348 42.4317L114.007 54.2134H110.885L114.41 36.5912H117.078L121.761 48.2973L130.874 36.5912H133.694ZM151.879 36.5912L148.354 54.2134H145.132L146.441 47.6428C144.78 48.2134 143.219 48.4987 141.759 48.4987C139.778 48.4987 138.259 48.0792 137.202 47.24C136.145 46.4009 135.616 45.2093 135.616 43.6652C135.616 43.2624 135.675 42.7421 135.792 42.1044L136.9 36.5912H140.122L139.04 41.9533C138.956 42.3729 138.914 42.7254 138.914 43.0107C138.914 44.7897 140.03 45.6792 142.262 45.6792C143.856 45.6792 145.451 45.3267 147.045 44.6219L148.656 36.5912H151.879ZM171.998 36.5912L161.475 50.9407C160.585 52.1658 159.629 53.0805 158.605 53.6847C157.598 54.2721 156.558 54.5658 155.483 54.5658C154.611 54.5658 153.738 54.3728 152.865 53.9868L153.973 51.4945C154.527 51.6791 155.039 51.7714 155.509 51.7714C156.667 51.7714 157.707 51.1924 158.63 50.0344L159.083 49.5561L154.703 36.5912H158.102L161.274 46.8624L168.7 36.5912H171.998ZM190.416 45.1505L194.092 54.2134H190.391L187.395 46.7869H184.399L182.914 54.2134H179.717L181.202 46.7869H178.181L172.29 54.2134H168.388L175.84 44.9239L172.391 36.5912H175.79L178.609 43.9673H181.756L183.241 36.5912H186.439L184.953 43.9673H187.974L193.764 36.5912H197.314L190.416 45.1505ZM215.548 36.5912L212.024 54.2134H208.777L210.262 46.7365H201.149L199.663 54.2134H196.391L199.915 36.5912H203.188L201.753 43.8163H210.866L212.301 36.5912H215.548ZM227.213 42.5575C231.124 42.5575 233.079 44.1435 233.079 47.3155C233.079 48.6917 232.727 49.9001 232.022 50.9407C231.334 51.9812 230.343 52.7868 229.051 53.3574C227.776 53.9281 226.29 54.2134 224.595 54.2134H216.992L220.517 36.5912H223.764L222.556 42.5575H227.213ZM224.948 51.6959C226.391 51.6959 227.541 51.3351 228.397 50.6134C229.253 49.875 229.68 48.8931 229.68 47.668C229.68 46.7617 229.412 46.0988 228.875 45.6792C228.355 45.2596 227.524 45.0498 226.383 45.0498H222.053L220.743 51.6959H224.948ZM238.567 36.5912H241.84L238.315 54.2134H235.043L238.567 36.5912ZM246.7 36.5912H249.947L247.404 49.1029L259.362 36.5912H262.459L258.934 54.2134H255.687L258.255 41.7268L246.272 54.2134H243.175L246.7 36.5912ZM254.781 35.4331C253.471 35.4331 252.464 35.1814 251.76 34.6779C251.071 34.1576 250.727 33.4192 250.727 32.4625C250.727 32.3283 250.744 32.1101 250.778 31.808H252.867C252.851 31.8751 252.842 31.9842 252.842 32.1352C252.842 32.6555 253.027 33.0667 253.396 33.3688C253.765 33.6541 254.277 33.7968 254.932 33.7968C255.636 33.7968 256.224 33.6289 256.694 33.2933C257.181 32.9408 257.491 32.4457 257.625 31.808H259.765C259.547 33.0164 259.018 33.9226 258.179 34.5268C257.34 35.131 256.207 35.4331 254.781 35.4331Z" fill="#444444"/>
<path fill-rule="evenodd" clip-rule="evenodd" d="M32.9939 0.0892587C32.9939 0.152757 33.0516 0.238003 33.1222 0.278808C33.1934 0.319977 33.2097 0.353945 33.1588 0.355181C32.9667 0.359764 33.0807 0.554551 33.4244 0.809054C33.7021 1.01475 33.8529 1.21172 34.102 1.6944C34.5344 2.53224 34.4836 2.57857 33.5206 2.2242C33.122 2.07757 32.7745 1.95755 32.7482 1.95755C32.6501 1.95755 32.7052 2.23446 32.8224 2.33054C32.9335 2.42168 32.9353 2.41645 32.8435 2.26996C32.788 2.1818 32.7605 2.09204 32.7822 2.07051C32.8039 2.04906 33.1073 2.14572 33.4566 2.28545C34.1566 2.56548 34.3261 2.59072 34.4569 2.43441C34.6016 2.26137 33.9513 1.08683 33.541 0.780323C33.3635 0.647725 33.2173 0.512582 33.2161 0.479996C33.2117 0.366092 33.8175 0.758575 34.0642 1.02952C34.3462 1.33915 34.4602 1.37327 34.4602 1.14786C34.4602 0.90812 33.8876 0.38704 33.5058 0.279463C33.2992 0.221274 33.2261 0.175742 33.3091 0.156976C33.3816 0.140538 33.6105 0.187088 33.8177 0.260406C34.2934 0.428717 35.2722 1.3273 35.7395 2.02462C36.1596 2.65138 36.5133 3.52487 36.5127 3.93357C36.5119 4.49015 36.2406 5.82194 35.93 6.7945C35.205 9.06488 34.6581 10.5965 34.4817 10.8511C34.2146 11.2363 33.4283 11.9566 32.5797 12.5933C31.6865 13.2636 30.2164 14.2499 30.1107 14.2499C30.0676 14.2499 29.9034 14.3385 29.7459 14.4468C29.4988 14.6167 29.3331 14.6565 28.5336 14.7376C27.1346 14.8797 26.7008 15.0688 27.6084 15.1411C28.274 15.1941 28.4048 15.3192 28.3497 15.8501C28.3269 16.0701 28.2887 16.332 28.2647 16.432C28.2408 16.532 28.3656 16.3183 28.5422 15.957C28.8791 15.2672 29.0537 15.0843 29.8192 14.6191C30.1905 14.3934 30.2055 14.3906 30.392 14.5118C30.4972 14.5802 30.6635 14.793 30.7613 14.9845C30.8591 15.1761 30.9973 15.3655 31.0683 15.4054C31.1903 15.4739 31.1895 15.4839 31.0555 15.5822C30.9163 15.6841 30.9167 15.6873 31.0732 15.7365C31.161 15.7641 31.2632 15.7681 31.3004 15.7454C31.4181 15.6732 31.8197 15.9502 31.8214 16.1047C31.8245 16.3848 31.9301 16.4565 32.2618 16.4039L32.5712 16.3548L32.5273 16.5934C32.5032 16.7247 32.4612 17.0738 32.4341 17.3693C32.3896 17.8517 32.4026 17.9395 32.5609 18.229C32.7354 18.548 32.7357 18.5526 32.5925 18.6573C32.5129 18.7154 32.3227 18.7829 32.1699 18.8071C31.9452 18.8428 31.9079 18.8703 31.9753 18.9509C32.0973 19.0968 32.3592 19.0726 32.5874 18.8945C32.7413 18.7745 32.7803 18.6909 32.757 18.5326C32.7347 18.3823 32.7495 18.3456 32.8117 18.3968C32.9202 18.4861 33.0455 18.9069 33.1095 19.396C33.1629 19.8051 33.1029 19.8725 32.8913 19.6406C32.8225 19.5651 32.5617 19.4101 32.3118 19.2962C31.9401 19.1268 31.7573 19.0892 31.3075 19.0896C30.4393 19.0903 29.8706 19.3706 29.6435 19.9096C29.5227 20.1965 29.5618 20.2835 29.7346 20.1122C29.9411 19.9073 30.274 19.7716 30.6699 19.731L31.0509 19.6919L30.391 20.0999C29.7041 20.5245 29.1874 20.7493 28.6986 20.836L28.4114 20.8869L28.723 20.6592C28.8943 20.534 29.0346 20.4225 29.0346 20.4115C29.0346 20.4004 28.8062 20.4042 28.527 20.4198C28.1104 20.4432 27.9605 20.4191 27.6914 20.2858C27.1835 20.0341 27.1086 19.778 27.3441 19.0986L27.4867 18.6876L27.2491 18.3785C27.1184 18.2085 26.881 17.9964 26.7216 17.9072C26.4425 17.7509 26.3839 17.7466 25.1486 17.79C23.9898 17.8308 23.7981 17.8197 23.169 17.6756C21.5659 17.3084 20.6354 16.9248 19.923 16.3375C19.1076 15.6654 18.3111 14.8736 18.2094 14.6341C18.0749 14.3176 18.0825 13.2768 18.2228 12.8085C18.3285 12.4555 18.3506 12.4316 18.5711 12.4325C18.7006 12.433 19.021 12.5048 19.2831 12.5921C19.7021 12.7315 19.9463 12.7532 21.3053 12.7715L22.8509 12.7924L23.6515 13.202C24.0918 13.4273 24.4686 13.6283 24.4888 13.6488C24.5572 13.7182 23.5178 13.5822 23.1408 13.4725C22.9345 13.4124 22.6111 13.2805 22.4222 13.1793C22.0513 12.9808 21.7552 12.9909 21.6724 13.2049C21.5967 13.4006 21.8162 13.6416 22.2682 13.8592C22.653 14.0444 22.7674 14.0636 23.499 14.0658C24.1972 14.0678 24.3498 14.0458 24.6354 13.9017C24.8169 13.8101 25.0746 13.7178 25.2081 13.6964C25.3416 13.6751 25.5726 13.5751 25.7213 13.4742C26.1834 13.1608 26.6243 12.9644 27.9059 12.5009C30.3535 11.6159 31.6891 11.0235 32.055 10.6605C32.3369 10.3808 32.7358 9.79158 33.2442 8.90384C33.4734 8.50379 33.8757 7.86553 34.1383 7.48549C34.6084 6.80519 36 4.13738 36 3.91641C36 3.79159 35.687 3.47606 35.4366 3.34841C35.3484 3.30353 35.1488 3.2668 34.9928 3.2668C34.7971 3.2668 34.6192 3.20228 34.4197 3.05907C34.2605 2.9448 33.9653 2.79184 33.7637 2.71925C33.5621 2.64658 33.3641 2.56512 33.3238 2.53821C33.2285 2.47471 32.9939 2.39179 32.9939 2.42168C32.9939 2.43441 33.2849 2.66127 33.6408 2.92589C34.2871 3.40653 35.0826 3.84869 35.3009 3.84869C35.3645 3.84869 35.4542 3.93066 35.5002 4.03082C35.575 4.19375 35.5134 4.35319 34.9173 5.54009C33.8311 7.70268 32.5838 9.78416 32.0148 10.3834C31.6082 10.8117 30.7415 11.1795 27.6049 12.2547C26.8345 12.5187 25.993 12.8601 25.7224 13.0183C25.4532 13.1756 25.1728 13.3041 25.0992 13.3039C24.7766 13.303 24.3561 13.1101 23.0181 12.3492C20.4351 10.8804 19.5982 10.5662 18.0753 10.4938C16.6777 10.4274 13.8477 10.7762 12.5889 11.1701C10.7251 11.7535 8.66793 12.9481 7.39554 14.1862C5.31656 16.2091 3.79195 20.1713 3.61598 24.0088C3.59061 24.5621 3.54075 25.0149 3.50527 25.0149C3.36801 25.0149 1.25201 23.8498 0.421588 23.317C0.189751 23.1682 0 23.0783 0 23.117C0 23.2181 1.20911 24.2793 1.92303 24.8049C2.25656 25.0506 2.78006 25.3961 3.08632 25.5728L3.64303 25.8941L3.76951 26.6728C4.20386 29.347 5.47617 32.827 7.0991 35.7798C7.70905 36.8894 8.03694 37.3643 8.8095 38.257C9.88921 39.5046 10.4307 40.3069 10.5741 40.8713C10.6335 41.1048 10.7743 41.3214 11.0659 41.6273L11.4745 42.0559L11.0346 41.8182C9.83283 41.1686 7.86441 39.8931 6.48879 38.8724C5.46671 38.1141 5.10092 37.819 4.06924 36.9206C3.4928 36.4185 3.52521 36.4584 4.32586 37.2358C6.49451 39.3417 9.18593 41.3016 12.1889 42.9619C12.4608 43.1122 12.6836 43.2634 12.6838 43.2979C12.6847 43.4057 13.3127 44.6117 13.6021 45.0612C14.074 45.7943 14.5183 46.3266 15.5386 47.3812C17.5029 49.4117 19.0678 51.2522 19.6099 52.1699C19.7152 52.3482 19.8627 52.702 19.9375 52.9562C20.0125 53.2103 20.1153 53.5188 20.1661 53.6418C20.217 53.7648 20.2376 53.9484 20.2119 54.05C20.1428 54.3232 19.1633 55.3994 18.5077 55.9226C17.9159 56.395 17.5711 56.5812 17.0177 56.7275C16.5846 56.842 16.0662 57.3295 16.0119 57.6733C15.9624 57.9868 16.1913 58.358 16.5689 58.5768C16.9085 58.7736 17.4483 58.7688 19.0265 58.5554C20.2412 58.3911 20.3103 58.3722 21.7441 57.8119C22.5533 57.4956 23.2513 57.2369 23.2952 57.2369C23.3392 57.2369 23.4742 57.4469 23.5953 57.7036L23.8155 58.1704L24.0972 58.134C24.252 58.1139 24.7747 58.0594 25.2586 58.0127L26.1385 57.9277V56.2912C26.1385 54.078 26.0387 53.7336 25.244 53.2002C24.744 52.8647 24.6491 52.7369 24.4977 52.195C24.347 51.656 23.9837 51.0158 23.6421 50.6872L23.4147 50.4687L21.6851 51.0524C20.7338 51.3735 19.925 51.6362 19.8877 51.6362C19.8503 51.6362 19.7775 51.5094 19.726 51.3543C19.6744 51.1992 19.4762 50.8637 19.2855 50.6087C17.216 47.8411 16.7372 47.1942 16.2236 46.472C15.8964 46.0119 15.5169 45.4391 15.3803 45.1991C15.2437 44.9591 15.0723 44.6726 14.9994 44.5626C14.8288 44.3048 14.8959 44.3106 15.5518 44.61C16.1941 44.9033 18.4277 45.7274 19.2147 45.9616L19.7696 46.1268L20.3758 47.3358C21.0908 48.762 21.752 49.8857 22.1143 50.2906C22.3255 50.5266 22.3456 50.5378 22.2204 50.3499C21.944 49.935 21.4006 48.7883 20.8912 47.5448C20.6167 46.8748 20.4013 46.3265 20.4124 46.3265C20.4236 46.3265 20.6937 46.3928 21.0127 46.4738C22.7614 46.918 24.9742 47.2871 26.8964 47.4554C28.2881 47.5772 31.4865 47.5962 32.8106 47.4905C39.8264 46.9305 46.6501 44.4994 52.9581 40.3122C55.1989 38.8249 56.8159 37.5399 58.3258 36.0468C59.0401 35.3405 59.1261 35.239 58.6689 35.642C57.635 36.5535 57.2647 36.8538 56.1262 37.7041C54.6072 38.8385 52.6349 40.133 51.3238 40.8562C51.1423 40.9562 50.7301 41.1858 50.4077 41.3663C49.5728 41.8337 47.2571 42.9567 46.2653 43.3752C38.5478 46.6319 30.7613 47.5901 23.1899 46.2148C22.0928 46.0155 20.3411 45.6155 20.1606 45.523C20.0988 45.4914 19.9709 45.2747 19.8763 45.0413C19.4201 43.9154 18.953 43.2802 16.971 41.0895C16.2094 40.2477 15.7615 39.6893 15.6485 39.4408C15.2684 38.6045 14.4955 36.4295 13.8953 34.5069C13.1918 32.2534 12.9627 31.5634 12.5805 30.5466C12.4384 30.1687 12.3294 29.8538 12.3382 29.8467C12.3769 29.8159 14.1925 30.9926 14.891 31.5012C16.0935 32.3767 16.9722 32.895 18.5708 33.6719C19.3859 34.068 21.024 34.8878 22.2107 35.4936L24.3686 36.5951L24.8136 36.5578C25.0584 36.5372 25.5226 36.4695 25.8452 36.4072C26.5896 36.2635 27.8109 36.2582 28.6034 36.395C29.636 36.5734 34.0793 36.9436 35.1879 36.9436C35.3409 36.9436 35.352 36.967 35.308 37.1995L35.2596 37.4554L36.0514 37.4359L36.8431 37.4163L38.4562 38.1959C39.3471 38.6265 40.3153 39.0411 40.6191 39.1221C42.1358 39.5263 44.1951 39.6925 44.7644 39.4565C44.9094 39.3964 45.0841 39.2414 45.1703 39.0965C45.294 38.8887 45.3979 38.8209 45.7382 38.7259C45.9673 38.662 46.196 38.5959 46.2464 38.579C46.387 38.5319 46.359 38.1236 46.2097 38.0443C46.1392 38.0069 45.9309 37.9539 45.747 37.9264L45.4125 37.8767L45.2919 37.3669C45.15 36.7667 44.8057 36.1985 44.4378 35.957C43.8845 35.5937 42.5608 35.274 40.2482 34.9448C39.128 34.7854 36.2094 34.4705 35.8521 34.4705C35.7815 34.4705 35.6999 34.3968 35.6708 34.3069C35.626 34.1682 35.6125 34.1627 35.5836 34.2705C35.5647 34.3405 35.4833 34.3978 35.4026 34.3978C35.0777 34.3978 34.0725 33.9947 33.0672 33.4612C31.7483 32.7615 31.4733 32.6357 30.8388 32.4415C29.7742 32.1156 28.7292 32.0896 26.3689 32.3303C25.0994 32.4597 24.6217 32.4609 24.3215 32.3351C23.9218 32.1676 22.9647 31.4127 21.7759 30.3273C21.1509 29.7566 19.5177 28.3561 18.1466 27.2151C16.7755 26.0741 15.6268 25.1167 15.5939 25.0874C15.561 25.0582 15.5185 24.9236 15.4993 24.7882C15.4274 24.278 15.2476 23.5045 15.0745 22.9601C14.9759 22.6501 14.9132 22.3964 14.9352 22.3964C15.05 22.3964 15.9907 23.1329 16.3918 23.5368C16.9591 24.108 17.1924 24.5489 17.1227 24.9179C17.0803 25.1424 17.0904 25.1732 17.1943 25.1337C17.2609 25.1083 17.3409 25.0876 17.3721 25.0876C17.4032 25.0876 17.516 25.0073 17.6227 24.9092C18.1409 24.4327 17.6105 23.5897 16.0149 22.3537C15.3369 21.8284 14.8294 21.2222 14.6264 20.695C14.5116 20.3966 14.5114 20.3576 14.6245 20.1213C14.7851 19.7854 15.4589 19.107 15.7837 18.9541C16.2149 18.7512 17.0414 18.7893 21.0794 19.1984C23.4303 19.4366 23.7822 19.516 23.7251 19.7956C23.5641 20.583 23.6474 21.3142 23.976 21.9973C24.1064 22.2683 24.3666 22.6156 24.6501 22.8968L25.1118 23.3548L25.0925 23.7666C25.0678 24.2925 25.2916 24.7459 25.7256 25.049C25.9783 25.2256 26.1259 25.2702 26.5329 25.2929C27.1361 25.3267 27.4912 25.1758 27.8866 24.7176C28.1402 24.4236 28.1565 24.4167 28.4827 24.4653C28.8969 24.5269 29.8164 24.3946 30.3496 24.1966C31.8017 23.6577 33.1472 22.2353 33.4352 20.9347C33.5167 20.5669 33.5074 20.4515 33.3385 19.7346C33.2357 19.2983 33.1304 18.8367 33.1044 18.7088C33.0785 18.5808 32.9604 18.3554 32.8422 18.2078C32.5976 17.9025 32.5691 17.5983 32.7126 16.8259C32.8207 16.244 32.7381 16.1049 32.3239 16.1706C32.0586 16.2127 32.0493 16.2067 32.027 15.9804C32.0094 15.8011 31.962 15.737 31.8234 15.7049C31.7102 15.6786 31.627 15.5961 31.6006 15.4838C31.5706 15.3565 31.5008 15.2979 31.3596 15.2816C31.2503 15.269 31.1609 15.2354 31.1609 15.207C31.1609 15.1787 32.0387 14.2889 33.1117 13.2298L35.0625 11.3041L35.3879 9.99488C35.9261 7.82924 36.253 6.32928 36.5067 4.86125C36.6385 4.09817 36.6426 3.97336 36.5499 3.53418C36.3715 2.68811 35.9238 1.94824 35.0868 1.11636C34.3085 0.342889 33.9209 0.0999508 33.3386 0.0208141C33.0529 -0.0180997 32.9939 -0.00631631 32.9939 0.0892587ZM33.9188 0.623213C34.0591 0.72948 34.2105 0.884917 34.2552 0.968709C34.3019 1.05628 34.1834 0.984275 33.9768 0.799598C33.779 0.622704 33.6034 0.467267 33.5865 0.454102C33.5697 0.440864 33.5802 0.430099 33.6097 0.430099C33.6393 0.430099 33.7784 0.517019 33.9188 0.623213ZM18.2933 11.4864C19.2597 11.5919 19.9803 11.7624 20.1238 11.9197C20.2418 12.0491 20.2397 12.0609 20.084 12.1436C19.9642 12.2071 19.628 12.2169 18.8457 12.1794C17.9896 12.1385 17.7559 12.1478 17.6934 12.2253C17.6502 12.2787 17.5985 12.5679 17.5784 12.8679C17.5403 13.437 17.3392 14.065 17.0623 14.4796C16.8701 14.7675 16.4391 14.9913 15.7062 15.1836C14.53 15.4922 13.1577 16.7455 12.4676 18.1413C12.0764 18.9327 11.8778 19.6744 11.8778 20.3437V20.7718L11.4896 20.7196C11.2761 20.6908 10.7234 20.5041 10.2615 20.3047C9.79954 20.1053 8.82769 19.7037 8.10182 19.4123C7.37596 19.1209 6.75069 18.8548 6.71234 18.8209C6.55119 18.6787 7.77394 16.0582 8.43455 15.13C9.87887 13.1007 12.3539 11.8162 15.4423 11.4931C16.274 11.406 17.5297 11.4031 18.2933 11.4864ZM31.8207 17.8992C31.8207 17.946 31.7668 18.0435 31.7008 18.1158C31.5896 18.2378 31.59 18.2508 31.7075 18.2956C31.7771 18.3221 31.9548 18.2859 32.1024 18.2152C32.3629 18.0903 32.3659 18.0844 32.2057 18.0119C32.115 17.9708 32.0407 17.9095 32.0407 17.8756C32.0407 17.8417 31.9912 17.814 31.9307 17.814C31.8702 17.814 31.8207 17.8523 31.8207 17.8992ZM9.15316 20.5286C10.0541 21.2533 11.9265 23.1123 12.9514 24.2996L13.9672 25.4764L14.0153 25.1429C14.0417 24.9596 14.0848 24.3729 14.1109 23.8393C14.1611 22.8155 14.2722 21.6103 14.3444 21.3053C14.3767 21.1693 14.4291 21.2975 14.5524 21.8145C14.6431 22.1945 14.8373 22.9569 14.9839 23.5087C15.1305 24.0605 15.2505 24.6556 15.2505 24.8312C15.2505 25.1066 15.2823 25.1729 15.4829 25.3146L15.7153 25.4788L15.3179 25.5684C15.0994 25.6178 14.5113 25.8093 14.011 25.994C13.2879 26.2611 12.9122 26.3534 12.178 26.4445C11.6701 26.5075 11.2283 26.583 11.1962 26.6122C11.1382 26.665 11.4368 27.8786 12.0738 30.1791C12.2566 30.8392 12.6462 32.3121 12.9397 33.4522C13.2332 34.5924 13.5452 35.7707 13.6331 36.0707C14.1607 37.8727 14.9214 39.8684 15.2492 40.3106C15.3624 40.4632 16.0313 41.2001 16.7359 41.948C18.1946 43.4968 18.5321 43.8773 18.8309 44.31C19.0951 44.6925 19.3776 45.2387 19.3337 45.2821C19.2511 45.3642 15.8919 44.1793 14.7734 43.6737L14.2544 43.439L13.51 42.2824C13.1006 41.6464 12.68 40.9295 12.5754 40.6894C12.1434 39.6986 11.9535 39.4102 10.4274 37.4288C9.14744 35.7668 8.61008 34.7366 7.87908 32.543C7.33424 30.9081 7.15549 30.041 7.15175 29.0153C7.1483 28.0799 7.2203 27.8588 7.75473 27.1619C8.00196 26.8396 8.07286 26.7933 8.39716 26.743C9.30031 26.6028 10.329 26.3691 11.0784 26.1336C11.5261 25.993 11.8802 25.8658 11.8652 25.851C11.8503 25.8362 11.3769 25.8753 10.8131 25.9379C10.2326 26.0025 9.08871 26.0556 8.17514 26.0606L6.56211 26.0695L6.22389 25.8723C5.74922 25.5954 5.47705 25.2599 5.068 24.447C4.47023 23.2593 4.43899 23.1148 4.58087 22.1957C4.68447 21.5251 5.09828 19.7147 5.16259 19.6509C5.17446 19.6391 5.20218 19.9534 5.22417 20.3493C5.28781 21.4953 5.51232 21.6777 5.90282 20.9005C6.02416 20.6591 6.23181 20.1313 6.36415 19.7278L6.60486 18.9943L7.63485 19.565C8.20132 19.8788 8.88459 20.3125 9.15316 20.5286ZM15.7502 28.1033C16.3027 28.2186 17.7075 28.6798 19.5469 29.3497L20.7128 29.7744L21.3727 30.395C22.8881 31.8201 23.8205 32.5307 24.3913 32.6953C24.7622 32.8022 24.9225 32.7989 26.7105 32.6484C29.7808 32.3898 30.3613 32.49 32.6684 33.676C34.1243 34.4246 34.4722 34.5753 35.0835 34.7222L35.4501 34.8103L35.4273 35.3132C35.4064 35.7712 35.3841 35.8337 35.1778 36.0125C35.0532 36.1205 34.7995 36.2402 34.6141 36.2785C34.2611 36.3513 34.2071 36.349 32.2607 36.1792C31.5953 36.1211 30.358 36.0239 29.5112 35.9631C28.6643 35.9023 27.7061 35.8329 27.3817 35.8089C26.828 35.7678 26.737 35.7833 25.8863 36.0634C25.3881 36.2275 24.8617 36.3613 24.7164 36.3608C24.3337 36.3595 23.6397 36.0341 21.0061 34.6214C17.0745 32.5123 16.0083 31.8565 15.0637 30.9665C14.1829 30.1364 13.931 29.389 14.2514 28.5564C14.4655 28.0004 14.7887 27.9026 15.7502 28.1033ZM37.613 35.0198C40.0195 35.2392 42.6382 35.6693 43.6619 36.0133C43.9038 36.0946 44.2119 36.2635 44.3465 36.3886C44.5954 36.6202 44.8716 37.0757 44.8716 37.2546C44.8716 37.395 43.8503 37.6285 43.2219 37.6319C42.5143 37.6356 42.0455 37.4541 41.9847 37.1529C41.9166 36.8147 41.6686 36.5211 41.2909 36.3316C40.9364 36.1536 39.6603 35.6883 39.6244 35.724C39.6132 35.7351 39.8874 35.8913 40.2337 36.0712C41.4196 36.6869 41.8372 37.2354 41.3872 37.5865C41.2308 37.7086 41.1598 37.7198 40.9289 37.659C40.1655 37.458 38.6241 36.9544 37.6027 36.5724C36.809 36.2755 36.352 36.1435 36.118 36.1435H35.78V35.4844V34.8253L36.0916 34.8674C36.263 34.8906 36.9476 34.9592 37.613 35.0198ZM45.7698 38.1839C46.0812 38.2697 46.1226 38.3606 45.8798 38.4252C45.5249 38.5195 45.3849 38.481 45.3849 38.2892C45.3849 38.0828 45.394 38.0803 45.7698 38.1839ZM23.5267 51.0418C23.7516 51.3553 24.1955 52.399 24.1955 52.6147C24.1955 52.8784 24.4564 53.3619 24.6278 53.4158C24.79 53.4669 25.4263 54.0976 25.5642 54.344C25.6202 54.444 25.6577 54.7873 25.6593 55.2136C25.6622 55.9914 25.6944 55.9424 25.112 56.0435C24.9507 56.0715 24.5053 56.2074 24.1222 56.3456C21.0793 57.4426 18.1665 58.4057 17.7692 58.4461C17.1839 58.5056 16.8475 58.4391 16.5724 58.2094C16.2771 57.963 16.2691 57.6319 16.5519 57.3642C16.8248 57.106 16.9864 57.0545 17.9647 56.9148C19.5703 56.6855 20.6131 56.3029 21.0672 55.7766C21.217 55.6029 21.3907 55.27 21.4931 54.96C21.6437 54.504 21.6649 54.3054 21.6578 53.4182C21.6532 52.8582 21.6158 52.3017 21.5745 52.1817C21.5184 52.0185 21.5092 52.1656 21.5379 52.7651C21.5798 53.6435 21.489 54.1055 21.1401 54.7886C20.7437 55.5647 19.9087 56.1744 19.109 56.2717L18.8065 56.3085L19.3564 55.9302C20.4848 55.1539 20.8547 54.6417 20.9369 53.741C20.9845 53.2197 20.9756 53.1717 20.7468 52.7241C20.52 52.2803 20.4239 51.7167 20.5533 51.5884C20.6082 51.5339 23.0672 50.8568 23.2557 50.8443C23.3235 50.8398 23.4454 50.9287 23.5267 51.0418ZM43.4419 58.2668C41.103 58.2932 37.4737 58.35 35.3767 58.3929C33.2798 58.436 30.3269 58.4895 28.8146 58.5119C27.3024 58.5343 25.9613 58.5683 25.8342 58.5877C25.1989 58.6842 25.4578 59.1514 26.2148 59.2744C26.4551 59.3134 26.8395 59.3456 27.0691 59.3458C27.4171 59.3462 27.5056 59.3731 27.6007 59.5079C27.8616 59.8775 27.7991 59.9092 26.7067 59.9611C24.9288 60.0454 20.5475 60.2896 18.7374 60.4052L16.9819 60.5172L16.4059 59.9458C15.8665 59.4106 15.8346 59.3619 15.9049 59.1785C15.997 58.9382 15.9923 58.9379 15.1905 59.1286C14.4083 59.3147 14.339 59.3551 14.1962 59.7093C13.8312 60.6142 14.2636 61.2281 15.4628 61.5075C15.9617 61.6237 16.4059 61.6366 19.6863 61.6295C23.4712 61.6213 25.5468 61.555 29.7678 61.3073C41.2421 60.6342 53.7228 59.5875 57.006 59.0231C57.6412 58.914 58.1455 58.7962 58.3625 58.7065C58.612 58.6034 58.6143 58.5986 58.448 58.537C58.3539 58.5021 57.991 58.4402 57.6414 58.3996C56.862 58.3087 50.9108 58.1689 49.0509 58.1978C48.3048 58.2094 45.7808 58.2404 43.4419 58.2668ZM22.2525 58.5496C21.6476 58.5774 20.8432 58.6043 20.4648 58.6095L19.777 58.6189L19.8185 58.9254C19.8413 59.0941 19.9111 59.2691 19.9737 59.3145C20.1488 59.4416 21.509 59.4848 23.169 59.416C23.9957 59.3816 24.6792 59.352 24.6878 59.3499C24.6965 59.3479 24.7389 59.2806 24.7822 59.2005C24.8382 59.0967 24.8381 58.971 24.782 58.764L24.7031 58.4734L24.0277 58.4863C23.6562 58.4934 22.8574 58.5219 22.2525 58.5496ZM17.752 58.8053C17.1721 58.8582 16.6524 58.9188 16.5972 58.9398C16.4015 59.0143 16.4875 59.3715 16.7483 59.5674L16.9944 59.7522L18.03 59.6716C18.6136 59.6262 19.1031 59.5539 19.1514 59.506C19.1985 59.4592 19.2392 59.265 19.2417 59.0745C19.2463 58.7389 19.2394 58.7277 19.0265 58.7184C18.9055 58.7132 18.332 58.7523 17.752 58.8053Z" fill="#29A7C8"/>
</svg>
