<svg width="838" height="70" viewBox="0 0 838 70" fill="none" xmlns="http://www.w3.org/2000/svg">
<path d="M57.6078 58.8L58.541 58.4405L58.2942 57.8H57.6078V58.8ZM31.0078 58.8V57.8H30.3214L30.0747 58.4405L31.0078 58.8ZM26.3078 71V72H26.9942L27.241 71.3595L26.3078 71ZM2.30782 71L1.39154 70.5995L0.779297 72H2.30782V71ZM32.9078 0.999996V-3.8147e-06H32.2536L31.9915 0.599451L32.9078 0.999996ZM56.1078 0.999996L57.0241 0.599451L56.7621 -3.8147e-06H56.1078V0.999996ZM86.7078 71V72H88.2363L87.6241 70.5995L86.7078 71ZM62.3078 71L61.3747 71.3595L61.6214 72H62.3078V71ZM51.1078 41.8V42.8H52.5662L52.0406 41.4396L51.1078 41.8ZM44.3078 24.2L45.2406 23.8396L44.3078 21.4253L43.375 23.8396L44.3078 24.2ZM37.5078 41.8L36.575 41.4396L36.0494 42.8H37.5078V41.8ZM57.6078 57.8H31.0078V59.8H57.6078V57.8ZM30.0747 58.4405L25.3747 70.6405L27.241 71.3595L31.941 59.1595L30.0747 58.4405ZM26.3078 70L2.30782 70V72L26.3078 72V70ZM3.22409 71.4005L33.8241 1.40054L31.9915 0.599451L1.39154 70.5995L3.22409 71.4005ZM32.9078 2L56.1078 2V-3.8147e-06L32.9078 -3.8147e-06V2ZM55.1915 1.40054L85.7915 71.4005L87.6241 70.5995L57.0241 0.599451L55.1915 1.40054ZM86.7078 70H62.3078V72H86.7078V70ZM63.241 70.6405L58.541 58.4405L56.6747 59.1595L61.3747 71.3595L63.241 70.6405ZM52.0406 41.4396L45.2406 23.8396L43.375 24.5604L50.175 42.1604L52.0406 41.4396ZM43.375 23.8396L36.575 41.4396L38.4406 42.1604L45.2406 24.5604L43.375 23.8396ZM37.5078 42.8H51.1078V40.8H37.5078V42.8ZM143.769 4.2L143.363 5.11381L143.769 4.2ZM154.869 13.4L154.03 13.945L154.869 13.4ZM154.869 41.4L154.03 40.855L154.869 41.4ZM143.769 50.6L143.363 49.6862L143.769 50.6ZM116.769 53.8V52.8H115.769V53.8H116.769ZM116.769 71V72H117.769V71H116.769ZM93.1688 71L92.1688 71V72L93.1688 72V71ZM93.1688 0.999996V-3.8147e-06H92.1688V0.999996H93.1688ZM132.569 33.5L133.227 34.2526L133.236 34.245L133.244 34.2372L132.569 33.5ZM132.569 21.4L131.893 22.1372L131.902 22.145L131.91 22.1526L132.569 21.4ZM116.769 19.2V18.2H115.769V19.2H116.769ZM116.769 35.6H115.769V36.6H116.769V35.6ZM126.869 2C133.227 2 138.716 3.04884 143.363 5.11381L144.175 3.28618C139.221 1.08449 133.444 -3.8147e-06 126.869 -3.8147e-06V2ZM143.363 5.11381C148.004 7.17683 151.546 10.1234 154.03 13.945L155.707 12.855C152.991 8.67664 149.133 5.48983 144.175 3.28618L143.363 5.11381ZM154.03 13.945C156.513 17.7641 157.769 22.2365 157.769 27.4L159.769 27.4C159.769 21.8968 158.425 17.0359 155.707 12.855L154.03 13.945ZM157.769 27.4C157.769 32.5635 156.513 37.0359 154.03 40.855L155.707 41.945C158.425 37.7641 159.769 32.9032 159.769 27.4L157.769 27.4ZM154.03 40.855C151.546 44.6766 148.004 47.6232 143.363 49.6862L144.175 51.5138C149.133 49.3102 152.991 46.1234 155.707 41.945L154.03 40.855ZM143.363 49.6862C138.716 51.7512 133.227 52.8 126.869 52.8V54.8C133.444 54.8 139.221 53.7155 144.175 51.5138L143.363 49.6862ZM126.869 52.8H116.769V54.8H126.869V52.8ZM115.769 53.8V71H117.769V53.8H115.769ZM116.769 70H93.1688V72H116.769V70ZM94.1688 71V0.999996H92.1688V71L94.1688 71ZM93.1688 2L126.869 2V-3.8147e-06L93.1688 -3.8147e-06V2ZM125.369 36.6C128.693 36.6 131.372 35.8758 133.227 34.2526L131.91 32.7474C130.565 33.9242 128.445 34.6 125.369 34.6V36.6ZM133.244 34.2372C135.092 32.5439 135.969 30.2201 135.969 27.4H133.969C133.969 29.7799 133.246 31.5228 131.893 32.7628L133.244 34.2372ZM135.969 27.4C135.969 24.5815 135.092 22.2789 133.227 20.6474L131.91 22.1526C133.246 23.321 133.969 25.0185 133.969 27.4H135.969ZM133.244 20.6628C131.389 18.9621 128.702 18.2 125.369 18.2V20.2C128.435 20.2 130.548 20.9046 131.893 22.1372L133.244 20.6628ZM125.369 18.2H116.769V20.2H125.369V18.2ZM115.769 19.2V35.6H117.769V19.2H115.769ZM116.769 36.6H125.369V34.6H116.769V36.6ZM224.123 53.2H225.123V52.2H224.123V53.2ZM224.123 71V72H225.123V71H224.123ZM165.923 71H164.923V72H165.923V71ZM165.923 0.999996V-3.8147e-06H164.923V0.999996H165.923ZM222.823 0.999996H223.823V-3.8147e-06H222.823V0.999996ZM222.823 18.8V19.8H223.823V18.8H222.823ZM189.123 18.8V17.8H188.123V18.8H189.123ZM189.123 27H188.123V28H189.123V27ZM218.723 27H219.723V26H218.723V27ZM218.723 44V45H219.723V44H218.723ZM189.123 44V43H188.123V44H189.123ZM189.123 53.2H188.123V54.2H189.123V53.2ZM223.123 53.2V71H225.123V53.2H223.123ZM224.123 70L165.923 70V72L224.123 72V70ZM166.923 71V0.999996H164.923V71H166.923ZM165.923 2L222.823 2V-3.8147e-06L165.923 -3.8147e-06V2ZM221.823 0.999996V18.8H223.823V0.999996H221.823ZM222.823 17.8L189.123 17.8V19.8L222.823 19.8V17.8ZM188.123 18.8V27H190.123V18.8H188.123ZM189.123 28L218.723 28V26L189.123 26V28ZM217.723 27V44H219.723V27H217.723ZM218.723 43H189.123V45H218.723V43ZM188.123 44V53.2H190.123V44H188.123ZM189.123 54.2H224.123V52.2H189.123V54.2ZM302.696 0.999996H303.696V-3.8147e-06H302.696V0.999996ZM302.696 71V72H303.696V71H302.696ZM279.096 71H278.096V72H279.096V71ZM279.096 45.2H280.096V44.2H279.096V45.2ZM257.296 45.2V44.2H256.296V45.2H257.296ZM257.296 71V72H258.296V71H257.296ZM233.696 71H232.696V72H233.696V71ZM233.696 0.999996V-3.8147e-06H232.696V0.999996H233.696ZM257.296 0.999996L258.296 0.999996V-3.8147e-06L257.296 -3.8147e-06V0.999996ZM257.296 25.8H256.296V26.8H257.296V25.8ZM279.096 25.8V26.8H280.096V25.8H279.096ZM279.096 0.999996V-3.8147e-06H278.096V0.999996H279.096ZM301.696 0.999996V71H303.696V0.999996L301.696 0.999996ZM302.696 70H279.096V72H302.696V70ZM280.096 71V45.2H278.096V71H280.096ZM279.096 44.2L257.296 44.2V46.2L279.096 46.2V44.2ZM256.296 45.2V71H258.296V45.2H256.296ZM257.296 70H233.696V72H257.296V70ZM234.696 71V0.999996H232.696V71H234.696ZM233.696 2L257.296 2V-3.8147e-06L233.696 -3.8147e-06V2ZM256.296 0.999996V25.8H258.296V0.999996L256.296 0.999996ZM257.296 26.8H279.096V24.8H257.296V26.8ZM280.096 25.8V0.999996L278.096 0.999996V25.8H280.096ZM279.096 2L302.696 2V-3.8147e-06L279.096 -3.8147e-06V2ZM393.641 52.7H394.641V51.7H393.641V52.7ZM393.641 84.7V85.7H394.641V84.7H393.641ZM372.041 84.7H371.041V85.7H372.041V84.7ZM372.041 71H373.041V70H372.041V71ZM332.241 71V70H331.241V71H332.241ZM332.241 84.7V85.7H333.241V84.7H332.241ZM310.641 84.7H309.641V85.7H310.641V84.7ZM310.641 52.7V51.7H309.641V52.7H310.641ZM321.241 45L320.29 44.6912L321.241 45ZM324.441 22.3L325.44 22.3466L325.441 22.3375L324.441 22.3ZM325.241 0.999996V-3.8147e-06H324.278L324.242 0.962463L325.241 0.999996ZM384.441 0.999996H385.441V-3.8147e-06H384.441V0.999996ZM384.441 52.7H383.441V53.7H384.441V52.7ZM344.941 24.3L343.942 24.26V24.2604L344.941 24.3ZM343.341 41.5L344.327 41.669L344.327 41.6666L343.341 41.5ZM339.641 52.7L338.782 52.1885L337.882 53.7H339.641V52.7ZM361.241 52.7V53.7H362.241V52.7H361.241ZM361.241 19.3H362.241V18.3H361.241V19.3ZM345.141 19.3V18.3H344.181L344.142 19.26L345.141 19.3ZM392.641 52.7V84.7H394.641V52.7H392.641ZM393.641 83.7H372.041V85.7H393.641V83.7ZM373.041 84.7V71H371.041V84.7H373.041ZM372.041 70L332.241 70V72L372.041 72V70ZM331.241 71V84.7H333.241V71H331.241ZM332.241 83.7H310.641V85.7H332.241V83.7ZM311.641 84.7V52.7H309.641V84.7H311.641ZM310.641 53.7H312.641V51.7H310.641V53.7ZM312.641 53.7C314.906 53.7 316.881 52.9775 318.508 51.52C320.116 50.0808 321.326 47.9792 322.193 45.3088L320.29 44.6912C319.491 47.1542 318.434 48.9025 317.174 50.03C315.935 51.1392 314.444 51.7 312.641 51.7V53.7ZM322.193 45.3088C323.901 40.0468 324.972 32.3736 325.44 22.3466L323.443 22.2534C322.977 32.2264 321.915 39.6865 320.29 44.6912L322.193 45.3088ZM325.441 22.3375L326.241 1.03753L324.242 0.962463L323.442 22.2625L325.441 22.3375ZM325.241 2L384.441 2V-3.8147e-06L325.241 -3.8147e-06V2ZM383.441 0.999996V52.7H385.441V0.999996H383.441ZM384.441 53.7H393.641V51.7H384.441V53.7ZM343.942 24.2604C343.677 30.9667 343.146 36.655 342.355 41.3334L344.327 41.6666C345.137 36.8783 345.673 31.0999 345.941 24.3396L343.942 24.2604ZM342.356 41.331C341.568 45.9268 340.364 49.5302 338.782 52.1885L340.501 53.2115C342.252 50.2698 343.515 46.4066 344.327 41.669L342.356 41.331ZM339.641 53.7L361.241 53.7V51.7L339.641 51.7V53.7ZM362.241 52.7V19.3H360.241V52.7H362.241ZM361.241 18.3H345.141V20.3H361.241V18.3ZM344.142 19.26L343.942 24.26L345.941 24.34L346.141 19.34L344.142 19.26ZM451.944 58.8L452.877 58.4405L452.63 57.8H451.944V58.8ZM425.344 58.8V57.8H424.657L424.411 58.4405L425.344 58.8ZM420.644 71V72H421.33L421.577 71.3595L420.644 71ZM396.644 71L395.727 70.5995L395.115 72H396.644V71ZM427.244 0.999996V-3.8147e-06H426.59L426.327 0.599451L427.244 0.999996ZM450.444 0.999996L451.36 0.599451L451.098 -3.8147e-06H450.444V0.999996ZM481.044 71V72H482.572L481.96 70.5995L481.044 71ZM456.644 71L455.711 71.3595L455.957 72H456.644V71ZM445.444 41.8V42.8L446.902 42.8L446.377 41.4396L445.444 41.8ZM438.644 24.2L439.577 23.8396L438.644 21.4253L437.711 23.8396L438.644 24.2ZM431.844 41.8L430.911 41.4396L430.385 42.8H431.844V41.8ZM451.944 57.8L425.344 57.8V59.8L451.944 59.8V57.8ZM424.411 58.4405L419.711 70.6405L421.577 71.3595L426.277 59.1595L424.411 58.4405ZM420.644 70H396.644V72H420.644V70ZM397.56 71.4005L428.16 1.40054L426.327 0.599451L395.727 70.5995L397.56 71.4005ZM427.244 2L450.444 2V-3.8147e-06L427.244 -3.8147e-06V2ZM449.527 1.40054L480.128 71.4005L481.96 70.5995L451.36 0.599451L449.527 1.40054ZM481.044 70H456.644V72H481.044V70ZM457.577 70.6405L452.877 58.4405L451.011 59.1595L455.711 71.3595L457.577 70.6405ZM446.377 41.4396L439.577 23.8396L437.711 24.5604L444.511 42.1604L446.377 41.4396ZM437.711 23.8396L430.911 41.4396L432.777 42.1604L439.577 24.5604L437.711 23.8396ZM431.844 42.8H445.444V40.8H431.844V42.8ZM585.785 0.999996H586.785V-3.8147e-06H585.785V0.999996ZM585.785 71V72H586.785V71H585.785ZM562.585 71H561.585V72H562.585V71ZM562.585 19.3H563.585V18.3H562.585V19.3ZM546.585 19.3V18.3H545.61L545.585 19.2753L546.585 19.3ZM546.385 27.4L547.385 27.4267V27.4247L546.385 27.4ZM543.985 52L544.964 52.204L543.985 52ZM536.985 67L537.713 67.6862L537.719 67.6794L536.985 67ZM512.685 71L511.687 70.9366L511.634 71.7718L512.447 71.9712L512.685 71ZM513.885 52.1L514.11 51.1256L512.962 50.8606L512.887 52.0366L513.885 52.1ZM522.085 49.4L521.253 48.8453L521.247 48.855L521.24 48.8649L522.085 49.4ZM524.785 41.4L525.776 41.5387L524.785 41.4ZM525.785 28.3L526.784 28.337L526.785 28.3329L525.785 28.3ZM526.685 0.999996V-3.8147e-06H525.718L525.686 0.967047L526.685 0.999996ZM584.785 0.999996V71H586.785V0.999996H584.785ZM585.785 70H562.585V72H585.785V70ZM563.585 71V19.3H561.585V71H563.585ZM562.585 18.3L546.585 18.3V20.3L562.585 20.3V18.3ZM545.585 19.2753L545.385 27.3753L547.385 27.4247L547.585 19.3247L545.585 19.2753ZM545.385 27.3733C545.12 37.3415 544.323 45.4764 543.006 51.796L544.964 52.204C546.314 45.7236 547.117 37.4585 547.385 27.4267L545.385 27.3733ZM543.006 51.796C541.698 58.0756 539.427 62.8912 536.251 66.3206L537.719 67.6794C541.21 63.9089 543.606 58.7244 544.964 52.204L543.006 51.796ZM536.258 66.3138C533.162 69.595 528.69 71.3 522.685 71.3V73.3C529.08 73.3 534.141 71.4717 537.713 67.6862L536.258 66.3138ZM522.685 71.3C519.644 71.3 516.391 70.8793 512.923 70.0288L512.447 71.9712C516.046 72.854 519.46 73.3 522.685 73.3V71.3ZM513.683 71.0634L514.883 52.1634L512.887 52.0366L511.687 70.9366L513.683 71.0634ZM513.66 53.0744C514.599 53.291 515.541 53.4 516.485 53.4V51.4C515.696 51.4 514.905 51.309 514.11 51.1256L513.66 53.0744ZM516.485 53.4C519.277 53.4 521.471 52.2389 522.93 49.9351L521.24 48.8649C520.166 50.5611 518.627 51.4 516.485 51.4V53.4ZM522.917 49.9547C524.36 47.79 525.296 44.965 525.776 41.5387L523.795 41.2614C523.341 44.5017 522.477 47.01 521.253 48.8453L522.917 49.9547ZM525.776 41.5387C526.249 38.1577 526.584 33.7533 526.784 28.337L524.786 28.263C524.586 33.6467 524.255 37.9756 523.795 41.2614L525.776 41.5387ZM526.785 28.3329L527.685 1.03294L525.686 0.967047L524.786 28.267L526.785 28.3329ZM526.685 2L585.785 2V-3.8147e-06L526.685 -3.8147e-06V2ZM656.049 28.4L655.41 29.1691L655.417 29.1744L656.049 28.4ZM655.049 64.5L655.675 65.28L655.681 65.2752L655.049 64.5ZM598.149 71H597.149V72H598.149V71ZM598.149 0.999996V-3.8147e-06H597.149V0.999996H598.149ZM621.349 0.999996H622.349V-3.8147e-06H621.349V0.999996ZM621.349 22.5H620.349V23.5H621.349V22.5ZM637.149 52.3L637.84 53.0226L637.848 53.015L637.856 53.0071L637.149 52.3ZM621.349 39V38H620.349V39H621.349ZM621.349 54.5H620.349V55.5H621.349V54.5ZM635.849 23.5C644.445 23.5 650.919 25.4367 655.41 29.1691L656.688 27.6309C651.713 23.4967 644.72 21.5 635.849 21.5V23.5ZM655.417 29.1744C659.862 32.8058 662.149 38.2202 662.149 45.6H664.149C664.149 37.7798 661.703 31.7275 656.682 27.6256L655.417 29.1744ZM662.149 45.6C662.149 53.5587 659.542 59.5492 654.418 63.7248L655.681 65.2752C661.356 60.6508 664.149 54.0413 664.149 45.6H662.149ZM654.423 63.7201C649.255 67.8674 642.103 70 632.849 70V72C642.396 72 650.043 69.7992 655.675 65.2799L654.423 63.7201ZM632.849 70L598.149 70V72L632.849 72V70ZM599.149 71V0.999996H597.149V71H599.149ZM598.149 2L621.349 2V-3.8147e-06L598.149 -3.8147e-06V2ZM620.349 0.999996V22.5H622.349V0.999996H620.349ZM621.349 23.5H635.849V21.5H621.349V23.5ZM631.249 55.5C633.87 55.5 636.096 54.6911 637.84 53.0226L636.458 51.5774C635.136 52.8423 633.428 53.5 631.249 53.5V55.5ZM637.856 53.0071C639.618 51.245 640.449 48.8672 640.449 46H638.449C638.449 48.4662 637.747 50.2884 636.442 51.5929L637.856 53.0071ZM640.449 46C640.449 43.4675 639.7 41.3994 638.048 39.9894C636.427 38.6053 634.101 38 631.249 38V40C633.864 40 635.638 40.5613 636.75 41.5106C637.832 42.4339 638.449 43.8658 638.449 46H640.449ZM631.249 38H621.349V40L631.249 40V38ZM620.349 39V54.5H622.349V39H620.349ZM621.349 55.5L631.249 55.5V53.5L621.349 53.5V55.5ZM748.329 52.7H749.329V51.7H748.329V52.7ZM748.329 84.7V85.7H749.329V84.7H748.329ZM726.729 84.7H725.729V85.7H726.729V84.7ZM726.729 71H727.729V70H726.729V71ZM686.929 71V70H685.929V71H686.929ZM686.929 84.7V85.7H687.929V84.7H686.929ZM665.329 84.7H664.329V85.7H665.329V84.7ZM665.329 52.7V51.7H664.329V52.7H665.329ZM675.929 45L674.978 44.6912L675.929 45ZM679.129 22.3L680.128 22.3466L680.128 22.3375L679.129 22.3ZM679.929 0.999996V-3.8147e-06H678.966L678.93 0.962463L679.929 0.999996ZM739.129 0.999996H740.129V-3.8147e-06H739.129V0.999996ZM739.129 52.7H738.129V53.7H739.129V52.7ZM699.629 24.3L698.63 24.26V24.2604L699.629 24.3ZM698.029 41.5L699.015 41.669L699.015 41.6666L698.029 41.5ZM694.329 52.7L693.47 52.1885L692.57 53.7H694.329V52.7ZM715.929 52.7V53.7H716.929V52.7H715.929ZM715.929 19.3H716.929V18.3H715.929V19.3ZM699.829 19.3V18.3H698.868L698.83 19.26L699.829 19.3ZM747.329 52.7V84.7H749.329V52.7H747.329ZM748.329 83.7H726.729V85.7H748.329V83.7ZM727.729 84.7V71H725.729V84.7H727.729ZM726.729 70L686.929 70V72L726.729 72V70ZM685.929 71V84.7H687.929V71H685.929ZM686.929 83.7H665.329V85.7H686.929V83.7ZM666.329 84.7V52.7H664.329V84.7H666.329ZM665.329 53.7H667.329V51.7H665.329V53.7ZM667.329 53.7C669.593 53.7 671.568 52.9775 673.196 51.52C674.803 50.0808 676.013 47.9792 676.88 45.3088L674.978 44.6912C674.178 47.1542 673.121 48.9025 671.862 50.03C670.623 51.1392 669.131 51.7 667.329 51.7V53.7ZM676.88 45.3088C678.588 40.0468 679.66 32.3736 680.128 22.3466L678.13 22.2534C677.665 32.2264 676.603 39.6865 674.978 44.6912L676.88 45.3088ZM680.128 22.3375L680.928 1.03753L678.93 0.962463L678.13 22.2625L680.128 22.3375ZM679.929 2L739.129 2V-3.8147e-06L679.929 -3.8147e-06V2ZM738.129 0.999996V52.7H740.129V0.999996H738.129ZM739.129 53.7H748.329V51.7H739.129V53.7ZM698.63 24.2604C698.364 30.9667 697.834 36.655 697.043 41.3334L699.015 41.6666C699.824 36.8783 700.36 31.0999 700.628 24.3396L698.63 24.2604ZM697.043 41.331C696.255 45.9268 695.052 49.5302 693.47 52.1885L695.188 53.2115C696.939 50.2698 698.202 46.4066 699.015 41.669L697.043 41.331ZM694.329 53.7L715.929 53.7V51.7L694.329 51.7V53.7ZM716.929 52.7V19.3H714.929V52.7H716.929ZM715.929 18.3H699.829V20.3H715.929V18.3ZM698.83 19.26L698.63 24.26L700.628 24.34L700.828 19.34L698.83 19.26ZM806.631 58.8L807.564 58.4405L807.318 57.8H806.631V58.8ZM780.031 58.8V57.8H779.345L779.098 58.4405L780.031 58.8ZM775.331 71V72H776.018L776.264 71.3595L775.331 71ZM751.331 71L750.415 70.5995L749.803 72H751.331V71ZM781.931 0.999996V-3.8147e-06H781.277L781.015 0.599451L781.931 0.999996ZM805.131 0.999996L806.048 0.599451L805.785 -3.8147e-06H805.131V0.999996ZM835.731 71V72H837.26L836.648 70.5995L835.731 71ZM811.331 71L810.398 71.3595L810.645 72H811.331V71ZM800.131 41.8V42.8H801.59L801.064 41.4396L800.131 41.8ZM793.331 24.2L794.264 23.8396L793.331 21.4253L792.398 23.8396L793.331 24.2ZM786.531 41.8L785.598 41.4396L785.073 42.8H786.531V41.8ZM806.631 57.8L780.031 57.8V59.8L806.631 59.8V57.8ZM779.098 58.4405L774.398 70.6405L776.264 71.3595L780.964 59.1595L779.098 58.4405ZM775.331 70H751.331V72H775.331V70ZM752.247 71.4005L782.848 1.40054L781.015 0.599451L750.415 70.5995L752.247 71.4005ZM781.931 2L805.131 2V-3.8147e-06L781.931 -3.8147e-06V2ZM804.215 1.40054L834.815 71.4005L836.648 70.5995L806.048 0.599451L804.215 1.40054ZM835.731 70H811.331V72H835.731V70ZM812.264 70.6405L807.564 58.4405L805.698 59.1595L810.398 71.3595L812.264 70.6405ZM801.064 41.4396L794.264 23.8396L792.398 24.5604L799.198 42.1604L801.064 41.4396ZM792.398 23.8396L785.598 41.4396L787.464 42.1604L794.264 24.5604L792.398 23.8396ZM786.531 42.8L800.131 42.8V40.8L786.531 40.8V42.8Z" fill="#AEC0D0"/>
</svg>
