<svg width="923" height="73" viewBox="0 0 923 73" fill="none" xmlns="http://www.w3.org/2000/svg">
<path d="M55.2891 21.8645V22.8645H56.2891V21.8645H55.2891ZM25.1891 21.8645V20.8645L24.1891 20.8645V21.8645L25.1891 21.8645ZM25.1891 73.5645V74.5645H26.1891V73.5645H25.1891ZM1.98906 73.5645H0.989059V74.5645H1.98906V73.5645ZM1.98906 3.56445V2.56445H0.989059V3.56445H1.98906ZM55.2891 3.56445H56.2891V2.56445H55.2891V3.56445ZM55.2891 20.8645H25.1891V22.8645H55.2891V20.8645ZM24.1891 21.8645L24.1891 73.5645H26.1891L26.1891 21.8645L24.1891 21.8645ZM25.1891 72.5645H1.98906V74.5645H25.1891V72.5645ZM2.98906 73.5645L2.98906 3.56445H0.989059L0.989059 73.5645H2.98906ZM1.98906 4.56445L55.2891 4.56445V2.56445L1.98906 2.56445V4.56445ZM54.2891 3.56445V21.8645H56.2891V3.56445H54.2891ZM113.722 6.76445L113.316 7.67826L113.722 6.76445ZM124.822 15.9645L123.983 16.5094L124.822 15.9645ZM124.822 43.9645L123.983 43.4195L124.822 43.9645ZM113.722 53.1645L113.316 52.2506L113.722 53.1645ZM86.7219 56.3645V55.3645H85.7219V56.3645H86.7219ZM86.7219 73.5645V74.5645H87.7219V73.5645H86.7219ZM63.1219 73.5645H62.1219V74.5645H63.1219V73.5645ZM63.1219 3.56445V2.56445H62.1219V3.56445H63.1219ZM102.522 36.0644L103.18 36.817L103.189 36.8094L103.198 36.8016L102.522 36.0644ZM102.522 23.9645L101.846 24.7016L101.855 24.7094L101.863 24.717L102.522 23.9645ZM86.7219 21.7645V20.7645H85.7219V21.7645H86.7219ZM86.7219 38.1645H85.7219V39.1645H86.7219V38.1645ZM96.8219 4.56445C103.18 4.56445 108.67 5.61329 113.316 7.67826L114.128 5.85064C109.174 3.64894 103.397 2.56445 96.8219 2.56445V4.56445ZM113.316 7.67826C117.958 9.74129 121.499 12.6878 123.983 16.5094L125.66 15.4195C122.944 11.2411 119.086 8.05428 114.128 5.85064L113.316 7.67826ZM123.983 16.5094C126.466 20.3285 127.722 24.801 127.722 29.9645H129.722C129.722 24.4612 128.378 19.6004 125.66 15.4195L123.983 16.5094ZM127.722 29.9645C127.722 35.1279 126.466 39.6004 123.983 43.4195L125.66 44.5094C128.378 40.3285 129.722 35.4677 129.722 29.9645H127.722ZM123.983 43.4195C121.499 47.2411 117.958 50.1876 113.316 52.2506L114.128 54.0783C119.086 51.8746 122.944 48.6878 125.66 44.5094L123.983 43.4195ZM113.316 52.2506C108.67 54.3156 103.18 55.3645 96.8219 55.3645V57.3645C103.397 57.3645 109.174 56.28 114.128 54.0783L113.316 52.2506ZM96.8219 55.3645H86.7219V57.3645H96.8219V55.3645ZM85.7219 56.3645V73.5645H87.7219V56.3645H85.7219ZM86.7219 72.5645H63.1219V74.5645H86.7219V72.5645ZM64.1219 73.5645L64.1219 3.56445H62.1219L62.1219 73.5645H64.1219ZM63.1219 4.56445L96.8219 4.56445V2.56445L63.1219 2.56445V4.56445ZM95.3219 39.1645C98.6457 39.1645 101.325 38.4403 103.18 36.817L101.863 35.3119C100.518 36.4886 98.3981 37.1645 95.3219 37.1645V39.1645ZM103.198 36.8016C105.045 35.1083 105.922 32.7845 105.922 29.9645H103.922C103.922 32.3444 103.199 34.0872 101.846 35.3273L103.198 36.8016ZM105.922 29.9645C105.922 27.146 105.045 24.8434 103.18 23.2119L101.863 24.717C103.199 25.8855 103.922 27.5829 103.922 29.9645H105.922ZM103.198 23.2273C101.342 21.5266 98.6555 20.7645 95.3219 20.7645V22.7645C98.3882 22.7645 100.501 23.469 101.846 24.7016L103.198 23.2273ZM95.3219 20.7645H86.7219V22.7645H95.3219V20.7645ZM85.7219 21.7645V38.1645H87.7219V21.7645H85.7219ZM86.7219 39.1645H95.3219V37.1645H86.7219V39.1645ZM204.313 3.56445L205.196 4.03495L205.98 2.56445H204.313V3.56445ZM176.213 56.2645L175.331 55.794L175.33 55.7948L176.213 56.2645ZM163.913 70.5645L163.356 69.7341L163.351 69.7377L163.913 70.5645ZM134.413 72.6645L133.462 72.3566L133.176 73.2414L134.037 73.5911L134.413 72.6645ZM139.913 55.6645L140.176 54.6997L139.256 54.4486L138.962 55.3566L139.913 55.6645ZM151.513 55.9645L151.085 55.0607L151.076 55.0653L151.066 55.07L151.513 55.9645ZM155.113 52.9645L155.891 53.5937L156.311 53.0746L155.992 52.4876L155.113 52.9645ZM128.313 3.56445V2.56445H126.633L127.434 4.04131L128.313 3.56445ZM153.213 3.56445L154.118 3.13821L153.848 2.56445H153.213V3.56445ZM167.113 33.0644L166.209 33.4907L167.097 35.3767L168.012 33.5031L167.113 33.0644ZM181.513 3.56445V2.56445H180.889L180.615 3.12578L181.513 3.56445ZM203.431 3.09395L175.331 55.794L177.096 56.735L205.196 4.03495L203.431 3.09395ZM175.33 55.7948C172.058 61.9467 168.06 66.5766 163.356 69.7342L164.471 71.3948C169.5 68.019 173.702 63.1155 177.096 56.7341L175.33 55.7948ZM163.351 69.7377C158.716 72.8916 153.612 74.4645 148.013 74.4645V76.4645C154.014 76.4645 159.51 74.7706 164.476 71.3912L163.351 69.7377ZM148.013 74.4645C143.689 74.4645 139.283 73.5614 134.789 71.7378L134.037 73.5911C138.743 75.5008 143.404 76.4645 148.013 76.4645V74.4645ZM135.365 72.9723L140.865 55.9723L138.962 55.3566L133.462 72.3566L135.365 72.9723ZM139.65 56.6292C142.623 57.4399 145.12 57.8644 147.113 57.8644V55.8644C145.373 55.8644 143.07 55.489 140.176 54.6997L139.65 56.6292ZM147.113 57.8644C148.958 57.8644 150.587 57.5455 151.961 56.8589L151.066 55.07C150.039 55.5834 148.735 55.8644 147.113 55.8644V57.8644ZM151.941 56.8682C153.376 56.1884 154.689 55.0781 155.891 53.5937L154.336 52.3353C153.271 53.6508 152.183 54.5405 151.085 55.0607L151.941 56.8682ZM155.992 52.4876L129.192 3.08759L127.434 4.04131L154.234 53.4413L155.992 52.4876ZM128.313 4.56445L153.213 4.56445V2.56445L128.313 2.56445V4.56445ZM152.309 3.99069L166.209 33.4907L168.018 32.6382L154.118 3.13821L152.309 3.99069ZM168.012 33.5031L182.412 4.00311L180.615 3.12578L166.215 32.6258L168.012 33.5031ZM181.513 4.56445L204.313 4.56445V2.56445L181.513 2.56445V4.56445ZM276.916 3.56445H277.916V2.56445H276.916V3.56445ZM276.916 73.5645V74.5645H277.916V73.5645H276.916ZM253.716 73.5645H252.716V74.5645H253.716V73.5645ZM253.716 21.8645H254.716V20.8645H253.716V21.8645ZM232.416 21.8645V20.8645H231.416V21.8645H232.416ZM232.416 73.5645V74.5645H233.416V73.5645H232.416ZM209.216 73.5645H208.216V74.5645H209.216V73.5645ZM209.216 3.56445V2.56445H208.216V3.56445H209.216ZM275.916 3.56445V73.5645H277.916V3.56445H275.916ZM276.916 72.5645H253.716V74.5645H276.916V72.5645ZM254.716 73.5645V21.8645H252.716V73.5645H254.716ZM253.716 20.8645L232.416 20.8645V22.8645L253.716 22.8645V20.8645ZM231.416 21.8645V73.5645H233.416V21.8645H231.416ZM232.416 72.5645L209.216 72.5645V74.5645L232.416 74.5645V72.5645ZM210.216 73.5645V3.56445H208.216V73.5645H210.216ZM209.216 4.56445L276.916 4.56445V2.56445L209.216 2.56445V4.56445ZM356.994 3.56445H357.994V2.56445H356.994V3.56445ZM356.994 73.5645V74.5645H357.994V73.5645H356.994ZM333.794 73.5645H332.794V74.5645H333.794V73.5645ZM333.794 21.8645L334.794 21.8645V20.8645L333.794 20.8645V21.8645ZM312.494 21.8645V20.8645H311.494V21.8645H312.494ZM312.494 73.5645V74.5645H313.494V73.5645H312.494ZM289.294 73.5645H288.294V74.5645H289.294V73.5645ZM289.294 3.56445V2.56445H288.294V3.56445H289.294ZM355.994 3.56445V73.5645H357.994V3.56445H355.994ZM356.994 72.5645H333.794V74.5645H356.994V72.5645ZM334.794 73.5645V21.8645L332.794 21.8645V73.5645H334.794ZM333.794 20.8645H312.494V22.8645H333.794V20.8645ZM311.494 21.8645V73.5645L313.494 73.5645V21.8645H311.494ZM312.494 72.5645L289.294 72.5645V74.5645L312.494 74.5645V72.5645ZM290.294 73.5645V3.56445H288.294V73.5645H290.294ZM289.294 4.56445L356.994 4.56445V2.56445L289.294 2.56445V4.56445ZM418.772 61.3644L419.705 61.005L419.458 60.3644H418.772V61.3644ZM392.172 61.3644V60.3644H391.485L391.239 61.005L392.172 61.3644ZM387.472 73.5645V74.5645H388.158L388.405 73.9239L387.472 73.5645ZM363.472 73.5645L362.556 73.1639L361.943 74.5645H363.472V73.5645ZM394.072 3.56445V2.56445H393.418L393.156 3.1639L394.072 3.56445ZM417.272 3.56445L418.188 3.1639L417.926 2.56445H417.272V3.56445ZM447.872 73.5645V74.5645H449.4L448.788 73.1639L447.872 73.5645ZM423.472 73.5645L422.539 73.9239L422.785 74.5645H423.472V73.5645ZM412.272 44.3644V45.3644H413.73L413.205 44.0041L412.272 44.3644ZM405.472 26.7645L406.405 26.4041L405.472 23.9897L404.539 26.4041L405.472 26.7645ZM398.672 44.3644L397.739 44.0041L397.213 45.3644H398.672V44.3644ZM418.772 60.3644L392.172 60.3644V62.3644L418.772 62.3644V60.3644ZM391.239 61.005L386.539 73.205L388.405 73.9239L393.105 61.7239L391.239 61.005ZM387.472 72.5645H363.472V74.5645H387.472V72.5645ZM364.388 73.965L394.988 3.96499L393.156 3.1639L362.556 73.1639L364.388 73.965ZM394.072 4.56445L417.272 4.56445V2.56445L394.072 2.56445V4.56445ZM416.356 3.96499L446.956 73.965L448.788 73.1639L418.188 3.1639L416.356 3.96499ZM447.872 72.5645H423.472V74.5645H447.872V72.5645ZM424.405 73.205L419.705 61.005L417.839 61.7239L422.539 73.9239L424.405 73.205ZM413.205 44.0041L406.405 26.4041L404.539 27.1249L411.339 44.7249L413.205 44.0041ZM404.539 26.4041L397.739 44.0041L399.605 44.7249L406.405 27.1249L404.539 26.4041ZM398.672 45.3644L412.272 45.3644V43.3644L398.672 43.3644V45.3644ZM506.913 3.46445L507.764 2.93863L507.471 2.46445H506.913V3.46445ZM517.113 19.9645L516.263 20.4903L517.113 21.8662L517.964 20.4903L517.113 19.9645ZM527.313 3.46445V2.46445H526.756L526.463 2.93863L527.313 3.46445ZM554.613 3.46445L555.44 4.02656L556.502 2.46445H554.613V3.46445ZM531.913 36.8645L531.086 36.3023L530.705 36.8628L531.085 37.4244L531.913 36.8645ZM556.713 73.5645V74.5645H558.596L557.542 73.0046L556.713 73.5645ZM528.913 73.5645L528.076 74.1106L528.371 74.5645H528.913V73.5645ZM517.113 55.4645L517.951 54.9183L517.106 53.6224L516.271 54.9249L517.113 55.4645ZM505.513 73.5645V74.5645H506.06L506.355 74.104L505.513 73.5645ZM478.413 73.5645L477.591 72.996L476.507 74.5645H478.413V73.5645ZM503.013 37.9645L503.836 38.5329L504.223 37.9733L503.844 37.4081L503.013 37.9645ZM479.913 3.46445V2.46445H478.04L479.082 4.02082L479.913 3.46445ZM506.063 3.99027L516.263 20.4903L517.964 19.4386L507.764 2.93863L506.063 3.99027ZM517.964 20.4903L528.164 3.99027L526.463 2.93863L516.263 19.4386L517.964 20.4903ZM527.313 4.46445L554.613 4.46445V2.46445L527.313 2.46445V4.46445ZM553.786 2.90234L531.086 36.3023L532.74 37.4266L555.44 4.02656L553.786 2.90234ZM531.085 37.4244L555.885 74.1244L557.542 73.0046L532.742 36.3046L531.085 37.4244ZM556.713 72.5645H528.913V74.5645H556.713V72.5645ZM529.751 73.0183L517.951 54.9183L516.276 56.0106L528.076 74.1106L529.751 73.0183ZM516.271 54.9249L504.671 73.0249L506.355 74.104L517.955 56.004L516.271 54.9249ZM505.513 72.5645L478.413 72.5645V74.5645L505.513 74.5645V72.5645ZM479.236 74.1329L503.836 38.5329L502.191 37.396L477.591 72.996L479.236 74.1329ZM503.844 37.4081L480.744 2.90808L479.082 4.02082L502.182 38.5208L503.844 37.4081ZM479.913 4.46445L506.913 4.46445V2.46445L479.913 2.46445V4.46445ZM575.98 70.4645L576.443 69.578L575.98 70.4645ZM561.88 57.4645L561.026 57.9834L561.028 57.988L561.88 57.4645ZM561.88 19.7645L562.732 20.288L562.735 20.2834L561.88 19.7645ZM616.58 6.66445L617.043 5.77804L616.58 6.66445ZM630.68 19.7645L629.826 20.2834L629.828 20.288L630.68 19.7645ZM630.68 57.4645L631.532 57.988L631.535 57.9834L630.68 57.4645ZM616.58 70.4645L617.043 71.3509L616.58 70.4645ZM604.18 53.9645L604.695 54.822L604.702 54.8177L604.18 53.9645ZM609.88 47.8645L610.761 48.3386L610.766 48.3293L609.88 47.8645ZM609.88 29.3644L608.995 29.8293L609 29.8386L609.88 29.3644ZM604.18 23.2645L603.648 24.1111L603.662 24.1199L603.677 24.1282L604.18 23.2645ZM588.28 23.2645L588.795 24.122L588.802 24.1177L588.28 23.2645ZM582.68 29.3644L583.561 29.8386L583.566 29.8293L582.68 29.3644ZM582.68 47.8645L581.795 48.3293L581.8 48.3386L582.68 47.8645ZM588.28 53.9645L587.748 54.8111L587.762 54.8199L587.777 54.8282L588.28 53.9645ZM596.28 74.1645C588.89 74.1645 582.285 72.6286 576.443 69.578L575.518 71.3509C581.676 74.5669 588.604 76.1645 596.28 76.1645V74.1645ZM576.443 69.578C570.596 66.5246 566.034 62.3137 562.732 56.9409L561.028 57.988C564.527 63.6819 569.365 68.1376 575.518 71.3509L576.443 69.578ZM562.735 56.9455C559.437 51.5127 557.78 45.3945 557.78 38.5644H555.78C555.78 45.7344 557.524 52.2162 561.026 57.9834L562.735 56.9455ZM557.78 38.5644C557.78 31.7343 559.437 25.6516 562.732 20.288L561.028 19.2409C557.524 24.944 555.78 31.3946 555.78 38.5644H557.78ZM562.735 20.2834C566.037 14.8447 570.599 10.6027 576.443 7.55086L575.518 5.77804C569.362 8.99287 564.524 13.4842 561.026 19.2455L562.735 20.2834ZM576.443 7.55086C582.285 4.50026 588.89 2.96445 596.28 2.96445V0.964451C588.604 0.964451 581.676 2.56198 575.518 5.77804L576.443 7.55086ZM596.28 2.96445C603.671 2.96445 610.276 4.50026 616.118 7.55086L617.043 5.77804C610.885 2.56198 603.957 0.964451 596.28 0.964451V2.96445ZM616.118 7.55086C621.961 10.6027 626.524 14.8447 629.826 20.2834L631.535 19.2455C628.037 13.4842 623.199 8.99287 617.043 5.77804L616.118 7.55086ZM629.828 20.288C633.124 25.6516 634.78 31.7343 634.78 38.5644H636.78C636.78 31.3946 635.037 24.944 631.532 19.2409L629.828 20.288ZM634.78 38.5644C634.78 45.3945 633.124 51.5127 629.826 56.9455L631.535 57.9834C635.037 52.2162 636.78 45.7344 636.78 38.5644H634.78ZM629.828 56.9409C626.527 62.3137 621.965 66.5246 616.118 69.578L617.043 71.3509C623.196 68.1376 628.034 63.6818 631.532 57.988L629.828 56.9409ZM616.118 69.578C610.276 72.6286 603.671 74.1645 596.28 74.1645V76.1645C603.957 76.1645 610.885 74.5669 617.043 71.3509L616.118 69.578ZM596.28 57.0645C599.38 57.0645 602.194 56.3225 604.695 54.8219L603.666 53.107C601.5 54.4064 599.047 55.0645 596.28 55.0645V57.0645ZM604.702 54.8177C607.261 53.254 609.281 51.0864 610.761 48.3386L609 47.3904C607.68 49.8425 605.9 51.7416 603.659 53.1112L604.702 54.8177ZM610.766 48.3293C612.253 45.4963 612.98 42.2317 612.98 38.5644H610.98C610.98 41.9639 610.308 44.8993 608.995 47.3996L610.766 48.3293ZM612.98 38.5644C612.98 34.898 612.253 31.6621 610.761 28.8904L609 29.8386C610.307 32.2668 610.98 35.1642 610.98 38.5644H612.98ZM610.766 28.8996C609.286 26.0813 607.26 23.9031 604.684 22.4007L603.677 24.1282C605.901 25.4258 607.675 27.3143 608.995 29.8293L610.766 28.8996ZM604.713 22.4178C602.21 20.8444 599.389 20.0644 596.28 20.0644V22.0644C599.038 22.0644 601.485 22.7512 603.648 24.1111L604.713 22.4178ZM596.28 20.0644C593.171 20.0644 590.323 20.8443 587.759 22.4112L588.802 24.1177C591.038 22.7512 593.523 22.0644 596.28 22.0644V20.0644ZM587.766 22.407C585.259 23.9112 583.271 26.0884 581.795 28.8996L583.566 29.8293C584.89 27.3072 586.635 25.4177 588.795 24.1219L587.766 22.407ZM581.8 28.8904C580.307 31.6621 579.58 34.898 579.58 38.5644H581.58C581.58 35.1642 582.253 32.2668 583.561 29.8386L581.8 28.8904ZM579.58 38.5644C579.58 42.2317 580.308 45.4963 581.795 48.3293L583.566 47.3996C582.253 44.8993 581.58 41.9639 581.58 38.5644H579.58ZM581.8 48.3386C583.276 51.0795 585.258 53.2459 587.748 54.8111L588.813 53.1178C586.636 51.7497 584.885 49.8494 583.561 47.3904L581.8 48.3386ZM587.777 54.8282C590.338 56.3225 593.18 57.0645 596.28 57.0645V55.0645C593.514 55.0645 591.023 54.4064 588.784 53.1007L587.777 54.8282ZM693.174 37.5645L692.321 37.0426L692.012 37.5486L692.307 38.0629L693.174 37.5645ZM713.874 73.5645V74.5645H715.603L714.741 73.066L713.874 73.5645ZM687.274 73.5645L686.391 74.0325L686.672 74.5645H687.274V73.5645ZM673.874 48.2645L674.758 47.7964L674.476 47.2645H673.874V48.2645ZM667.274 48.2645V47.2645H666.274V48.2645H667.274ZM667.274 73.5645V74.5645H668.274V73.5645H667.274ZM643.674 73.5645H642.674V74.5645H643.674V73.5645ZM643.674 3.56445V2.56445H642.674V3.56445H643.674ZM667.274 3.56445H668.274V2.56445H667.274V3.56445ZM667.274 29.6645H666.274V30.6645H667.274V29.6645ZM674.474 29.6645V30.6645H675.055L675.343 30.1602L674.474 29.6645ZM689.374 3.56445V2.56445H688.794L688.506 3.06867L689.374 3.56445ZM713.974 3.56445L714.827 4.0863L715.758 2.56445H713.974V3.56445ZM692.307 38.0629L713.007 74.0629L714.741 73.066L694.041 37.066L692.307 38.0629ZM713.874 72.5645H687.274V74.5645H713.874V72.5645ZM688.158 73.0964L674.758 47.7964L672.991 48.7325L686.391 74.0325L688.158 73.0964ZM673.874 47.2645H667.274V49.2645H673.874V47.2645ZM666.274 48.2645V73.5645H668.274V48.2645H666.274ZM667.274 72.5645L643.674 72.5645V74.5645L667.274 74.5645V72.5645ZM644.674 73.5645V3.56445H642.674V73.5645H644.674ZM643.674 4.56445L667.274 4.56445V2.56445L643.674 2.56445V4.56445ZM666.274 3.56445V29.6645H668.274V3.56445H666.274ZM667.274 30.6645H674.474V28.6645H667.274V30.6645ZM675.343 30.1602L690.243 4.06023L688.506 3.06867L673.606 29.1687L675.343 30.1602ZM689.374 4.56445L713.974 4.56445V2.56445L689.374 2.56445V4.56445ZM713.121 3.04259L692.321 37.0426L694.027 38.0863L714.827 4.0863L713.121 3.04259ZM767.686 37.5645L766.833 37.0426L766.523 37.5486L766.819 38.0629L767.686 37.5645ZM788.386 73.5645V74.5645H790.114L789.253 73.066L788.386 73.5645ZM761.786 73.5645L760.902 74.0325L761.184 74.5645H761.786V73.5645ZM748.386 48.2645L749.27 47.7964L748.988 47.2645H748.386V48.2645ZM741.786 48.2645V47.2645H740.786V48.2645H741.786ZM741.786 73.5645V74.5645H742.786V73.5645H741.786ZM718.186 73.5645H717.186V74.5645H718.186V73.5645ZM718.186 3.56445V2.56445H717.186V3.56445H718.186ZM741.786 3.56445H742.786V2.56445H741.786V3.56445ZM741.786 29.6645H740.786V30.6645H741.786V29.6645ZM748.986 29.6645V30.6645H749.567L749.854 30.1602L748.986 29.6645ZM763.886 3.56445V2.56445H763.305L763.018 3.06867L763.886 3.56445ZM788.486 3.56445L789.339 4.0863L790.27 2.56445H788.486V3.56445ZM766.819 38.0629L787.519 74.0629L789.253 73.066L768.553 37.066L766.819 38.0629ZM788.386 72.5645H761.786V74.5645H788.386V72.5645ZM762.67 73.0964L749.27 47.7964L747.502 48.7325L760.902 74.0325L762.67 73.0964ZM748.386 47.2645H741.786V49.2645H748.386V47.2645ZM740.786 48.2645V73.5645H742.786V48.2645H740.786ZM741.786 72.5645H718.186V74.5645H741.786V72.5645ZM719.186 73.5645V3.56445H717.186V73.5645H719.186ZM718.186 4.56445L741.786 4.56445V2.56445L718.186 2.56445V4.56445ZM740.786 3.56445V29.6645H742.786V3.56445H740.786ZM741.786 30.6645H748.986V28.6645H741.786V30.6645ZM749.854 30.1602L764.754 4.06023L763.018 3.06867L748.117 29.1687L749.854 30.1602ZM763.886 4.56445L788.486 4.56445V2.56445L763.886 2.56445V4.56445ZM787.633 3.04259L766.833 37.0426L768.539 38.0863L789.339 4.0863L787.633 3.04259ZM851.498 55.7645H852.498V54.7645H851.498V55.7645ZM851.498 73.5645V74.5645H852.498V73.5645H851.498ZM793.298 73.5645H792.298V74.5645H793.298V73.5645ZM793.298 3.56445V2.56445H792.298V3.56445H793.298ZM850.198 3.56445H851.198V2.56445H850.198V3.56445ZM850.198 21.3645V22.3645H851.198V21.3645H850.198ZM816.498 21.3645V20.3645H815.498V21.3645H816.498ZM816.498 29.5644H815.498V30.5644H816.498V29.5644ZM846.098 29.5644H847.098V28.5644H846.098V29.5644ZM846.098 46.5645V47.5645H847.098V46.5645H846.098ZM816.498 46.5645V45.5645H815.498V46.5645H816.498ZM816.498 55.7645H815.498V56.7645H816.498V55.7645ZM850.498 55.7645V73.5645H852.498V55.7645H850.498ZM851.498 72.5645L793.298 72.5645V74.5645L851.498 74.5645V72.5645ZM794.298 73.5645V3.56445H792.298V73.5645H794.298ZM793.298 4.56445L850.198 4.56445V2.56445L793.298 2.56445V4.56445ZM849.198 3.56445V21.3645H851.198V3.56445H849.198ZM850.198 20.3645L816.498 20.3645V22.3645L850.198 22.3645V20.3645ZM815.498 21.3645V29.5644H817.498V21.3645H815.498ZM816.498 30.5644L846.098 30.5644V28.5644L816.498 28.5644V30.5644ZM845.098 29.5644V46.5645H847.098V29.5644H845.098ZM846.098 45.5645L816.498 45.5645V47.5645L846.098 47.5645V45.5645ZM815.498 46.5645V55.7645H817.498V46.5645H815.498ZM816.498 56.7645L851.498 56.7645V54.7645L816.498 54.7645V56.7645ZM921.983 3.56445H922.983V2.56445H921.983V3.56445ZM921.983 73.5645V74.5645H922.983V73.5645H921.983ZM898.783 73.5645H897.783V74.5645H898.783V73.5645ZM898.783 56.9645H899.783V55.9645H898.783V56.9645ZM892.483 56.9645V55.9645H891.938L891.642 56.4227L892.483 56.9645ZM881.783 73.5645V74.5645H882.328L882.623 74.1062L881.783 73.5645ZM857.083 73.5645L856.26 72.9965L855.178 74.5645H857.083V73.5645ZM870.883 53.5645L871.706 54.1324L872.376 53.1618L871.309 52.6596L870.883 53.5645ZM860.383 44.5645L859.529 45.0853L859.534 45.0938L859.54 45.1023L860.383 44.5645ZM860.683 16.2645L859.847 15.7161L859.84 15.7258L860.683 16.2645ZM871.983 6.86445L871.571 5.95323L871.983 6.86445ZM898.783 39.1645V40.1645H899.783V39.1645H898.783ZM898.783 21.7645H899.783V20.7645H898.783V21.7645ZM920.983 3.56445V73.5645H922.983V3.56445H920.983ZM921.983 72.5645H898.783V74.5645H921.983V72.5645ZM899.783 73.5645V56.9645H897.783V73.5645H899.783ZM898.783 55.9645H892.483V57.9645H898.783V55.9645ZM891.642 56.4227L880.942 73.0227L882.623 74.1062L893.323 57.5062L891.642 56.4227ZM881.783 72.5645H857.083V74.5645H881.783V72.5645ZM857.906 74.1324L871.706 54.1324L870.06 52.9965L856.26 72.9965L857.906 74.1324ZM871.309 52.6596C866.93 50.599 863.582 47.7194 861.226 44.0266L859.54 45.1023C862.117 49.1428 865.769 52.2632 870.457 54.4693L871.309 52.6596ZM861.236 44.0436C858.946 40.2905 857.783 35.8434 857.783 30.6645H855.783C855.783 36.1521 857.019 40.9717 859.529 45.0853L861.236 44.0436ZM857.783 30.6645C857.783 25.2934 859.043 20.6864 861.525 16.8031L859.84 15.7258C857.123 19.9758 855.783 24.9688 855.783 30.6645H857.783ZM861.519 16.8128C864.072 12.9204 867.683 9.90542 872.395 7.77567L871.571 5.95323C866.549 8.22348 862.627 11.4752 859.847 15.7161L861.519 16.8128ZM872.395 7.77567C877.105 5.64628 882.692 4.56445 889.183 4.56445V2.56445C882.473 2.56445 876.594 3.68262 871.571 5.95323L872.395 7.77567ZM889.183 4.56445L921.983 4.56445V2.56445L889.183 2.56445V4.56445ZM889.583 20.7645C886.443 20.7645 883.901 21.5049 882.146 23.1624C880.38 24.8301 879.583 27.2619 879.583 30.2645H881.583C881.583 27.6003 882.285 25.7821 883.519 24.6165C884.764 23.4407 886.723 22.7645 889.583 22.7645V20.7645ZM879.583 30.2645C879.583 33.3881 880.374 35.9139 882.13 37.6505C883.884 39.3851 886.432 40.1645 889.583 40.1645V38.1645C886.734 38.1645 884.782 37.4605 883.536 36.2284C882.292 34.9983 881.583 33.0741 881.583 30.2645H879.583ZM889.583 40.1645H898.783V38.1645H889.583V40.1645ZM899.783 39.1645V21.7645H897.783V39.1645H899.783ZM898.783 20.7645H889.583V22.7645H898.783V20.7645Z" fill="#AEC0D0"/>
</svg>
