<svg width="1266" height="89" viewBox="0 0 1266 89" fill="none" xmlns="http://www.w3.org/2000/svg">
<path d="M20.8043 70.5645L20.3373 71.4488L20.3451 71.4528L20.8043 70.5645ZM6.8043 57.5645L5.94492 58.076L5.95229 58.088L6.8043 57.5645ZM6.8043 19.6645L5.9495 19.1455L5.94772 19.1484L6.8043 19.6645ZM20.8043 6.66445L21.2635 7.55284L21.2713 7.54872L20.8043 6.66445ZM59.0043 5.56445L58.5939 6.47637L59.0043 5.56445ZM72.2043 15.9645L72.8702 16.7105L73.5617 16.0933L72.9987 15.357L72.2043 15.9645ZM57.3043 29.2645L56.5206 29.8856L57.1793 30.7165L57.9702 30.0105L57.3043 29.2645ZM30.1043 25.8644L30.8266 26.5561L30.8338 26.5484L30.1043 25.8644ZM30.1043 51.3644L29.3747 52.0484L29.382 52.056L30.1043 51.3644ZM57.3043 47.8645L57.9702 47.1184L57.1793 46.4124L56.5206 47.2433L57.3043 47.8645ZM72.2043 61.1645L72.9987 61.7719L73.5617 61.0356L72.8702 60.4184L72.2043 61.1645ZM59.0043 71.5645L58.5939 70.6525L59.0043 71.5645ZM40.8043 74.1645C33.5465 74.1645 27.0401 72.6618 21.2635 69.6761L20.3451 71.4528C26.4352 74.6005 33.2621 76.1645 40.8043 76.1645V74.1645ZM21.2713 69.6802C15.4908 66.6276 10.9594 62.4165 7.65631 57.0409L5.95229 58.088C9.44922 63.7791 14.2512 68.2347 20.3373 71.4487L21.2713 69.6802ZM7.66359 57.053C4.43006 51.6206 2.8043 45.4668 2.8043 38.5644H0.804297C0.804297 45.7955 2.51186 52.3083 5.945 58.0759L7.66359 57.053ZM2.8043 38.5644C2.8043 31.662 4.43008 25.5436 7.66088 20.1805L5.94772 19.1484C2.51184 24.852 0.804297 31.3336 0.804297 38.5644H2.8043ZM7.65908 20.1834C10.9617 14.7438 15.4901 10.5368 21.2635 7.55281L20.3451 5.77609C14.2518 8.92544 9.44687 13.3851 5.94951 19.1455L7.65908 20.1834ZM21.2713 7.54872C27.0463 4.49898 33.55 2.96445 40.8043 2.96445V0.964451C33.2586 0.964451 26.4289 2.56326 20.3373 5.78018L21.2713 7.54872ZM40.8043 2.96445C47.4857 2.96445 53.4089 4.14313 58.5939 6.47637L59.4147 4.65253C53.933 2.18578 47.7229 0.964451 40.8043 0.964451V2.96445ZM58.5939 6.47637C63.7799 8.81006 68.0466 12.1737 71.4099 16.5719L72.9987 15.357C69.4287 10.6885 64.8954 7.11884 59.4147 4.65253L58.5939 6.47637ZM71.5384 15.2184L56.6384 28.5184L57.9702 30.0105L72.8702 16.7105L71.5384 15.2184ZM58.088 28.6433C53.605 22.9878 48.2354 20.0644 42.0043 20.0644V22.0644C47.5065 22.0644 52.337 24.6078 56.5206 29.8856L58.088 28.6433ZM42.0043 20.0644C36.8326 20.0644 32.5883 21.7527 29.3748 25.1805L30.8338 26.5484C33.6203 23.5762 37.3094 22.0644 42.0043 22.0644V20.0644ZM29.382 25.1729C26.1649 28.533 24.6043 33.0358 24.6043 38.5644H26.6043C26.6043 33.4264 28.0437 29.4626 30.8266 26.556L29.382 25.1729ZM24.6043 38.5644C24.6043 44.094 26.1651 48.6247 29.3748 52.0484L30.8338 50.6805C28.0435 47.7042 26.6043 43.7016 26.6043 38.5644H24.6043ZM29.382 52.056C32.5972 55.4142 36.8392 57.0645 42.0043 57.0645V55.0645C37.3027 55.0645 33.6114 53.5814 30.8266 50.6729L29.382 52.056ZM42.0043 57.0645C48.2354 57.0645 53.605 54.1411 58.088 48.4856L56.5206 47.2433C52.337 52.5211 47.5065 55.0645 42.0043 55.0645V57.0645ZM56.6384 48.6105L71.5384 61.9105L72.8702 60.4184L57.9702 47.1184L56.6384 48.6105ZM71.4099 60.557C68.0466 64.9552 63.7799 68.3188 58.5939 70.6525L59.4147 72.4764C64.8954 70.0101 69.4287 66.4404 72.9987 61.7719L71.4099 60.557ZM58.5939 70.6525C53.4089 72.9858 47.4857 74.1645 40.8043 74.1645V76.1645C47.7229 76.1645 53.933 74.9431 59.4147 72.4764L58.5939 70.6525ZM133.135 36.8645L132.647 35.9913L130.721 37.0666L132.799 37.8066L133.135 36.8645ZM142.135 43.1645L141.33 43.7583L141.337 43.7676L142.135 43.1645ZM137.735 68.1645L138.324 68.9722L138.326 68.9709L137.735 68.1645ZM79.3348 73.5645H78.3348V74.5645H79.3348V73.5645ZM79.3348 3.56445V2.56445H78.3348V3.56445H79.3348ZM134.935 8.36445L134.375 9.19291L134.38 9.1965L134.935 8.36445ZM139.735 30.6645L138.889 30.1305L138.884 30.1385L138.879 30.1466L139.735 30.6645ZM102.535 30.4645H101.535V31.4645H102.535V30.4645ZM102.535 20.0644V19.0644H101.535V20.0644H102.535ZM102.535 46.0645V45.0645H101.535V46.0645H102.535ZM102.535 57.0645H101.535V58.0645H102.535V57.0645ZM132.799 37.8066C136.583 39.1533 139.404 41.1482 141.33 43.7583L142.939 42.5706C140.733 39.5807 137.553 37.3756 133.47 35.9223L132.799 37.8066ZM141.337 43.7676C143.251 46.2993 144.235 49.4443 144.235 53.2645H146.235C146.235 49.0846 145.152 45.4963 142.932 42.5613L141.337 43.7676ZM144.235 53.2645C144.235 59.2166 141.883 63.8821 137.143 67.358L138.326 68.9709C143.586 65.1134 146.235 59.8456 146.235 53.2645H144.235ZM137.145 67.3567C132.448 70.7844 125.687 72.5645 116.735 72.5645V74.5645C125.916 74.5645 133.155 72.7445 138.324 68.9722L137.145 67.3567ZM116.735 72.5645H79.3348V74.5645H116.735V72.5645ZM80.3348 73.5645L80.3348 3.56445H78.3348L78.3348 73.5645H80.3348ZM79.3348 4.56445L114.835 4.56445V2.56445L79.3348 2.56445V4.56445ZM114.835 4.56445C123.398 4.56445 129.872 6.1487 134.375 9.19289L135.495 7.53601C130.531 4.1802 123.605 2.56445 114.835 2.56445V4.56445ZM134.38 9.1965C138.9 12.2098 141.135 16.3966 141.135 21.8645H143.135C143.135 15.7323 140.569 10.9191 135.489 7.5324L134.38 9.1965ZM141.135 21.8645C141.135 25.0307 140.377 27.7745 138.889 30.1305L140.58 31.1984C142.292 28.4877 143.135 25.3649 143.135 21.8645H141.135ZM138.879 30.1466C137.445 32.5159 135.379 34.4664 132.647 35.9913L133.622 37.7376C136.623 36.0625 138.958 33.8796 140.59 31.1823L138.879 30.1466ZM102.535 31.4645L112.535 31.4645V29.4645L102.535 29.4645V31.4645ZM112.535 31.4645C114.593 31.4645 116.323 31.0148 117.545 29.9404C118.792 28.8445 119.335 27.2544 119.335 25.3645H117.335C117.335 26.8745 116.911 27.8344 116.224 28.4385C115.513 29.0641 114.343 29.4645 112.535 29.4645V31.4645ZM119.335 25.3645C119.335 23.4193 118.798 21.7835 117.559 20.6512C116.337 19.5346 114.601 19.0644 112.535 19.0644L112.535 21.0644C114.335 21.0644 115.499 21.4777 116.21 22.1277C116.904 22.762 117.335 23.7763 117.335 25.3645H119.335ZM112.535 19.0644L102.535 19.0644L102.535 21.0644L112.535 21.0644L112.535 19.0644ZM101.535 20.0644L101.535 30.4645H103.535L103.535 20.0644H101.535ZM115.635 58.0645C117.714 58.0645 119.458 57.5631 120.679 56.3839C121.907 55.1983 122.435 53.4944 122.435 51.4645H120.435C120.435 53.1679 119.996 54.2639 119.29 54.9451C118.578 55.6325 117.423 56.0645 115.635 56.0645V58.0645ZM122.435 51.4645C122.435 49.4913 121.902 47.8327 120.666 46.6826C119.444 45.5449 117.705 45.0645 115.635 45.0645V47.0645C117.431 47.0645 118.592 47.484 119.303 48.1463C120.001 48.7962 120.435 49.8376 120.435 51.4645H122.435ZM115.635 45.0645H102.535V47.0645H115.635V45.0645ZM101.535 46.0645V57.0645H103.535V46.0645H101.535ZM102.535 58.0645H115.635V56.0645H102.535V58.0645ZM168.951 70.4645L169.414 69.578L168.951 70.4645ZM154.851 57.4645L153.996 57.9834L153.999 57.988L154.851 57.4645ZM154.851 19.7645L155.703 20.288L155.706 20.2834L154.851 19.7645ZM209.551 6.66445L210.014 5.77804L209.551 6.66445ZM223.651 19.7645L222.796 20.2834L222.799 20.288L223.651 19.7645ZM223.651 57.4645L224.503 57.988L224.506 57.9834L223.651 57.4645ZM209.551 70.4645L210.014 71.3509L209.551 70.4645ZM197.151 53.9645L197.666 54.822L197.673 54.8177L197.151 53.9645ZM202.851 47.8645L203.732 48.3386L203.737 48.3293L202.851 47.8645ZM202.851 29.3644L201.966 29.8293L201.971 29.8386L202.851 29.3644ZM197.151 23.2645L196.619 24.1111L196.633 24.1199L196.647 24.1282L197.151 23.2645ZM181.251 23.2645L181.766 24.122L181.773 24.1177L181.251 23.2645ZM175.651 29.3644L176.532 29.8386L176.537 29.8293L175.651 29.3644ZM175.651 47.8645L174.766 48.3293L174.771 48.3386L175.651 47.8645ZM181.251 53.9645L180.719 54.8111L180.733 54.8199L180.747 54.8282L181.251 53.9645ZM189.251 74.1645C181.861 74.1645 175.256 72.6286 169.414 69.578L168.488 71.3509C174.647 74.5669 181.575 76.1645 189.251 76.1645V74.1645ZM169.414 69.578C163.567 66.5246 159.005 62.3137 155.703 56.9409L153.999 57.988C157.498 63.6819 162.335 68.1376 168.488 71.3509L169.414 69.578ZM155.706 56.9455C152.407 51.5127 150.751 45.3945 150.751 38.5644H148.751C148.751 45.7344 150.495 52.2162 153.996 57.9834L155.706 56.9455ZM150.751 38.5644C150.751 31.7343 152.407 25.6516 155.703 20.288L153.999 19.2409C150.495 24.944 148.751 31.3946 148.751 38.5644H150.751ZM155.706 20.2834C159.008 14.8447 163.57 10.6027 169.414 7.55086L168.488 5.77804C162.332 8.99287 157.494 13.4842 153.996 19.2455L155.706 20.2834ZM169.414 7.55086C175.256 4.50026 181.861 2.96445 189.251 2.96445V0.964451C181.575 0.964451 174.647 2.56198 168.488 5.77804L169.414 7.55086ZM189.251 2.96445C196.642 2.96445 203.247 4.50026 209.088 7.55086L210.014 5.77804C203.856 2.56198 196.927 0.964451 189.251 0.964451V2.96445ZM209.088 7.55086C214.932 10.6027 219.494 14.8447 222.796 20.2834L224.506 19.2455C221.008 13.4842 216.17 8.99287 210.014 5.77804L209.088 7.55086ZM222.799 20.288C226.095 25.6516 227.751 31.7343 227.751 38.5644H229.751C229.751 31.3946 228.007 24.944 224.503 19.2409L222.799 20.288ZM227.751 38.5644C227.751 45.3945 226.095 51.5127 222.796 56.9455L224.506 57.9834C228.007 52.2162 229.751 45.7344 229.751 38.5644H227.751ZM222.799 56.9409C219.498 62.3137 214.935 66.5246 209.088 69.578L210.014 71.3509C216.167 68.1376 221.005 63.6818 224.503 57.988L222.799 56.9409ZM209.088 69.578C203.247 72.6286 196.642 74.1645 189.251 74.1645V76.1645C196.927 76.1645 203.856 74.5669 210.014 71.3509L209.088 69.578ZM189.251 57.0645C192.351 57.0645 195.165 56.3225 197.666 54.8219L196.637 53.107C194.471 54.4064 192.018 55.0645 189.251 55.0645V57.0645ZM197.673 54.8177C200.231 53.254 202.252 51.0864 203.732 48.3386L201.971 47.3904C200.65 49.8425 198.871 51.7416 196.63 53.1112L197.673 54.8177ZM203.737 48.3293C205.224 45.4963 205.951 42.2317 205.951 38.5644H203.951C203.951 41.9639 203.278 44.8993 201.966 47.3996L203.737 48.3293ZM205.951 38.5644C205.951 34.898 205.224 31.6621 203.732 28.8904L201.971 29.8386C203.278 32.2668 203.951 35.1642 203.951 38.5644H205.951ZM203.737 28.8996C202.257 26.0813 200.231 23.9031 197.655 22.4007L196.647 24.1282C198.872 25.4258 200.645 27.3143 201.966 29.8293L203.737 28.8996ZM197.683 22.4178C195.18 20.8444 192.36 20.0644 189.251 20.0644V22.0644C192.009 22.0644 194.455 22.7512 196.619 24.1111L197.683 22.4178ZM189.251 20.0644C186.142 20.0644 183.294 20.8443 180.73 22.4112L181.773 24.1177C184.009 22.7512 186.494 22.0644 189.251 22.0644V20.0644ZM180.737 22.407C178.23 23.9112 176.242 26.0884 174.766 28.8996L176.537 29.8293C177.861 27.3072 179.606 25.4177 181.766 24.1219L180.737 22.407ZM174.771 28.8904C173.278 31.6621 172.551 34.898 172.551 38.5644H174.551C174.551 35.1642 175.224 32.2668 176.532 29.8386L174.771 28.8904ZM172.551 38.5644C172.551 42.2317 173.278 45.4963 174.766 48.3293L176.537 47.3996C175.224 44.8993 174.551 41.9639 174.551 38.5644H172.551ZM174.771 48.3386C176.247 51.0795 178.229 53.2459 180.719 54.8111L181.783 53.1178C179.607 51.7497 177.856 49.8494 176.532 47.3904L174.771 48.3386ZM180.747 54.8282C183.309 56.3225 186.151 57.0645 189.251 57.0645V55.0645C186.485 55.0645 183.993 54.4064 181.755 53.1007L180.747 54.8282ZM237.245 3.56445V2.56445H236.245V3.56445H237.245ZM297.945 3.56445H298.945V2.56445H297.945V3.56445ZM297.945 21.3645V22.3645H298.945V21.3645H297.945ZM260.445 21.3645V20.3645H259.445V21.3645H260.445ZM260.445 29.4645H259.445V30.4645H260.445V29.4645ZM296.745 34.9645L296.116 35.742L296.122 35.747L296.129 35.752L296.745 34.9645ZM295.845 67.4645L295.229 66.6767L295.845 67.4645ZM237.245 73.5645H236.245V74.5645H237.245V73.5645ZM277.945 55.5645L277.345 54.7645L277.335 54.7719L277.325 54.7796L277.945 55.5645ZM260.445 45.8644V44.8644H259.445V45.8644H260.445ZM260.445 57.0645H259.445V58.0645H260.445V57.0645ZM237.245 4.56445L297.945 4.56445V2.56445L237.245 2.56445V4.56445ZM296.945 3.56445V21.3645H298.945V3.56445L296.945 3.56445ZM297.945 20.3645L260.445 20.3645V22.3645L297.945 22.3645V20.3645ZM259.445 21.3645V29.4645H261.445V21.3645H259.445ZM260.445 30.4645H277.145V28.4645H260.445V30.4645ZM277.145 30.4645C285.552 30.4645 291.827 32.2728 296.116 35.742L297.374 34.1869C292.596 30.3228 285.804 28.4645 277.145 28.4645V30.4645ZM296.129 35.752C300.442 39.128 302.645 44.0447 302.645 50.6645H304.645C304.645 43.5509 302.247 38.0009 297.361 34.1769L296.129 35.752ZM302.645 50.6645C302.645 57.5187 300.165 62.8165 295.229 66.6767L296.461 68.2522C301.925 63.9791 304.645 58.0769 304.645 50.6645H302.645ZM295.229 66.6767C290.264 70.5599 283.277 72.5645 274.145 72.5645V74.5645C283.547 74.5645 291.026 72.5024 296.461 68.2522L295.229 66.6767ZM274.145 72.5645H237.245V74.5645H274.145V72.5645ZM238.245 73.5645L238.245 3.56445H236.245L236.245 73.5645H238.245ZM272.545 58.0645C275.006 58.0645 277.058 57.5389 278.565 56.3493L277.325 54.7796C276.299 55.59 274.751 56.0645 272.545 56.0645V58.0645ZM278.545 56.3645C280.163 55.151 280.945 53.4025 280.945 51.2645H278.945C278.945 52.8597 278.394 53.9779 277.345 54.7645L278.545 56.3645ZM280.945 51.2645C280.945 49.21 280.224 47.5302 278.684 46.4067C277.203 45.3259 275.104 44.8644 272.545 44.8644V46.8644C274.92 46.8644 276.52 47.303 277.505 48.0222C278.432 48.6987 278.945 49.7189 278.945 51.2645H280.945ZM272.545 44.8644H260.445V46.8644H272.545V44.8644ZM259.445 45.8644V57.0645H261.445V45.8644H259.445ZM260.445 58.0645H272.545V56.0645H260.445V58.0645ZM327.057 70.4645L327.52 69.578L327.057 70.4645ZM312.957 57.4645L312.102 57.9834L312.105 57.988L312.957 57.4645ZM312.957 19.7645L313.809 20.288L313.811 20.2834L312.957 19.7645ZM367.657 6.66445L368.12 5.77804L367.657 6.66445ZM381.757 19.7645L380.902 20.2834L380.905 20.288L381.757 19.7645ZM381.757 57.4645L382.609 57.988L382.611 57.9834L381.757 57.4645ZM367.657 70.4645L368.12 71.3509L367.657 70.4645ZM355.257 53.9645L355.771 54.822L355.778 54.8177L355.257 53.9645ZM360.957 47.8645L361.837 48.3386L361.842 48.3293L360.957 47.8645ZM360.957 29.3644L360.071 29.8293L360.076 29.8386L360.957 29.3644ZM355.257 23.2645L354.724 24.1111L354.738 24.1199L354.753 24.1282L355.257 23.2645ZM339.357 23.2645L339.871 24.122L339.878 24.1177L339.357 23.2645ZM333.757 29.3644L334.637 29.8386L334.642 29.8293L333.757 29.3644ZM333.757 47.8645L332.871 48.3293L332.876 48.3386L333.757 47.8645ZM339.357 53.9645L338.824 54.8111L338.838 54.8199L338.853 54.8282L339.357 53.9645ZM347.357 74.1645C339.966 74.1645 333.361 72.6286 327.52 69.578L326.594 71.3509C332.752 74.5669 339.681 76.1645 347.357 76.1645V74.1645ZM327.52 69.578C321.673 66.5246 317.11 62.3137 313.809 56.9409L312.105 57.988C315.603 63.6819 320.441 68.1376 326.594 71.3509L327.52 69.578ZM313.811 56.9455C310.513 51.5127 308.857 45.3945 308.857 38.5644H306.857C306.857 45.7344 308.6 52.2162 312.102 57.9834L313.811 56.9455ZM308.857 38.5644C308.857 31.7343 310.513 25.6516 313.809 20.288L312.105 19.2409C308.6 24.944 306.857 31.3946 306.857 38.5644H308.857ZM313.811 20.2834C317.114 14.8447 321.676 10.6027 327.52 7.55086L326.594 5.77804C320.438 8.99287 315.6 13.4842 312.102 19.2455L313.811 20.2834ZM327.52 7.55086C333.361 4.50026 339.966 2.96445 347.357 2.96445V0.964451C339.681 0.964451 332.752 2.56198 326.594 5.77804L327.52 7.55086ZM347.357 2.96445C354.747 2.96445 361.352 4.50026 367.194 7.55086L368.12 5.77804C361.961 2.56198 355.033 0.964451 347.357 0.964451V2.96445ZM367.194 7.55086C373.038 10.6027 377.6 14.8447 380.902 20.2834L382.611 19.2455C379.114 13.4842 374.276 8.99287 368.12 5.77804L367.194 7.55086ZM380.905 20.288C384.2 25.6516 385.857 31.7343 385.857 38.5644H387.857C387.857 31.3946 386.113 24.944 382.609 19.2409L380.905 20.288ZM385.857 38.5644C385.857 45.3945 384.2 51.5127 380.902 56.9455L382.611 57.9834C386.113 52.2162 387.857 45.7344 387.857 38.5644H385.857ZM380.905 56.9409C377.603 62.3137 373.041 66.5246 367.194 69.578L368.12 71.3509C374.273 68.1376 379.11 63.6818 382.609 57.988L380.905 56.9409ZM367.194 69.578C361.352 72.6286 354.747 74.1645 347.357 74.1645V76.1645C355.033 76.1645 361.961 74.5669 368.12 71.3509L367.194 69.578ZM347.357 57.0645C350.457 57.0645 353.27 56.3225 355.771 54.8219L354.742 53.107C352.576 54.4064 350.123 55.0645 347.357 55.0645V57.0645ZM355.778 54.8177C358.337 53.254 360.358 51.0864 361.837 48.3386L360.076 47.3904C358.756 49.8425 356.976 51.7416 354.735 53.1112L355.778 54.8177ZM361.842 48.3293C363.329 45.4963 364.057 42.2317 364.057 38.5644H362.057C362.057 41.9639 361.384 44.8993 360.071 47.3996L361.842 48.3293ZM364.057 38.5644C364.057 34.898 363.33 31.6621 361.837 28.8904L360.076 29.8386C361.384 32.2668 362.057 35.1642 362.057 38.5644H364.057ZM361.842 28.8996C360.362 26.0813 358.336 23.9031 355.76 22.4007L354.753 24.1282C356.977 25.4258 358.751 27.3143 360.071 29.8293L361.842 28.8996ZM355.789 22.4178C353.286 20.8444 350.466 20.0644 347.357 20.0644V22.0644C350.114 22.0644 352.561 22.7512 354.724 24.1111L355.789 22.4178ZM347.357 20.0644C344.248 20.0644 341.399 20.8443 338.835 22.4112L339.878 24.1177C342.114 22.7512 344.599 22.0644 347.357 22.0644V20.0644ZM338.842 22.407C336.335 23.9112 334.347 26.0884 332.871 28.8996L334.642 29.8293C335.966 27.3072 337.712 25.4177 339.871 24.1219L338.842 22.407ZM332.876 28.8904C331.384 31.6621 330.657 34.898 330.657 38.5644H332.657C332.657 35.1642 333.33 32.2668 334.637 29.8386L332.876 28.8904ZM330.657 38.5644C330.657 42.2317 331.384 45.4963 332.871 48.3293L334.642 47.3996C333.329 44.8993 332.657 41.9639 332.657 38.5644H330.657ZM332.876 48.3386C334.352 51.0795 336.334 53.2459 338.824 54.8111L339.889 53.1178C337.712 51.7497 335.961 49.8494 334.637 47.3904L332.876 48.3386ZM338.853 54.8282C341.414 56.3225 344.257 57.0645 347.357 57.0645V55.0645C344.59 55.0645 342.099 54.4064 339.861 53.1007L338.853 54.8282ZM471.897 55.2645H472.897V54.2645H471.897V55.2645ZM471.897 87.2645V88.2645H472.897V87.2645H471.897ZM450.297 87.2645H449.297V88.2645H450.297V87.2645ZM450.297 73.5645H451.297V72.5645H450.297V73.5645ZM410.497 73.5645V72.5645H409.497V73.5645H410.497ZM410.497 87.2645V88.2645H411.497V87.2645H410.497ZM388.897 87.2645H387.897V88.2645H388.897V87.2645ZM388.897 55.2645V54.2645H387.897V55.2645H388.897ZM399.497 47.5645L398.546 47.2556L399.497 47.5645ZM402.697 24.8645L403.696 24.9111L403.697 24.902L402.697 24.8645ZM403.497 3.56445V2.56445H402.534L402.498 3.52692L403.497 3.56445ZM462.697 3.56445H463.697V2.56445H462.697V3.56445ZM462.697 55.2645H461.697V56.2645H462.697V55.2645ZM423.197 26.8645L422.198 26.8245V26.8249L423.197 26.8645ZM421.597 44.0645L422.583 44.2334L422.583 44.2311L421.597 44.0645ZM417.897 55.2645L417.038 54.753L416.138 56.2645H417.897V55.2645ZM439.497 55.2645V56.2645H440.497V55.2645H439.497ZM439.497 21.8645H440.497V20.8645H439.497V21.8645ZM423.397 21.8645V20.8645H422.436L422.398 21.8245L423.397 21.8645ZM470.897 55.2645V87.2645H472.897V55.2645H470.897ZM471.897 86.2645H450.297V88.2645H471.897V86.2645ZM451.297 87.2645V73.5645H449.297V87.2645H451.297ZM450.297 72.5645H410.497V74.5645H450.297V72.5645ZM409.497 73.5645V87.2645H411.497V73.5645H409.497ZM410.497 86.2645L388.897 86.2645V88.2645L410.497 88.2645V86.2645ZM389.897 87.2645V55.2645H387.897V87.2645H389.897ZM388.897 56.2645H390.897V54.2645H388.897V56.2645ZM390.897 56.2645C393.161 56.2645 395.137 55.5419 396.764 54.0845C398.372 52.6453 399.581 50.5436 400.448 47.8733L398.546 47.2556C397.746 49.7186 396.689 51.467 395.43 52.5944C394.191 53.7037 392.7 54.2645 390.897 54.2645V56.2645ZM400.448 47.8733C402.157 42.6113 403.228 34.9381 403.696 24.9111L401.698 24.8178C401.233 34.7909 400.171 42.251 398.546 47.2556L400.448 47.8733ZM403.697 24.902L404.497 3.60198L402.498 3.52692L401.698 24.8269L403.697 24.902ZM403.497 4.56445L462.697 4.56445V2.56445L403.497 2.56445V4.56445ZM461.697 3.56445V55.2645H463.697V3.56445H461.697ZM462.697 56.2645H471.897V54.2645H462.697V56.2645ZM422.198 26.8249C421.932 33.5312 421.402 39.2195 420.611 43.8978L422.583 44.2311C423.393 39.4428 423.929 33.6644 424.196 26.904L422.198 26.8249ZM420.612 43.8955C419.824 48.4912 418.62 52.0947 417.038 54.753L418.757 55.7759C420.508 52.8342 421.771 48.971 422.583 44.2334L420.612 43.8955ZM417.897 56.2645H439.497V54.2645H417.897V56.2645ZM440.497 55.2645V21.8645H438.497V55.2645H440.497ZM439.497 20.8645H423.397V22.8645H439.497V20.8645ZM422.398 21.8245L422.198 26.8245L424.196 26.9044L424.396 21.9044L422.398 21.8245ZM548.823 3.56445H549.823V2.56445H548.823V3.56445ZM548.823 73.5645V74.5645H549.823V73.5645H548.823ZM525.223 73.5645H524.223V74.5645H525.223V73.5645ZM525.223 47.7645H526.223V46.7645H525.223V47.7645ZM503.423 47.7645V46.7645H502.423V47.7645H503.423ZM503.423 73.5645V74.5645H504.423V73.5645H503.423ZM479.823 73.5645H478.823V74.5645H479.823V73.5645ZM479.823 3.56445V2.56445H478.823V3.56445H479.823ZM503.423 3.56445H504.423V2.56445H503.423V3.56445ZM503.423 28.3645H502.423V29.3645H503.423V28.3645ZM525.223 28.3645V29.3645H526.223V28.3645H525.223ZM525.223 3.56445V2.56445H524.223V3.56445H525.223ZM547.823 3.56445V73.5645H549.823V3.56445H547.823ZM548.823 72.5645H525.223V74.5645H548.823V72.5645ZM526.223 73.5645V47.7645H524.223V73.5645H526.223ZM525.223 46.7645H503.423V48.7645H525.223V46.7645ZM502.423 47.7645V73.5645H504.423V47.7645H502.423ZM503.423 72.5645L479.823 72.5645V74.5645L503.423 74.5645V72.5645ZM480.823 73.5645V3.56445H478.823V73.5645H480.823ZM479.823 4.56445L503.423 4.56445V2.56445L479.823 2.56445V4.56445ZM502.423 3.56445V28.3645H504.423V3.56445H502.423ZM503.423 29.3645L525.223 29.3645V27.3645L503.423 27.3645V29.3645ZM526.223 28.3645V3.56445H524.223V28.3645H526.223ZM525.223 4.56445L548.823 4.56445V2.56445L525.223 2.56445V4.56445ZM576.568 70.4645L577.031 69.578L576.568 70.4645ZM562.468 57.4645L561.614 57.9834L561.616 57.988L562.468 57.4645ZM562.468 19.7645L563.32 20.288L563.323 20.2834L562.468 19.7645ZM617.168 6.66445L617.631 5.77804L617.168 6.66445ZM631.268 19.7645L630.414 20.2834L630.416 20.288L631.268 19.7645ZM631.268 57.4645L632.12 57.988L632.123 57.9834L631.268 57.4645ZM617.168 70.4645L617.631 71.3509L617.168 70.4645ZM604.768 53.9645L605.283 54.822L605.29 54.8177L604.768 53.9645ZM610.468 47.8645L611.349 48.3386L611.354 48.3293L610.468 47.8645ZM610.468 29.3644L609.583 29.8293L609.588 29.8386L610.468 29.3644ZM604.768 23.2645L604.236 24.1111L604.25 24.1199L604.264 24.1282L604.768 23.2645ZM588.868 23.2645L589.383 24.122L589.39 24.1177L588.868 23.2645ZM583.268 29.3644L584.149 29.8386L584.154 29.8293L583.268 29.3644ZM583.268 47.8645L582.383 48.3293L582.388 48.3386L583.268 47.8645ZM588.868 53.9645L588.336 54.8111L588.35 54.8199L588.365 54.8282L588.868 53.9645ZM596.868 74.1645C589.478 74.1645 582.873 72.6286 577.031 69.578L576.105 71.3509C582.264 74.5669 589.192 76.1645 596.868 76.1645V74.1645ZM577.031 69.578C571.184 66.5246 566.622 62.3137 563.32 56.9409L561.616 57.988C565.115 63.6819 569.952 68.1376 576.105 71.3509L577.031 69.578ZM563.323 56.9455C560.025 51.5127 558.368 45.3945 558.368 38.5644H556.368C556.368 45.7344 558.112 52.2162 561.614 57.9834L563.323 56.9455ZM558.368 38.5644C558.368 31.7343 560.025 25.6516 563.32 20.288L561.616 19.2409C558.112 24.944 556.368 31.3946 556.368 38.5644H558.368ZM563.323 20.2834C566.625 14.8447 571.187 10.6027 577.031 7.55086L576.105 5.77804C569.949 8.99287 565.112 13.4842 561.614 19.2455L563.323 20.2834ZM577.031 7.55086C582.873 4.50026 589.478 2.96445 596.868 2.96445V0.964451C589.192 0.964451 582.264 2.56198 576.105 5.77804L577.031 7.55086ZM596.868 2.96445C604.259 2.96445 610.864 4.50026 616.705 7.55086L617.631 5.77804C611.473 2.56198 604.544 0.964451 596.868 0.964451V2.96445ZM616.705 7.55086C622.549 10.6027 627.112 14.8447 630.414 20.2834L632.123 19.2455C628.625 13.4842 623.787 8.99287 617.631 5.77804L616.705 7.55086ZM630.416 20.288C633.712 25.6516 635.368 31.7343 635.368 38.5644H637.368C637.368 31.3946 635.625 24.944 632.12 19.2409L630.416 20.288ZM635.368 38.5644C635.368 45.3945 633.712 51.5127 630.414 56.9455L632.123 57.9834C635.625 52.2162 637.368 45.7344 637.368 38.5644H635.368ZM630.416 56.9409C627.115 62.3137 622.552 66.5246 616.705 69.578L617.631 71.3509C623.784 68.1376 628.622 63.6818 632.12 57.988L630.416 56.9409ZM616.705 69.578C610.864 72.6286 604.259 74.1645 596.868 74.1645V76.1645C604.544 76.1645 611.473 74.5669 617.631 71.3509L616.705 69.578ZM596.868 57.0645C599.968 57.0645 602.782 56.3225 605.283 54.8219L604.254 53.107C602.088 54.4064 599.635 55.0645 596.868 55.0645V57.0645ZM605.29 54.8177C607.849 53.254 609.869 51.0864 611.349 48.3386L609.588 47.3904C608.268 49.8425 606.488 51.7416 604.247 53.1112L605.29 54.8177ZM611.354 48.3293C612.841 45.4963 613.568 42.2317 613.568 38.5644H611.568C611.568 41.9639 610.896 44.8993 609.583 47.3996L611.354 48.3293ZM613.568 38.5644C613.568 34.898 612.841 31.6621 611.349 28.8904L609.588 29.8386C610.895 32.2668 611.568 35.1642 611.568 38.5644H613.568ZM611.354 28.8996C609.874 26.0813 607.848 23.9031 605.272 22.4007L604.264 24.1282C606.489 25.4258 608.263 27.3143 609.583 29.8293L611.354 28.8996ZM605.301 22.4178C602.797 20.8444 599.977 20.0644 596.868 20.0644V22.0644C599.626 22.0644 602.073 22.7512 604.236 24.1111L605.301 22.4178ZM596.868 20.0644C593.759 20.0644 590.911 20.8443 588.347 22.4112L589.39 24.1177C591.626 22.7512 594.111 22.0644 596.868 22.0644V20.0644ZM588.354 22.407C585.847 23.9112 583.859 26.0884 582.383 28.8996L584.154 29.8293C585.478 27.3072 587.223 25.4177 589.383 24.1219L588.354 22.407ZM582.388 28.8904C580.895 31.6621 580.168 34.898 580.168 38.5644H582.168C582.168 35.1642 582.841 32.2668 584.149 29.8386L582.388 28.8904ZM580.168 38.5644C580.168 42.2317 580.896 45.4963 582.383 48.3293L584.154 47.3996C582.841 44.8993 582.168 41.9639 582.168 38.5644H580.168ZM582.388 48.3386C583.864 51.0795 585.846 53.2459 588.336 54.8111L589.401 53.1178C587.224 51.7497 585.473 49.8494 584.149 47.3904L582.388 48.3386ZM588.365 54.8282C590.926 56.3225 593.768 57.0645 596.868 57.0645V55.0645C594.102 55.0645 591.611 54.4064 589.372 53.1007L588.365 54.8282ZM703.062 55.7645H704.062V54.7645H703.062V55.7645ZM703.062 73.5645V74.5645H704.062V73.5645H703.062ZM644.862 73.5645H643.862V74.5645H644.862V73.5645ZM644.862 3.56445V2.56445H643.862V3.56445H644.862ZM701.762 3.56445H702.762V2.56445H701.762V3.56445ZM701.762 21.3645V22.3645H702.762V21.3645H701.762ZM668.062 21.3645V20.3645H667.062V21.3645H668.062ZM668.062 29.5644H667.062V30.5644H668.062V29.5644ZM697.662 29.5644H698.662V28.5644H697.662V29.5644ZM697.662 46.5645V47.5645H698.662V46.5645H697.662ZM668.062 46.5645V45.5645H667.062V46.5645H668.062ZM668.062 55.7645H667.062V56.7645H668.062V55.7645ZM702.062 55.7645V73.5645H704.062V55.7645H702.062ZM703.062 72.5645L644.862 72.5645V74.5645L703.062 74.5645V72.5645ZM645.862 73.5645V3.56445H643.862V73.5645H645.862ZM644.862 4.56445L701.762 4.56445V2.56445L644.862 2.56445V4.56445ZM700.762 3.56445V21.3645H702.762V3.56445H700.762ZM701.762 20.3645L668.062 20.3645V22.3645L701.762 22.3645V20.3645ZM667.062 21.3645V29.5644H669.062V21.3645H667.062ZM668.062 30.5644L697.662 30.5644V28.5644L668.062 28.5644V30.5644ZM696.662 29.5644V46.5645H698.662V29.5644H696.662ZM697.662 45.5645H668.062V47.5645H697.662V45.5645ZM667.062 46.5645V55.7645H669.062V46.5645H667.062ZM668.062 56.7645H703.062V54.7645H668.062V56.7645ZM791.516 37.5645L790.663 37.0426L790.353 37.5486L790.649 38.0629L791.516 37.5645ZM812.216 73.5645V74.5645H813.945L813.083 73.066L812.216 73.5645ZM785.616 73.5645L784.732 74.0325L785.014 74.5645H785.616V73.5645ZM772.216 48.2645L773.1 47.7964L772.818 47.2645H772.216V48.2645ZM765.616 48.2645V47.2645H764.616V48.2645H765.616ZM765.616 73.5645V74.5645H766.616V73.5645H765.616ZM742.016 73.5645H741.016V74.5645H742.016V73.5645ZM742.016 3.56445V2.56445H741.016V3.56445H742.016ZM765.616 3.56445H766.616V2.56445H765.616V3.56445ZM765.616 29.6645H764.616V30.6645H765.616V29.6645ZM772.816 29.6645V30.6645H773.397L773.684 30.1602L772.816 29.6645ZM787.716 3.56445V2.56445H787.135L786.848 3.06867L787.716 3.56445ZM812.316 3.56445L813.169 4.0863L814.1 2.56445H812.316V3.56445ZM790.649 38.0629L811.349 74.0629L813.083 73.066L792.383 37.066L790.649 38.0629ZM812.216 72.5645H785.616V74.5645H812.216V72.5645ZM786.5 73.0964L773.1 47.7964L771.332 48.7325L784.732 74.0325L786.5 73.0964ZM772.216 47.2645H765.616V49.2645H772.216V47.2645ZM764.616 48.2645V73.5645H766.616V48.2645H764.616ZM765.616 72.5645L742.016 72.5645V74.5645L765.616 74.5645V72.5645ZM743.016 73.5645V3.56445H741.016V73.5645H743.016ZM742.016 4.56445L765.616 4.56445V2.56445L742.016 2.56445V4.56445ZM764.616 3.56445V29.6645H766.616V3.56445H764.616ZM765.616 30.6645L772.816 30.6645V28.6645L765.616 28.6645V30.6645ZM773.684 30.1602L788.584 4.06023L786.848 3.06867L771.948 29.1687L773.684 30.1602ZM787.716 4.56445L812.316 4.56445V2.56445L787.716 2.56445V4.56445ZM811.463 3.04259L790.663 37.0426L792.369 38.0863L813.169 4.0863L811.463 3.04259ZM864.477 61.3644L865.41 61.005L865.163 60.3644H864.477V61.3644ZM837.877 61.3644V60.3644H837.191L836.944 61.005L837.877 61.3644ZM833.177 73.5645V74.5645H833.863L834.11 73.9239L833.177 73.5645ZM809.177 73.5645L808.261 73.1639L807.648 74.5645H809.177V73.5645ZM839.777 3.56445V2.56445H839.123L838.861 3.1639L839.777 3.56445ZM862.977 3.56445L863.893 3.1639L863.631 2.56445H862.977V3.56445ZM893.577 73.5645V74.5645H895.105L894.493 73.1639L893.577 73.5645ZM869.177 73.5645L868.244 73.9239L868.491 74.5645H869.177V73.5645ZM857.977 44.3644V45.3644H859.435L858.91 44.0041L857.977 44.3644ZM851.177 26.7645L852.11 26.4041L851.177 23.9897L850.244 26.4041L851.177 26.7645ZM844.377 44.3644L843.444 44.0041L842.919 45.3644H844.377V44.3644ZM864.477 60.3644L837.877 60.3644V62.3644L864.477 62.3644V60.3644ZM836.944 61.005L832.244 73.205L834.11 73.9239L838.81 61.7239L836.944 61.005ZM833.177 72.5645H809.177V74.5645H833.177V72.5645ZM810.093 73.965L840.693 3.96499L838.861 3.1639L808.261 73.1639L810.093 73.965ZM839.777 4.56445L862.977 4.56445V2.56445L839.777 2.56445V4.56445ZM862.061 3.96499L892.661 73.965L894.493 73.1639L863.893 3.1639L862.061 3.96499ZM893.577 72.5645H869.177V74.5645H893.577V72.5645ZM870.11 73.205L865.41 61.005L863.544 61.7239L868.244 73.9239L870.11 73.205ZM858.91 44.0041L852.11 26.4041L850.244 27.1249L857.044 44.7249L858.91 44.0041ZM850.244 26.4041L843.444 44.0041L845.31 44.7249L852.11 27.1249L850.244 26.4041ZM844.377 45.3644H857.977V43.3644H844.377V45.3644ZM956.122 21.8645V22.8645H957.122V21.8645H956.122ZM935.622 21.8645V20.8645H934.622V21.8645H935.622ZM935.622 73.5645V74.5645H936.622V73.5645H935.622ZM912.422 73.5645H911.422V74.5645H912.422V73.5645ZM912.422 21.8645H913.422V20.8645H912.422V21.8645ZM891.922 21.8645H890.922V22.8645H891.922V21.8645ZM891.922 3.56445V2.56445H890.922V3.56445H891.922ZM956.122 3.56445H957.122V2.56445H956.122V3.56445ZM956.122 20.8645L935.622 20.8645V22.8645L956.122 22.8645V20.8645ZM934.622 21.8645V73.5645H936.622V21.8645H934.622ZM935.622 72.5645L912.422 72.5645V74.5645L935.622 74.5645V72.5645ZM913.422 73.5645V21.8645H911.422V73.5645H913.422ZM912.422 20.8645L891.922 20.8645V22.8645L912.422 22.8645V20.8645ZM892.922 21.8645V3.56445H890.922V21.8645H892.922ZM891.922 4.56445L956.122 4.56445V2.56445L891.922 2.56445V4.56445ZM955.122 3.56445V21.8645H957.122V3.56445H955.122ZM1009.79 61.3644L1010.72 61.005L1010.48 60.3644H1009.79V61.3644ZM983.189 61.3644V60.3644H982.503L982.256 61.005L983.189 61.3644ZM978.489 73.5645V74.5645H979.176L979.423 73.9239L978.489 73.5645ZM954.489 73.5645L953.573 73.1639L952.961 74.5645H954.489V73.5645ZM985.089 3.56445V2.56445H984.435L984.173 3.1639L985.089 3.56445ZM1008.29 3.56445L1009.21 3.1639L1008.94 2.56445H1008.29V3.56445ZM1038.89 73.5645V74.5645H1040.42L1039.81 73.1639L1038.89 73.5645ZM1014.49 73.5645L1013.56 73.9239L1013.8 74.5645H1014.49V73.5645ZM1003.29 44.3644V45.3644H1004.75L1004.22 44.0041L1003.29 44.3644ZM996.489 26.7645L997.422 26.4041L996.489 23.9897L995.557 26.4041L996.489 26.7645ZM989.689 44.3644L988.757 44.0041L988.231 45.3644H989.689V44.3644ZM1009.79 60.3644H983.189V62.3644H1009.79V60.3644ZM982.256 61.005L977.556 73.205L979.423 73.9239L984.123 61.7239L982.256 61.005ZM978.489 72.5645H954.489V74.5645H978.489V72.5645ZM955.406 73.965L986.006 3.96499L984.173 3.1639L953.573 73.1639L955.406 73.965ZM985.089 4.56445L1008.29 4.56445V2.56445L985.089 2.56445V4.56445ZM1007.37 3.96499L1037.97 73.965L1039.81 73.1639L1009.21 3.1639L1007.37 3.96499ZM1038.89 72.5645L1014.49 72.5645V74.5645L1038.89 74.5645V72.5645ZM1015.42 73.205L1010.72 61.005L1008.86 61.7239L1013.56 73.9239L1015.42 73.205ZM1004.22 44.0041L997.422 26.4041L995.557 27.1249L1002.36 44.7249L1004.22 44.0041ZM995.557 26.4041L988.757 44.0041L990.622 44.7249L997.422 27.1249L995.557 26.4041ZM989.689 45.3644H1003.29V43.3644H989.689V45.3644ZM1114.35 3.56445L1115.35 3.56445V2.56445L1114.35 2.56445V3.56445ZM1114.35 73.5645V74.5645H1115.35V73.5645H1114.35ZM1090.75 73.5645H1089.75V74.5645H1090.75V73.5645ZM1090.75 47.7645H1091.75V46.7645H1090.75V47.7645ZM1068.95 47.7645V46.7645H1067.95V47.7645H1068.95ZM1068.95 73.5645V74.5645H1069.95V73.5645H1068.95ZM1045.35 73.5645H1044.35V74.5645H1045.35V73.5645ZM1045.35 3.56445V2.56445H1044.35V3.56445H1045.35ZM1068.95 3.56445H1069.95V2.56445H1068.95V3.56445ZM1068.95 28.3645H1067.95V29.3645H1068.95V28.3645ZM1090.75 28.3645V29.3645H1091.75V28.3645H1090.75ZM1090.75 3.56445V2.56445H1089.75V3.56445H1090.75ZM1113.35 3.56445V73.5645H1115.35V3.56445L1113.35 3.56445ZM1114.35 72.5645L1090.75 72.5645V74.5645L1114.35 74.5645V72.5645ZM1091.75 73.5645V47.7645H1089.75V73.5645H1091.75ZM1090.75 46.7645H1068.95V48.7645H1090.75V46.7645ZM1067.95 47.7645V73.5645H1069.95V47.7645H1067.95ZM1068.95 72.5645H1045.35V74.5645H1068.95V72.5645ZM1046.35 73.5645V3.56445H1044.35V73.5645H1046.35ZM1045.35 4.56445L1068.95 4.56445V2.56445L1045.35 2.56445V4.56445ZM1067.95 3.56445V28.3645H1069.95V3.56445H1067.95ZM1068.95 29.3645L1090.75 29.3645V27.3645L1068.95 27.3645V29.3645ZM1091.75 28.3645V3.56445H1089.75V28.3645H1091.75ZM1090.75 4.56445L1114.35 4.56445V2.56445L1090.75 2.56445V4.56445ZM1126.8 3.56445V2.56445H1125.8V3.56445H1126.8ZM1150 3.56445H1151V2.56445H1150V3.56445ZM1150 39.9645H1149V43.2862L1150.83 40.5165L1150 39.9645ZM1174.1 3.56445V2.56445H1173.56L1173.26 3.01239L1174.1 3.56445ZM1196.3 3.56445H1197.3V2.56445H1196.3V3.56445ZM1196.3 73.5645V74.5645H1197.3V73.5645H1196.3ZM1173.1 73.5645H1172.1V74.5645H1173.1V73.5645ZM1173.1 37.2645H1174.1V33.9388L1172.26 36.7129L1173.1 37.2645ZM1149.1 73.5645V74.5645H1149.63L1149.93 74.116L1149.1 73.5645ZM1126.8 73.5645H1125.8V74.5645H1126.8V73.5645ZM1126.8 4.56445L1150 4.56445V2.56445L1126.8 2.56445V4.56445ZM1149 3.56445V39.9645H1151V3.56445H1149ZM1150.83 40.5165L1174.93 4.1165L1173.26 3.01239L1149.16 39.4124L1150.83 40.5165ZM1174.1 4.56445L1196.3 4.56445V2.56445L1174.1 2.56445V4.56445ZM1195.3 3.56445V73.5645H1197.3V3.56445H1195.3ZM1196.3 72.5645L1173.1 72.5645V74.5645L1196.3 74.5645V72.5645ZM1174.1 73.5645V37.2645H1172.1V73.5645H1174.1ZM1172.26 36.7129L1148.26 73.0129L1149.93 74.116L1173.93 37.816L1172.26 36.7129ZM1149.1 72.5645H1126.8V74.5645H1149.1V72.5645ZM1127.8 73.5645V3.56445H1125.8V73.5645H1127.8ZM1266.93 55.7645H1267.93V54.7645H1266.93V55.7645ZM1266.93 73.5645V74.5645H1267.93V73.5645H1266.93ZM1208.73 73.5645H1207.73V74.5645H1208.73V73.5645ZM1208.73 3.56445V2.56445H1207.73V3.56445H1208.73ZM1265.63 3.56445H1266.63V2.56445H1265.63V3.56445ZM1265.63 21.3645V22.3645H1266.63V21.3645H1265.63ZM1231.93 21.3645V20.3645H1230.93V21.3645H1231.93ZM1231.93 29.5644H1230.93V30.5644H1231.93V29.5644ZM1261.53 29.5644H1262.53V28.5644H1261.53V29.5644ZM1261.53 46.5645V47.5645H1262.53V46.5645H1261.53ZM1231.93 46.5645V45.5645H1230.93V46.5645H1231.93ZM1231.93 55.7645H1230.93V56.7645H1231.93V55.7645ZM1265.93 55.7645V73.5645H1267.93V55.7645H1265.93ZM1266.93 72.5645H1208.73V74.5645H1266.93V72.5645ZM1209.73 73.5645V3.56445H1207.73V73.5645H1209.73ZM1208.73 4.56445L1265.63 4.56445V2.56445L1208.73 2.56445V4.56445ZM1264.63 3.56445V21.3645H1266.63V3.56445H1264.63ZM1265.63 20.3645L1231.93 20.3645V22.3645L1265.63 22.3645V20.3645ZM1230.93 21.3645V29.5644H1232.93V21.3645H1230.93ZM1231.93 30.5644L1261.53 30.5644V28.5644L1231.93 28.5644V30.5644ZM1260.53 29.5644V46.5645H1262.53V29.5644H1260.53ZM1261.53 45.5645H1231.93V47.5645H1261.53V45.5645ZM1230.93 46.5645V55.7645H1232.93V46.5645H1230.93ZM1231.93 56.7645H1266.93V54.7645H1231.93V56.7645Z" fill="#AEC0D0"/>
</svg>
