<svg width="67" height="58" viewBox="0 0 67 58" fill="none" xmlns="http://www.w3.org/2000/svg">
<g clip-path="url(#clip0)">
<path d="M43.7019 12.7333C43.6022 12.8663 43.5049 12.997 43.4099 13.13C43.5304 13.6925 43.6856 14.2783 43.8617 14.8664L46.4915 13.3611L49.1236 14.8664C49.2997 14.2783 49.4549 13.6995 49.5754 13.13C49.4781 12.997 49.3831 12.864 49.2834 12.7333C48.5582 11.7554 47.6847 10.8662 46.4915 10.8662C45.2982 10.8662 44.4247 11.7554 43.7019 12.7333Z" fill="#6DADBE"/>
<path d="M45.1199 18.3672H47.8586C47.9235 18.2108 47.9883 18.0521 48.0532 17.9004H44.9299L45.1199 18.3672Z" fill="#6DADBE"/>
<path d="M10.685 12.7333C10.5854 12.8663 10.4881 12.997 10.3931 13.13C10.5135 13.6925 10.6688 14.2783 10.8449 14.8664L13.4746 13.3611L16.1067 14.8664C16.2828 14.2783 16.4381 13.6995 16.5701 13.13C16.4728 12.997 16.3778 12.864 16.2782 12.7333C15.553 11.7554 14.6795 10.8662 13.4978 10.8662C12.3162 10.8662 11.4102 11.7554 10.685 12.7333Z" fill="#6DADBE"/>
<path d="M12.1054 18.3672H14.8441C14.9089 18.2108 14.9738 18.0521 15.0387 17.9004H11.9131L12.1054 18.3672Z" fill="#6DADBE"/>
<path d="M56.29 51.5167H34.5035C34.2808 51.5167 34.1003 51.6985 34.1003 51.9228V53.1504C34.1003 53.3747 34.2808 53.5565 34.5035 53.5565H56.29C56.5127 53.5565 56.6932 53.3747 56.6932 53.1504V51.9228C56.6932 51.6985 56.5127 51.5167 56.29 51.5167Z" fill="#6DADBE"/>
<path d="M23.2732 51.5167H1.48665C1.26399 51.5167 1.0835 51.6985 1.0835 51.9228V53.1504C1.0835 53.3747 1.26399 53.5565 1.48665 53.5565H23.2732C23.4958 53.5565 23.6763 53.3747 23.6763 53.1504V51.9228C23.6763 51.6985 23.4958 51.5167 23.2732 51.5167Z" fill="#6DADBE"/>
<path d="M3.60214 21.9075L6.75322 23.0161V35.1519C6.75322 35.2138 6.77763 35.2732 6.82109 35.317C6.86454 35.3607 6.92347 35.3853 6.98492 35.3853H20.1523C20.2137 35.3853 20.2727 35.3607 20.3161 35.317C20.3596 35.2732 20.384 35.2138 20.384 35.1519V23.0161L23.5374 21.9075C23.5906 21.9075 23.6432 21.8962 23.6918 21.8744C23.7404 21.8526 23.7839 21.8207 23.8195 21.7809C23.8551 21.7411 23.882 21.6942 23.8985 21.6432C23.9149 21.5923 23.9206 21.5384 23.9151 21.4851C23.6254 18.6705 22.6454 16.22 20.2913 14.6144C19.9345 14.381 17.0012 13.3378 16.9989 13.3004L17.2051 15.7276C17.2071 15.7458 17.2046 15.7642 17.1978 15.7811C17.1909 15.7981 17.18 15.813 17.1659 15.8246C17.1519 15.8362 17.1352 15.8441 17.1173 15.8475C17.0995 15.851 17.0811 15.8498 17.0638 15.8443L15.7431 15.4335L15.6388 15.4032L13.586 18.4675H13.5698C13.4354 18.2714 11.5239 15.4032 11.5239 15.4032L11.4196 15.4359L10.0989 15.8466C10.0816 15.8522 10.0632 15.8533 10.0454 15.8499C10.0275 15.8464 10.0108 15.8385 9.99679 15.8269C9.98274 15.8153 9.9718 15.8004 9.96495 15.7834C9.95811 15.7665 9.95558 15.7481 9.9576 15.7299L10.1569 13.3027C10.1569 13.3401 7.22125 14.374 6.86444 14.6167C4.54746 16.199 3.53263 18.6425 3.22447 21.4874C3.2193 21.5406 3.22522 21.5942 3.24184 21.6448C3.25846 21.6955 3.28542 21.7421 3.32098 21.7817C3.35654 21.8213 3.39993 21.8529 3.44835 21.8746C3.49677 21.8962 3.54915 21.9075 3.60214 21.9075ZM11.4428 26.7805L12.3974 25.798C12.9209 25.2955 13.3872 24.7358 13.7876 24.1293C13.9069 23.938 14.0026 23.7326 14.0726 23.5179C14.1261 23.3273 14.1526 23.1301 14.1513 22.9321C14.1513 22.1775 13.8092 21.801 13.1249 21.8025C12.95 21.7971 12.7765 21.8342 12.6188 21.9106C12.4611 21.9869 12.324 22.1003 12.219 22.2413L12.0382 22.9414L11.985 22.9881H11.7139L11.6675 22.9414L11.8413 21.3661C12.0608 21.16 12.3196 21.0009 12.602 20.8986C12.8844 20.7963 13.1845 20.7529 13.484 20.771C14.0141 20.7367 14.5362 20.9145 14.9368 21.2657C15.0936 21.422 15.2159 21.6098 15.2957 21.8169C15.3756 22.024 15.4112 22.2457 15.4002 22.4676C15.4024 22.6591 15.3782 22.85 15.3284 23.0348C15.2094 23.4292 15.007 23.7931 14.7352 24.1013C14.485 24.4 14.1073 24.789 13.6022 25.2682C13.4168 25.4503 13.1388 25.7187 12.7635 26.0757V26.1364H13.6092C13.8409 26.1364 14.0725 26.1364 14.2927 26.1364L15.1013 26.1131C15.3075 26.1131 15.4882 26.0967 15.6411 26.0851L15.7107 26.1457C15.6738 26.4938 15.6692 26.8446 15.6968 27.1936L15.6411 27.259C14.7808 27.2247 14.078 27.2076 13.5327 27.2076C12.9627 27.2076 12.2838 27.2216 11.5007 27.2543L11.4405 27.1983L11.4428 26.7805Z" fill="#6DADBE"/>
<path d="M35.5993 22.0593L39.0099 23.2589V36.4076C39.0099 36.4763 39.037 36.5422 39.0853 36.5908C39.1335 36.6394 39.1989 36.6667 39.2671 36.6667H53.5119C53.5457 36.6667 53.5791 36.66 53.6103 36.6469C53.6415 36.6339 53.6699 36.6148 53.6938 36.5908C53.7176 36.5667 53.7366 36.5382 53.7495 36.5067C53.7624 36.4753 53.7691 36.4416 53.7691 36.4076V23.2589L57.1797 22.0593C57.2382 22.0598 57.2962 22.0477 57.3497 22.0236C57.4032 21.9996 57.4509 21.9642 57.4896 21.9199C57.5283 21.8756 57.5571 21.8235 57.574 21.767C57.5908 21.7105 57.5955 21.651 57.5875 21.5925C57.2585 18.5352 56.1857 15.898 53.6486 14.1617C53.264 13.8979 50.092 12.78 50.0874 12.7404L50.3191 15.3659C50.3207 15.3854 50.3176 15.4049 50.31 15.4229C50.3023 15.4408 50.2905 15.4566 50.2753 15.4688C50.2602 15.481 50.2424 15.4893 50.2233 15.4929C50.2043 15.4966 50.1847 15.4954 50.1662 15.4896L48.7389 15.0462L48.6254 15.0112C48.6254 15.0112 46.5586 18.1035 46.4057 18.3275H46.3895C46.2435 18.1128 44.1698 15.0088 44.1698 15.0088L44.0563 15.0438L42.6291 15.4873C42.6106 15.4931 42.5909 15.4942 42.5719 15.4906C42.5529 15.487 42.535 15.4787 42.5199 15.4664C42.5048 15.4542 42.4929 15.4385 42.4853 15.4205C42.4776 15.4026 42.4745 15.383 42.4761 15.3636C42.4761 15.3636 42.7078 12.7427 42.7078 12.738C42.7078 12.7777 39.5313 13.9049 39.1466 14.1593C36.6489 15.87 35.5414 18.5119 35.2078 21.5902C35.1996 21.6475 35.2035 21.7058 35.2193 21.7615C35.235 21.8171 35.2623 21.8688 35.2993 21.9131C35.3362 21.9574 35.3821 21.9933 35.4338 22.0185C35.4855 22.0437 35.5419 22.0576 35.5993 22.0593ZM45.1963 21.0861C45.557 20.8529 45.9796 20.7357 46.408 20.75C46.8212 20.7317 47.2296 20.8443 47.5759 21.072C47.9221 21.2998 48.1887 21.6312 48.3381 22.0196C48.5438 22.5385 48.6401 23.0949 48.6208 23.6533C48.649 24.4335 48.4808 25.2083 48.1319 25.9054C47.8148 26.5053 47.3536 27.0156 46.7903 27.3897C46.2301 27.7617 45.573 27.9583 44.902 27.9545L44.5012 27.6231L44.624 27.4247C44.7441 27.4653 44.8704 27.4842 44.997 27.4808C45.2565 27.4832 45.5137 27.432 45.7528 27.3305C45.9919 27.2289 46.2078 27.0791 46.3872 26.8903C46.5665 26.7036 46.7151 26.4893 46.8274 26.2555C47.085 25.6778 47.2365 25.0579 47.2746 24.4258C47.0181 24.6868 46.7363 24.9213 46.4335 25.1259C46.2023 25.2088 45.9584 25.2499 45.7129 25.2473C45.5043 25.2534 45.297 25.2116 45.1067 25.1251C44.9164 25.0385 44.7482 24.9095 44.6147 24.7479C44.2886 24.3323 44.1238 23.8113 44.1513 23.2822C44.1559 22.2958 44.5043 21.5638 45.1963 21.0861Z" fill="#6DADBE"/>
<path d="M46.48 25.413C46.708 25.4309 46.9354 25.3718 47.1263 25.245C47.3172 25.1182 47.4607 24.931 47.5342 24.7128C47.6231 24.4293 47.6631 24.1325 47.6524 23.8353C47.6524 23.0068 47.5342 22.393 47.2932 21.9939C47.2001 21.8133 47.0593 21.662 46.8865 21.5566C46.7136 21.4513 46.5152 21.3958 46.3132 21.3965C45.8011 21.3965 45.4559 21.6765 45.2728 22.2367C45.1692 22.5799 45.12 22.9375 45.1269 23.2962C45.1269 23.9964 45.252 24.5238 45.5068 24.8949C45.6111 25.0582 45.7555 25.1917 45.926 25.2825C46.0964 25.3732 46.2872 25.4182 46.48 25.413Z" fill="#6DADBE"/>
<path d="M30.9515 0H29.0168V53.4421H30.9515V0Z" fill="#6DADBE"/>
<path d="M63 54.6603H-4V58H63V54.6603Z" fill="#6DADBE"/>
<path d="M12.8236 8.10535H-0.97168V9.58965H12.8236V8.10535Z" fill="#6DADBE"/>
<path d="M27.921 8.10535H14.1257V9.58965H27.921V8.10535Z" fill="#6DADBE"/>
<path d="M45.8404 8.10535H32.0452V9.58965H45.8404V8.10535Z" fill="#6DADBE"/>
<path d="M63 8.10535H47.1426V9.58965H63V8.10535Z" fill="#6DADBE"/>
<path d="M46.5935 8.07965C46.5935 8.05613 46.5843 8.03357 46.5678 8.01694C46.5512 8.00031 46.5289 7.99097 46.5055 7.99097H46.4777C46.4543 7.99097 46.4319 8.00031 46.4154 8.01694C46.3989 8.03357 46.3896 8.05613 46.3896 8.07965V10.3224H46.5935V8.07965Z" fill="#6DADBE"/>
<path d="M13.5767 8.07965C13.5767 8.05613 13.5674 8.03357 13.5509 8.01694C13.5344 8.00031 13.512 7.99097 13.4887 7.99097H13.4608C13.4375 7.99097 13.4151 8.00031 13.3986 8.01694C13.3821 8.03357 13.3728 8.05613 13.3728 8.07965V10.3224H13.5767V8.07965Z" fill="#6DADBE"/>
</g>
<defs>
<clipPath id="clip0">
<rect width="67" height="58" fill="white"/>
</clipPath>
</defs>
</svg>
