<svg width="53" height="48" viewBox="0 0 53 48" fill="none" xmlns="http://www.w3.org/2000/svg">
<path fill-rule="evenodd" clip-rule="evenodd" d="M33.125 36.4557C33.125 36.4557 57.6616 3.75696 33.5265 0C8.99795 2.82127 31.0833 34.1306 33.125 36.4557ZM37.5417 34.2278L47.9811 32.2025L53 44.557L36.7386 47.7975L37.5417 34.2278ZM36.3371 35.6456L35.1326 48L17.2652 42.3291L22.6856 31.5949L27.9053 32.8101L33.125 40.5063L36.3371 35.6456ZM21.0795 32L15.8598 42.3291L0 47.1899L10.0379 34.8354L21.0795 32ZM33.3258 3.64557C24.8819 3.01975 21.2743 17.3873 32.7235 19.2405C44.2369 18.8334 42.0206 3.17975 33.3258 3.64557Z" fill="#6DADBE"/>
</svg>
