<svg width="64" height="52" viewBox="0 0 64 52" fill="none" xmlns="http://www.w3.org/2000/svg">
<g clip-path="url(#clip0)">
<path d="M61.5159 47.7216C60.8841 47.7216 57.6242 47.6808 52.9363 47.6093V43.6661L55.5317 43.261L56.3493 33.768C57.6682 31.462 57.1734 28.1952 56.8742 27.2877C56.5712 26.3689 52.3701 7.29334 52.3701 7.29334C36.8936 -0.561383 36.1431 1.57544 36.1431 1.57544C32.6205 -1.25449 29.2709 0.591653 29.2709 0.591653C29.1984 3.00948 29.1065 5.1404 29.0023 7.02308L34.1758 6.59324L34.3289 8.40662L28.8943 8.85956C28.8406 9.69881 28.782 10.4784 28.7234 11.2065L34.1779 10.7524L34.3289 12.5653L28.5612 13.0456C28.4763 13.923 28.3904 14.7048 28.3044 15.3995L34.1779 14.9106L34.3289 16.7234L28.0433 17.2478C27.8741 18.3278 27.7156 19.0907 27.5851 19.6189L34.1731 19.0698L34.3289 20.8815L26.8222 21.507C23.5558 26.672 9.68461 32.3388 6.72019 34.6981C3.60211 37.1815 5.07466 42.5238 5.07466 42.5238C5.27612 42.5722 5.47382 42.6189 5.67259 42.6657L3.61608 46.2935C3.33887 46.2666 3.11485 46.2397 2.94777 46.2129L2.84033 45.8045L2.24561 46.2489L1.71913 45.7245L1.42634 46.4063L0.710216 46.2129L0.797247 46.95L0.0816587 47.1392L0.525946 47.734L0 48.2573L0.681743 48.5501L0.48834 49.2669L1.22542 49.1793L1.41613 49.8966L1.96088 49.4898C2.11528 49.6758 2.30134 49.8329 2.51047 49.9541L2.53411 49.9782L2.53787 49.9702C3.04071 50.2635 3.72568 50.4414 4.53904 50.494C19.2365 52.2892 52.0741 52.5728 61.5159 50.8401C65.327 50.494 64.288 47.7216 61.5159 47.7216ZM21.0996 46.9812C15.8676 46.8469 11.1754 46.7007 7.82473 46.5514L9.55783 43.4936C14.1554 44.3565 17.9585 44.6456 21.0996 44.5881V46.9812ZM49.4717 47.5545C42.2928 47.4379 32.989 47.2676 24.5642 47.0672V44.3662C30.4941 43.6946 33.321 41.7297 34.526 41.0796C36.6024 39.79 39.7334 38.5543 42.9788 37.4829L44.4438 44.9927L49.4717 44.2077V47.5545Z" fill="#6DADBE"/>
</g>
<defs>
<clipPath id="clip0">
<rect width="64" height="52" fill="white"/>
</clipPath>
</defs>
</svg>
