<svg width="53" height="51" viewBox="0 0 53 51" fill="none" xmlns="http://www.w3.org/2000/svg">
<path fill-rule="evenodd" clip-rule="evenodd" d="M4.96479 51H0V16.002C0 16.002 0.347535 6.31476 9.92958 6.09685C19.5116 5.87894 19.8592 6.09685 19.8592 6.09685C19.8592 6.09685 31.1292 4.829 31.1127 16.002C31.0961 27.1749 31.1127 21.2847 31.1127 21.2847C31.1127 21.2847 43.5412 21.8328 45.3451 29.5389C37.9012 30.3776 11.2535 29.5389 11.2535 29.5389C11.2535 29.5389 13.4215 21.9978 26.1479 20.9545C26.2339 17.9632 26.1479 15.3416 26.1479 15.3416C26.1479 15.3416 26.8264 11.7626 21.5141 11.7097C16.2018 11.6569 9.26761 11.7097 9.26761 11.7097C9.26761 11.7097 4.96479 11.5975 4.96479 16.6623V51ZM11.5845 31.52H45.6761C45.6761 31.52 47 31.5068 47 32.8406C47 34.1745 45.6761 34.1613 45.6761 34.1613H11.2535C11.2535 34.1613 9.92958 34.125 9.92958 32.8406C9.92958 31.5563 11.2767 31.52 11.5845 31.52ZM34.4225 36.8027C34.4225 36.8027 32.4532 40.4346 34.4225 40.4346C36.3919 40.4346 34.4225 36.8027 34.4225 36.8027ZM41.0423 36.8027C41.0423 36.8027 39.0729 40.4346 41.0423 40.4346C43.0116 40.4346 41.0423 36.8027 41.0423 36.8027ZM28.4648 36.8027C28.4648 36.8027 26.4954 40.4346 28.4648 40.4346C30.4342 40.4346 28.4648 36.8027 28.4648 36.8027ZM22.1761 36.8027C22.1761 36.8027 20.2067 40.4346 22.1761 40.4346C24.1454 40.4346 22.1761 36.8027 22.1761 36.8027ZM15.8873 36.8027C15.8873 36.8027 13.918 40.4346 15.8873 40.4346C17.8567 40.4346 15.8873 36.8027 15.8873 36.8027ZM12.9085 40.4346C12.9085 40.4346 10.9391 44.0664 12.9085 44.0664C14.8778 44.0664 12.9085 40.4346 12.9085 40.4346ZM19.1972 40.4346C19.1972 40.4346 17.2278 44.0664 19.1972 44.0664C21.1665 44.0664 19.1972 40.4346 19.1972 40.4346ZM25.4859 40.4346C25.4859 40.4346 23.5165 44.0664 25.4859 44.0664C27.4553 44.0664 25.4859 40.4346 25.4859 40.4346ZM31.7746 40.4346C31.7746 40.4346 29.8053 44.0664 31.7746 44.0664C33.744 44.0664 31.7746 40.4346 31.7746 40.4346ZM37.7324 40.4346C37.7324 40.4346 35.763 44.0664 37.7324 44.0664C39.7018 44.0664 37.7324 40.4346 37.7324 40.4346ZM44.0211 40.4346C44.0211 40.4346 42.0518 44.0664 44.0211 44.0664C45.9905 44.0664 44.0211 40.4346 44.0211 40.4346Z" fill="#6DADBE"/>
</svg>
