<svg width="78" height="58" viewBox="0 0 78 58" fill="none" xmlns="http://www.w3.org/2000/svg">
<g clip-path="url(#clip0)">
<path fill-rule="evenodd" clip-rule="evenodd" d="M9.66053 20.9667H9.89907C10.524 18.8955 11.5862 16.9813 13.0145 15.3523C14.4428 13.7233 16.2042 12.4172 18.1806 11.5215C20.157 10.6258 22.3028 10.1613 24.4741 10.1589C26.6455 10.1566 28.7923 10.6165 30.7706 11.508C32.7827 7.33187 36.155 3.95729 40.3384 1.9338C44.5218 -0.0896911 49.2697 -0.642877 53.809 0.364331C58.3483 1.37154 62.4115 3.8798 65.337 7.48063C68.2624 11.0815 69.8776 15.5627 69.9197 20.1946C72.1516 20.696 74.1561 21.9141 75.6249 23.6613C77.0936 25.4085 77.9452 27.5881 78.0486 29.8646C78.1519 32.1411 77.5013 34.3883 76.1969 36.2604C74.8924 38.1326 73.0064 39.5258 70.8291 40.2258H9.70526C7.13521 40.2258 4.67043 39.209 2.85314 37.3989C1.03584 35.5888 0.0148926 33.1338 0.0148926 30.574C0.0148926 28.0142 1.03584 25.5592 2.85314 23.7492C4.67043 21.9391 7.13521 20.9222 9.70526 20.9222L9.66053 20.9667ZM35.0046 20.0313H31.0241C30.5023 23.6099 30.1296 27.2775 29.891 31.0046L29.4289 25.1393C29.2053 22.1695 29.0562 20.4916 29.0114 20.0313H24.8371C24.2408 24.4167 23.8681 27.9557 23.719 30.6483L23.3016 25.4363L22.8842 20.0313H18.9633L20.7672 35.4742H25.7615C26.3429 31.3759 26.7305 28.6734 26.8945 27.3666C27.2523 30.3364 27.6697 33.0983 28.117 35.4742H33.141L34.93 20.0313H35.0046ZM49.1823 45.7199H53.461V47.68H51.672V49.5658H53.2672V51.4219H51.672V53.575H53.5504V55.55H49.078V45.7199H49.1823ZM42.3543 45.7199H46.633V47.68H44.844V49.5658H46.4392V51.4219H44.844V53.575H46.7225V55.55H42.25V45.7199H42.3543ZM33.9908 45.7199H35.7798C36.5971 45.6944 37.4151 45.7391 38.2248 45.8536C38.6577 45.953 39.0363 46.2132 39.2832 46.5812C39.5974 47.1363 39.7376 47.7724 39.6858 48.4076C39.7215 48.9186 39.6239 49.4301 39.4025 49.8925C39.2584 50.0474 39.0828 50.1699 38.8875 50.2518C38.6921 50.3338 38.4814 50.3733 38.2695 50.3677C38.6535 50.4354 39.0102 50.6105 39.2981 50.8725C39.45 51.0384 39.5622 51.2364 39.6261 51.4516C39.6577 51.9461 39.6577 52.4421 39.6261 52.9365V55.5351H37.2706V52.2683C37.2985 51.9418 37.2579 51.6132 37.1514 51.3032C37.0619 51.1695 36.8532 51.1101 36.4954 51.1101V55.5648H33.9163V45.7199H33.9908ZM36.555 47.3979V49.5807C36.7662 49.604 36.9794 49.5625 37.1663 49.4619C37.2706 49.3876 37.3303 49.1352 37.3303 48.7046V48.1552C37.3579 47.9387 37.299 47.72 37.1663 47.5464C36.9873 47.4248 36.7701 47.372 36.555 47.3979ZM27.3865 45.7199H31.7248V47.68H29.8165V49.5658H31.3819V51.4219H29.8165V55.55H27.3119V45.7199H27.3865ZM58.6043 20.0313H54.5493V22.0507H58.5298V20.0313H58.6043ZM58.6043 22.8229H54.5493V35.4742H58.5298V22.8229H58.6043ZM46.9461 20.0313V35.4742H50.9862V29H53.3715V26.0302H50.9117V23.0604H53.6697V20.0313H46.9461ZM45.7832 27.827H40.6548V30.4849H45.7087V27.827H45.7832ZM39.6709 20.0313H35.6158V22.0507H39.5963V20.0313H39.6709ZM39.6709 22.8229H35.6158V35.4742H39.5963V22.8229H39.6709ZM25.0608 43.3293C24.1302 43.3332 23.2391 43.7041 22.5825 44.3609C21.9259 45.0177 21.5573 45.9068 21.5573 46.8336V54.5105C21.5612 55.4348 21.9316 56.3201 22.5878 56.9737C23.244 57.6272 24.1328 57.9961 25.0608 58H55.3842C56.3133 58 57.2044 57.6324 57.8615 56.978C58.5185 56.3236 58.8876 55.436 58.8876 54.5105V46.8336C58.8876 45.9068 58.519 45.0177 57.8624 44.3609C57.2058 43.7041 56.3147 43.3332 55.3842 43.3293H25.0608Z" fill="#6DADBE"/>
</g>
<defs>
<clipPath id="clip0">
<rect width="78" height="58" fill="white"/>
</clipPath>
</defs>
</svg>
